<svg xmlns="http://www.w3.org/2000/svg" xmlns:xlink="http://www.w3.org/1999/xlink" contentStyleType="text/css" height="2146px" preserveAspectRatio="none" style="width:533px;height:2146px;background:#FFFFFF;" version="1.1" viewBox="0 0 533 2146" width="533px" zoomAndPan="magnify"><title>Activity Diagram &#8212; Attendance Check-In Business Process</title><defs/><g><text fill="#000000" font-family="sans-serif" font-size="14" font-weight="bold" lengthAdjust="spacing" textLength="396.457" x="67.0771" y="34.5332">Activity Diagram &#8212; Attendance Check-In Business Process</text><ellipse cx="271.981" cy="58.6094" fill="#006400" rx="10" ry="10" style="stroke:#222222;stroke-width:1;"/><rect fill="#FAFAD2" height="35.0938" rx="12.5" ry="12.5" style="stroke:#FF8C00;stroke-width:0.5;" width="240.1484" x="151.9067" y="88.6094"/><text fill="#000000" font-family="sans-serif" font-size="12" lengthAdjust="spacing" textLength="220.1484" x="161.9067" y="111.0664">Employee approaches attendance device</text><rect fill="#FAFAD2" height="35.0938" rx="12.5" ry="12.5" style="stroke:#FF8C00;stroke-width:0.5;" width="146.0469" x="198.9575" y="143.7031"/><text fill="#000000" font-family="sans-serif" font-size="12" lengthAdjust="spacing" textLength="126.0469" x="208.9575" y="166.1602">Camera captures frame</text><rect fill="#FAFAD2" height="35.0938" rx="12.5" ry="12.5" style="stroke:#FF8C00;stroke-width:0.5;" width="127.3789" x="208.2915" y="198.7969"/><text fill="#000000" font-family="sans-serif" font-size="12" lengthAdjust="spacing" textLength="107.3789" x="218.2915" y="221.2539">Detect face in frame</text><rect fill="#FAFAD2" height="35.0938" rx="12.5" ry="12.5" style="stroke:#FF8C00;stroke-width:0.5;" width="152.5977" x="195.6821" y="302.8086"/><text fill="#000000" font-family="sans-serif" font-size="12" lengthAdjust="spacing" textLength="132.5977" x="205.6821" y="325.2656">Show "No face detected"</text><ellipse cx="271.981" cy="376.8555" fill="none" rx="11" ry="11" style="stroke:#222222;stroke-width:1;"/><ellipse cx="271.981" cy="376.8555" fill="#222222" rx="6" ry="6" style="stroke:#222222;stroke-width:1;"/><polygon fill="#FFA07A" points="234.0664,253.8906,309.8955,253.8906,321.8955,265.8906,309.8955,277.8906,234.0664,277.8906,222.0664,265.8906,234.0664,253.8906" style="stroke:#8B0000;stroke-width:0.5;"/><text fill="#000000" font-family="sans-serif" font-size="11" lengthAdjust="spacing" textLength="12.2354" x="275.981" y="289.3096">no</text><text fill="#000000" font-family="sans-serif" font-size="11" lengthAdjust="spacing" textLength="75.8291" x="234.0664" y="270.3916">Face detected?</text><rect fill="#FAFAD2" height="35.0938" rx="12.5" ry="12.5" style="stroke:#FF8C00;stroke-width:0.5;" width="259.4785" x="142.2417" y="429.8555"/><text fill="#000000" font-family="sans-serif" font-size="12" lengthAdjust="spacing" textLength="239.4785" x="152.2417" y="452.3125">Load enrolled face encodings from cache/DB</text><rect fill="#FAFAD2" height="35.0938" rx="12.5" ry="12.5" style="stroke:#FF8C00;stroke-width:0.5;" width="182.7676" x="180.5972" y="484.9492"/><text fill="#000000" font-family="sans-serif" font-size="12" lengthAdjust="spacing" textLength="162.7676" x="190.5972" y="507.4063">Compute 128-D face encoding</text><rect fill="#FAFAD2" height="35.0938" rx="12.5" ry="12.5" style="stroke:#FF8C00;stroke-width:0.5;" width="217.4316" x="163.2651" y="540.043"/><text fill="#000000" font-family="sans-serif" font-size="12" lengthAdjust="spacing" textLength="197.4316" x="173.2651" y="562.5">Find best match (Euclidean distance)</text><rect fill="#FAFAD2" height="35.0938" rx="12.5" ry="12.5" style="stroke:#FF8C00;stroke-width:0.5;" width="92.0469" x="225.9575" y="647.7266"/><text fill="#000000" font-family="sans-serif" font-size="12" lengthAdjust="spacing" textLength="72.0469" x="235.9575" y="670.1836">Log as Failed</text><rect fill="#FAFAD2" height="35.0938" rx="12.5" ry="12.5" style="stroke:#FF8C00;stroke-width:0.5;" width="137.9141" x="203.0239" y="702.8203"/><text fill="#000000" font-family="sans-serif" font-size="12" lengthAdjust="spacing" textLength="117.9141" x="213.0239" y="725.2773">Show "Unknown face"</text><ellipse cx="271.981" cy="768.9141" fill="none" rx="11" ry="11" style="stroke:#222222;stroke-width:1;"/><ellipse cx="271.981" cy="768.9141" fill="#222222" rx="6" ry="6" style="stroke:#222222;stroke-width:1;"/><polygon fill="#FFA07A" points="211.293,595.1367,332.6689,595.1367,344.6689,608.9727,332.6689,622.8086,211.293,622.8086,199.293,608.9727,211.293,595.1367" style="stroke:#8B0000;stroke-width:0.5;"/><text fill="#000000" font-family="sans-serif" font-size="11" lengthAdjust="spacing" textLength="12.2354" x="275.981" y="634.2275">no</text><text fill="#000000" font-family="sans-serif" font-size="11" lengthAdjust="spacing" textLength="121.376" x="211.293" y="606.5557">distance &lt; max_distance</text><text fill="#000000" font-family="sans-serif" font-size="11" lengthAdjust="spacing" textLength="34.853" x="211.293" y="620.3916">(0.40)?</text><rect fill="#FAFAD2" height="35.0938" rx="12.5" ry="12.5" style="stroke:#FF8C00;stroke-width:0.5;" width="207.1133" x="168.4243" y="821.9141"/><text fill="#000000" font-family="sans-serif" font-size="12" lengthAdjust="spacing" textLength="187.1133" x="178.4243" y="844.3711">Calculate confidence = 1 - distance</text><rect fill="#FAFAD2" height="35.0938" rx="12.5" ry="12.5" style="stroke:#FF8C00;stroke-width:0.5;" width="117.3945" x="213.2837" y="929.5977"/><text fill="#000000" font-family="sans-serif" font-size="12" lengthAdjust="spacing" textLength="97.3945" x="223.2837" y="952.0547">Log as Suspicious</text><rect fill="#FAFAD2" height="35.0938" rx="12.5" ry="12.5" style="stroke:#FF8C00;stroke-width:0.5;" width="281.3457" x="131.3081" y="984.6914"/><text fill="#000000" font-family="sans-serif" font-size="12" lengthAdjust="spacing" textLength="261.3457" x="141.3081" y="1007.1484">Show "Low confidence &#8212; manual check needed"</text><ellipse cx="271.981" cy="1050.7852" fill="none" rx="11" ry="11" style="stroke:#222222;stroke-width:1;"/><ellipse cx="271.981" cy="1050.7852" fill="#222222" rx="6" ry="6" style="stroke:#222222;stroke-width:1;"/><polygon fill="#FFA07A" points="197.3738,877.0078,346.5881,877.0078,358.5881,890.8438,346.5881,904.6797,197.3738,904.6797,185.3738,890.8438,197.3738,877.0078" style="stroke:#8B0000;stroke-width:0.5;"/><text fill="#000000" font-family="sans-serif" font-size="11" lengthAdjust="spacing" textLength="12.2354" x="275.981" y="916.0986">no</text><text fill="#000000" font-family="sans-serif" font-size="11" lengthAdjust="spacing" textLength="149.2144" x="197.3738" y="888.4268">confidence &gt;= min_confidence</text><text fill="#000000" font-family="sans-serif" font-size="11" lengthAdjust="spacing" textLength="34.853" x="197.3738" y="902.2627">(0.70)?</text><rect fill="#FAFAD2" height="35.0938" rx="12.5" ry="12.5" style="stroke:#FF8C00;stroke-width:0.5;" width="231.4414" x="156.2603" y="1103.7852"/><text fill="#000000" font-family="sans-serif" font-size="12" lengthAdjust="spacing" textLength="211.4414" x="166.2603" y="1126.2422">Anti-spoofing check (liveness detection)</text><rect fill="#FAFAD2" height="35.0938" rx="12.5" ry="12.5" style="stroke:#FF8C00;stroke-width:0.5;" width="106.7363" x="218.6128" y="1207.7969"/><text fill="#000000" font-family="sans-serif" font-size="12" lengthAdjust="spacing" textLength="86.7363" x="228.6128" y="1230.2539">Log as Spoofing</text><rect fill="#FAFAD2" height="35.0938" rx="12.5" ry="12.5" style="stroke:#FF8C00;stroke-width:0.5;" width="89.3516" x="227.3052" y="1262.8906"/><text fill="#000000" font-family="sans-serif" font-size="12" lengthAdjust="spacing" textLength="69.3516" x="237.3052" y="1285.3477">Alert security</text><ellipse cx="271.981" cy="1328.9844" fill="none" rx="11" ry="11" style="stroke:#222222;stroke-width:1;"/><ellipse cx="271.981" cy="1328.9844" fill="#222222" rx="6" ry="6" style="stroke:#222222;stroke-width:1;"/><polygon fill="#FFA07A" points="237.7402,1158.8789,306.2217,1158.8789,318.2217,1170.8789,306.2217,1182.8789,237.7402,1182.8789,225.7402,1170.8789,237.7402,1158.8789" style="stroke:#8B0000;stroke-width:0.5;"/><text fill="#000000" font-family="sans-serif" font-size="11" lengthAdjust="spacing" textLength="12.2354" x="275.981" y="1194.2979">no</text><text fill="#000000" font-family="sans-serif" font-size="11" lengthAdjust="spacing" textLength="68.4814" x="237.7402" y="1175.3799">Liveness OK?</text><rect fill="#FAFAD2" height="35.0938" rx="12.5" ry="12.5" style="stroke:#FF8C00;stroke-width:0.5;" width="189.4063" x="177.2778" y="1381.9844"/><text fill="#000000" font-family="sans-serif" font-size="12" lengthAdjust="spacing" textLength="169.4063" x="187.2778" y="1404.4414">Check duplicate window (5 min)</text><rect fill="#FAFAD2" height="35.0938" rx="12.5" ry="12.5" style="stroke:#FF8C00;stroke-width:0.5;" width="109.3906" x="217.2856" y="1489.668"/><text fill="#000000" font-family="sans-serif" font-size="12" lengthAdjust="spacing" textLength="89.3906" x="227.2856" y="1512.125">Log as Duplicate</text><rect fill="#FAFAD2" height="35.0938" rx="12.5" ry="12.5" style="stroke:#FF8C00;stroke-width:0.5;" width="94.0391" x="224.9614" y="1544.7617"/><text fill="#000000" font-family="sans-serif" font-size="12" lengthAdjust="spacing" textLength="74.0391" x="234.9614" y="1567.2188">Ignore silently</text><ellipse cx="271.981" cy="1610.8555" fill="none" rx="11" ry="11" style="stroke:#222222;stroke-width:1;"/><ellipse cx="271.981" cy="1610.8555" fill="#222222" rx="6" ry="6" style="stroke:#222222;stroke-width:1;"/><polygon fill="#FFA07A" points="225.5103,1437.0781,318.4517,1437.0781,330.4517,1450.9141,318.4517,1464.75,225.5103,1464.75,213.5103,1450.9141,225.5103,1437.0781" style="stroke:#8B0000;stroke-width:0.5;"/><text fill="#000000" font-family="sans-serif" font-size="11" lengthAdjust="spacing" textLength="17.1177" x="275.981" y="1476.1689">yes</text><text fill="#000000" font-family="sans-serif" font-size="11" lengthAdjust="spacing" textLength="92.9414" x="225.5103" y="1448.4971">Already checked in</text><text fill="#000000" font-family="sans-serif" font-size="11" lengthAdjust="spacing" textLength="44.6338" x="225.5103" y="1462.333">recently?</text><rect fill="#FAFAD2" height="35.0938" rx="12.5" ry="12.5" style="stroke:#FF8C00;stroke-width:0.5;" width="250.0977" x="146.9321" y="1663.8555"/><text fill="#000000" font-family="sans-serif" font-size="12" lengthAdjust="spacing" textLength="230.0977" x="156.9321" y="1686.3125">Determine log_type (CheckIn or CheckOut)</text><rect fill="#FAFAD2" height="35.0938" rx="12.5" ry="12.5" style="stroke:#FF8C00;stroke-width:0.5;" width="198.7754" x="172.5933" y="1718.9492"/><text fill="#000000" font-family="sans-serif" font-size="12" lengthAdjust="spacing" textLength="178.7754" x="182.5933" y="1741.4063">Save attendance_logs (audit trail)</text><polygon fill="#FFA07A" points="218.4714,1774.043,325.4905,1774.043,337.4905,1786.043,325.4905,1798.043,218.4714,1798.043,206.4714,1786.043,218.4714,1774.043" style="stroke:#8B0000;stroke-width:0.5;"/><text fill="#000000" font-family="sans-serif" font-size="11" lengthAdjust="spacing" textLength="107.019" x="218.4714" y="1790.5439">log_type == CheckIn?</text><text fill="#000000" font-family="sans-serif" font-size="11" lengthAdjust="spacing" textLength="17.1177" x="189.3538" y="1783.626">yes</text><text fill="#000000" font-family="sans-serif" font-size="11" lengthAdjust="spacing" textLength="48.9092" x="337.4905" y="1783.626">CheckOut</text><rect fill="#FAFAD2" height="35.0938" rx="12.5" ry="12.5" style="stroke:#FF8C00;stroke-width:0.5;" width="256.1563" x="11" y="1808.043"/><text fill="#000000" font-family="sans-serif" font-size="12" lengthAdjust="spacing" textLength="236.1563" x="21" y="1830.5">Create/update attendance_records.check_in</text><rect fill="#FAFAD2" height="35.0938" rx="12.5" ry="12.5" style="stroke:#FF8C00;stroke-width:0.5;" width="232.7656" x="22.6953" y="1863.1367"/><text fill="#000000" font-family="sans-serif" font-size="12" lengthAdjust="spacing" textLength="212.7656" x="32.6953" y="1885.5938">Determine shift from schedule or default</text><rect fill="#FAFAD2" height="35.0938" rx="12.5" ry="12.5" style="stroke:#FF8C00;stroke-width:0.5;" width="191.416" x="43.3701" y="1918.2305"/><text fill="#000000" font-family="sans-serif" font-size="12" lengthAdjust="spacing" textLength="171.416" x="53.3701" y="1940.6875">Calculate status (Present / Late)</text><rect fill="#FAFAD2" height="35.0938" rx="12.5" ry="12.5" style="stroke:#FF8C00;stroke-width:0.5;" width="226.1387" x="291.8145" y="1808.043"/><text fill="#000000" font-family="sans-serif" font-size="12" lengthAdjust="spacing" textLength="206.1387" x="301.8145" y="1830.5">Update attendance_records.check_out</text><rect fill="#FAFAD2" height="35.0938" rx="12.5" ry="12.5" style="stroke:#FF8C00;stroke-width:0.5;" width="163.4023" x="323.1826" y="1863.1367"/><text fill="#000000" font-family="sans-serif" font-size="12" lengthAdjust="spacing" textLength="143.4023" x="333.1826" y="1885.5938">Calculate working_minutes</text><rect fill="#FAFAD2" height="35.0938" rx="12.5" ry="12.5" style="stroke:#FF8C00;stroke-width:0.5;" width="235.4551" x="287.1563" y="1918.2305"/><text fill="#000000" font-family="sans-serif" font-size="12" lengthAdjust="spacing" textLength="215.4551" x="297.1563" y="1940.6875">Calculate EarlyLeave status if applicable</text><polygon fill="#FFA07A" points="271.981,1959.3242,283.981,1971.3242,271.981,1983.3242,259.981,1971.3242,271.981,1959.3242" style="stroke:#8B0000;stroke-width:0.5;"/><rect fill="#FAFAD2" height="35.0938" rx="12.5" ry="12.5" style="stroke:#FF8C00;stroke-width:0.5;" width="193.4258" x="175.2681" y="2003.3242"/><text fill="#000000" font-family="sans-serif" font-size="12" lengthAdjust="spacing" textLength="173.4258" x="185.2681" y="2025.7813">Persist attendance_record to DB</text><rect fill="#FAFAD2" height="35.0938" rx="12.5" ry="12.5" style="stroke:#FF8C00;stroke-width:0.5;" width="196.748" x="173.6069" y="2058.418"/><text fill="#000000" font-family="sans-serif" font-size="12" lengthAdjust="spacing" textLength="176.748" x="183.6069" y="2080.875">Display confirmation to employee</text><ellipse cx="271.981" cy="2124.5117" fill="none" rx="11" ry="11" style="stroke:#222222;stroke-width:1;"/><ellipse cx="271.981" cy="2124.5117" fill="#222222" rx="6" ry="6" style="stroke:#222222;stroke-width:1;"/><line style="stroke:#2F4F4F;stroke-width:1;" x1="271.981" x2="271.981" y1="68.6094" y2="88.6094"/><polygon fill="#2F4F4F" points="267.981,78.6094,271.981,88.6094,275.981,78.6094,271.981,82.6094" style="stroke:#2F4F4F;stroke-width:1;"/><line style="stroke:#2F4F4F;stroke-width:1;" x1="271.981" x2="271.981" y1="123.7031" y2="143.7031"/><polygon fill="#2F4F4F" points="267.981,133.7031,271.981,143.7031,275.981,133.7031,271.981,137.7031" style="stroke:#2F4F4F;stroke-width:1;"/><line style="stroke:#2F4F4F;stroke-width:1;" x1="271.981" x2="271.981" y1="178.7969" y2="198.7969"/><polygon fill="#2F4F4F" points="267.981,188.7969,271.981,198.7969,275.981,188.7969,271.981,192.7969" style="stroke:#2F4F4F;stroke-width:1;"/><line style="stroke:#2F4F4F;stroke-width:1;" x1="271.981" x2="271.981" y1="337.9023" y2="365.8555"/><polygon fill="#2F4F4F" points="267.981,355.8555,271.981,365.8555,275.981,355.8555,271.981,359.8555" style="stroke:#2F4F4F;stroke-width:1;"/><line style="stroke:#2F4F4F;stroke-width:1;" x1="271.981" x2="271.981" y1="277.8906" y2="302.8086"/><polygon fill="#2F4F4F" points="267.981,292.8086,271.981,302.8086,275.981,292.8086,271.981,296.8086" style="stroke:#2F4F4F;stroke-width:1;"/><line style="stroke:#2F4F4F;stroke-width:1;" x1="321.8955" x2="358.2798" y1="265.8906" y2="265.8906"/><polygon fill="#2F4F4F" points="354.2798,335.8555,358.2798,345.8555,362.2798,335.8555,358.2798,339.8555" style="stroke:#2F4F4F;stroke-width:1;"/><line style="stroke:#2F4F4F;stroke-width:1;" x1="358.2798" x2="358.2798" y1="265.8906" y2="409.8555"/><line style="stroke:#2F4F4F;stroke-width:1;" x1="358.2798" x2="271.981" y1="409.8555" y2="409.8555"/><line style="stroke:#2F4F4F;stroke-width:1;" x1="271.981" x2="271.981" y1="409.8555" y2="429.8555"/><polygon fill="#2F4F4F" points="267.981,419.8555,271.981,429.8555,275.981,419.8555,271.981,423.8555" style="stroke:#2F4F4F;stroke-width:1;"/><line style="stroke:#2F4F4F;stroke-width:1;" x1="271.981" x2="271.981" y1="233.8906" y2="253.8906"/><polygon fill="#2F4F4F" points="267.981,243.8906,271.981,253.8906,275.981,243.8906,271.981,247.8906" style="stroke:#2F4F4F;stroke-width:1;"/><line style="stroke:#2F4F4F;stroke-width:1;" x1="271.981" x2="271.981" y1="464.9492" y2="484.9492"/><polygon fill="#2F4F4F" points="267.981,474.9492,271.981,484.9492,275.981,474.9492,271.981,478.9492" style="stroke:#2F4F4F;stroke-width:1;"/><line style="stroke:#2F4F4F;stroke-width:1;" x1="271.981" x2="271.981" y1="520.043" y2="540.043"/><polygon fill="#2F4F4F" points="267.981,530.043,271.981,540.043,275.981,530.043,271.981,534.043" style="stroke:#2F4F4F;stroke-width:1;"/><line style="stroke:#2F4F4F;stroke-width:1;" x1="271.981" x2="271.981" y1="682.8203" y2="702.8203"/><polygon fill="#2F4F4F" points="267.981,692.8203,271.981,702.8203,275.981,692.8203,271.981,696.8203" style="stroke:#2F4F4F;stroke-width:1;"/><line style="stroke:#2F4F4F;stroke-width:1;" x1="271.981" x2="271.981" y1="737.9141" y2="757.9141"/><polygon fill="#2F4F4F" points="267.981,747.9141,271.981,757.9141,275.981,747.9141,271.981,751.9141" style="stroke:#2F4F4F;stroke-width:1;"/><line style="stroke:#2F4F4F;stroke-width:1;" x1="271.981" x2="271.981" y1="622.8086" y2="647.7266"/><polygon fill="#2F4F4F" points="267.981,637.7266,271.981,647.7266,275.981,637.7266,271.981,641.7266" style="stroke:#2F4F4F;stroke-width:1;"/><line style="stroke:#2F4F4F;stroke-width:1;" x1="344.6689" x2="356.6689" y1="608.9727" y2="608.9727"/><polygon fill="#2F4F4F" points="352.6689,699.9023,356.6689,709.9023,360.6689,699.9023,356.6689,703.9023" style="stroke:#2F4F4F;stroke-width:1;"/><line style="stroke:#2F4F4F;stroke-width:1;" x1="356.6689" x2="356.6689" y1="608.9727" y2="801.9141"/><line style="stroke:#2F4F4F;stroke-width:1;" x1="356.6689" x2="271.981" y1="801.9141" y2="801.9141"/><line style="stroke:#2F4F4F;stroke-width:1;" x1="271.981" x2="271.981" y1="801.9141" y2="821.9141"/><polygon fill="#2F4F4F" points="267.981,811.9141,271.981,821.9141,275.981,811.9141,271.981,815.9141" style="stroke:#2F4F4F;stroke-width:1;"/><line style="stroke:#2F4F4F;stroke-width:1;" x1="271.981" x2="271.981" y1="575.1367" y2="595.1367"/><polygon fill="#2F4F4F" points="267.981,585.1367,271.981,595.1367,275.981,585.1367,271.981,589.1367" style="stroke:#2F4F4F;stroke-width:1;"/><line style="stroke:#2F4F4F;stroke-width:1;" x1="271.981" x2="271.981" y1="964.6914" y2="984.6914"/><polygon fill="#2F4F4F" points="267.981,974.6914,271.981,984.6914,275.981,974.6914,271.981,978.6914" style="stroke:#2F4F4F;stroke-width:1;"/><line style="stroke:#2F4F4F;stroke-width:1;" x1="271.981" x2="271.981" y1="1019.7852" y2="1039.7852"/><polygon fill="#2F4F4F" points="267.981,1029.7852,271.981,1039.7852,275.981,1029.7852,271.981,1033.7852" style="stroke:#2F4F4F;stroke-width:1;"/><line style="stroke:#2F4F4F;stroke-width:1;" x1="271.981" x2="271.981" y1="904.6797" y2="929.5977"/><polygon fill="#2F4F4F" points="267.981,919.5977,271.981,929.5977,275.981,919.5977,271.981,923.5977" style="stroke:#2F4F4F;stroke-width:1;"/><line style="stroke:#2F4F4F;stroke-width:1;" x1="358.5881" x2="422.6538" y1="890.8438" y2="890.8438"/><polygon fill="#2F4F4F" points="418.6538,981.7734,422.6538,991.7734,426.6538,981.7734,422.6538,985.7734" style="stroke:#2F4F4F;stroke-width:1;"/><line style="stroke:#2F4F4F;stroke-width:1;" x1="422.6538" x2="422.6538" y1="890.8438" y2="1083.7852"/><line style="stroke:#2F4F4F;stroke-width:1;" x1="422.6538" x2="271.981" y1="1083.7852" y2="1083.7852"/><line style="stroke:#2F4F4F;stroke-width:1;" x1="271.981" x2="271.981" y1="1083.7852" y2="1103.7852"/><polygon fill="#2F4F4F" points="267.981,1093.7852,271.981,1103.7852,275.981,1093.7852,271.981,1097.7852" style="stroke:#2F4F4F;stroke-width:1;"/><line style="stroke:#2F4F4F;stroke-width:1;" x1="271.981" x2="271.981" y1="857.0078" y2="877.0078"/><polygon fill="#2F4F4F" points="267.981,867.0078,271.981,877.0078,275.981,867.0078,271.981,871.0078" style="stroke:#2F4F4F;stroke-width:1;"/><line style="stroke:#2F4F4F;stroke-width:1;" x1="271.981" x2="271.981" y1="1242.8906" y2="1262.8906"/><polygon fill="#2F4F4F" points="267.981,1252.8906,271.981,1262.8906,275.981,1252.8906,271.981,1256.8906" style="stroke:#2F4F4F;stroke-width:1;"/><line style="stroke:#2F4F4F;stroke-width:1;" x1="271.981" x2="271.981" y1="1297.9844" y2="1317.9844"/><polygon fill="#2F4F4F" points="267.981,1307.9844,271.981,1317.9844,275.981,1307.9844,271.981,1311.9844" style="stroke:#2F4F4F;stroke-width:1;"/><line style="stroke:#2F4F4F;stroke-width:1;" x1="271.981" x2="271.981" y1="1182.8789" y2="1207.7969"/><polygon fill="#2F4F4F" points="267.981,1197.7969,271.981,1207.7969,275.981,1197.7969,271.981,1201.7969" style="stroke:#2F4F4F;stroke-width:1;"/><line style="stroke:#2F4F4F;stroke-width:1;" x1="318.2217" x2="335.3491" y1="1170.8789" y2="1170.8789"/><polygon fill="#2F4F4F" points="331.3491,1260.8906,335.3491,1270.8906,339.3491,1260.8906,335.3491,1264.8906" style="stroke:#2F4F4F;stroke-width:1;"/><line style="stroke:#2F4F4F;stroke-width:1;" x1="335.3491" x2="335.3491" y1="1170.8789" y2="1361.9844"/><line style="stroke:#2F4F4F;stroke-width:1;" x1="335.3491" x2="271.981" y1="1361.9844" y2="1361.9844"/><line style="stroke:#2F4F4F;stroke-width:1;" x1="271.981" x2="271.981" y1="1361.9844" y2="1381.9844"/><polygon fill="#2F4F4F" points="267.981,1371.9844,271.981,1381.9844,275.981,1371.9844,271.981,1375.9844" style="stroke:#2F4F4F;stroke-width:1;"/><line style="stroke:#2F4F4F;stroke-width:1;" x1="271.981" x2="271.981" y1="1138.8789" y2="1158.8789"/><polygon fill="#2F4F4F" points="267.981,1148.8789,271.981,1158.8789,275.981,1148.8789,271.981,1152.8789" style="stroke:#2F4F4F;stroke-width:1;"/><line style="stroke:#2F4F4F;stroke-width:1;" x1="271.981" x2="271.981" y1="1524.7617" y2="1544.7617"/><polygon fill="#2F4F4F" points="267.981,1534.7617,271.981,1544.7617,275.981,1534.7617,271.981,1538.7617" style="stroke:#2F4F4F;stroke-width:1;"/><line style="stroke:#2F4F4F;stroke-width:1;" x1="271.981" x2="271.981" y1="1579.8555" y2="1599.8555"/><polygon fill="#2F4F4F" points="267.981,1589.8555,271.981,1599.8555,275.981,1589.8555,271.981,1593.8555" style="stroke:#2F4F4F;stroke-width:1;"/><line style="stroke:#2F4F4F;stroke-width:1;" x1="271.981" x2="271.981" y1="1464.75" y2="1489.668"/><polygon fill="#2F4F4F" points="267.981,1479.668,271.981,1489.668,275.981,1479.668,271.981,1483.668" style="stroke:#2F4F4F;stroke-width:1;"/><line style="stroke:#2F4F4F;stroke-width:1;" x1="330.4517" x2="342.4517" y1="1450.9141" y2="1450.9141"/><polygon fill="#2F4F4F" points="338.4517,1541.8438,342.4517,1551.8438,346.4517,1541.8438,342.4517,1545.8438" style="stroke:#2F4F4F;stroke-width:1;"/><line style="stroke:#2F4F4F;stroke-width:1;" x1="342.4517" x2="342.4517" y1="1450.9141" y2="1643.8555"/><line style="stroke:#2F4F4F;stroke-width:1;" x1="342.4517" x2="271.981" y1="1643.8555" y2="1643.8555"/><line style="stroke:#2F4F4F;stroke-width:1;" x1="271.981" x2="271.981" y1="1643.8555" y2="1663.8555"/><polygon fill="#2F4F4F" points="267.981,1653.8555,271.981,1663.8555,275.981,1653.8555,271.981,1657.8555" style="stroke:#2F4F4F;stroke-width:1;"/><line style="stroke:#2F4F4F;stroke-width:1;" x1="271.981" x2="271.981" y1="1417.0781" y2="1437.0781"/><polygon fill="#2F4F4F" points="267.981,1427.0781,271.981,1437.0781,275.981,1427.0781,271.981,1431.0781" style="stroke:#2F4F4F;stroke-width:1;"/><line style="stroke:#2F4F4F;stroke-width:1;" x1="271.981" x2="271.981" y1="1698.9492" y2="1718.9492"/><polygon fill="#2F4F4F" points="267.981,1708.9492,271.981,1718.9492,275.981,1708.9492,271.981,1712.9492" style="stroke:#2F4F4F;stroke-width:1;"/><line style="stroke:#2F4F4F;stroke-width:1;" x1="139.0781" x2="139.0781" y1="1843.1367" y2="1863.1367"/><polygon fill="#2F4F4F" points="135.0781,1853.1367,139.0781,1863.1367,143.0781,1853.1367,139.0781,1857.1367" style="stroke:#2F4F4F;stroke-width:1;"/><line style="stroke:#2F4F4F;stroke-width:1;" x1="139.0781" x2="139.0781" y1="1898.2305" y2="1918.2305"/><polygon fill="#2F4F4F" points="135.0781,1908.2305,139.0781,1918.2305,143.0781,1908.2305,139.0781,1912.2305" style="stroke:#2F4F4F;stroke-width:1;"/><line style="stroke:#2F4F4F;stroke-width:1;" x1="404.8838" x2="404.8838" y1="1843.1367" y2="1863.1367"/><polygon fill="#2F4F4F" points="400.8838,1853.1367,404.8838,1863.1367,408.8838,1853.1367,404.8838,1857.1367" style="stroke:#2F4F4F;stroke-width:1;"/><line style="stroke:#2F4F4F;stroke-width:1;" x1="404.8838" x2="404.8838" y1="1898.2305" y2="1918.2305"/><polygon fill="#2F4F4F" points="400.8838,1908.2305,404.8838,1918.2305,408.8838,1908.2305,404.8838,1912.2305" style="stroke:#2F4F4F;stroke-width:1;"/><line style="stroke:#2F4F4F;stroke-width:1;" x1="206.4714" x2="139.0781" y1="1786.043" y2="1786.043"/><line style="stroke:#2F4F4F;stroke-width:1;" x1="139.0781" x2="139.0781" y1="1786.043" y2="1808.043"/><polygon fill="#2F4F4F" points="135.0781,1798.043,139.0781,1808.043,143.0781,1798.043,139.0781,1802.043" style="stroke:#2F4F4F;stroke-width:1;"/><line style="stroke:#2F4F4F;stroke-width:1;" x1="337.4905" x2="404.8838" y1="1786.043" y2="1786.043"/><line style="stroke:#2F4F4F;stroke-width:1;" x1="404.8838" x2="404.8838" y1="1786.043" y2="1808.043"/><polygon fill="#2F4F4F" points="400.8838,1798.043,404.8838,1808.043,408.8838,1798.043,404.8838,1802.043" style="stroke:#2F4F4F;stroke-width:1;"/><line style="stroke:#2F4F4F;stroke-width:1;" x1="139.0781" x2="139.0781" y1="1953.3242" y2="1971.3242"/><line style="stroke:#2F4F4F;stroke-width:1;" x1="139.0781" x2="259.981" y1="1971.3242" y2="1971.3242"/><polygon fill="#2F4F4F" points="249.981,1967.3242,259.981,1971.3242,249.981,1975.3242,253.981,1971.3242" style="stroke:#2F4F4F;stroke-width:1;"/><line style="stroke:#2F4F4F;stroke-width:1;" x1="404.8838" x2="404.8838" y1="1953.3242" y2="1971.3242"/><line style="stroke:#2F4F4F;stroke-width:1;" x1="404.8838" x2="283.981" y1="1971.3242" y2="1971.3242"/><polygon fill="#2F4F4F" points="293.981,1967.3242,283.981,1971.3242,293.981,1975.3242,289.981,1971.3242" style="stroke:#2F4F4F;stroke-width:1;"/><line style="stroke:#2F4F4F;stroke-width:1;" x1="271.981" x2="271.981" y1="1754.043" y2="1774.043"/><polygon fill="#2F4F4F" points="267.981,1764.043,271.981,1774.043,275.981,1764.043,271.981,1768.043" style="stroke:#2F4F4F;stroke-width:1;"/><line style="stroke:#2F4F4F;stroke-width:1;" x1="271.981" x2="271.981" y1="1983.3242" y2="2003.3242"/><polygon fill="#2F4F4F" points="267.981,1993.3242,271.981,2003.3242,275.981,1993.3242,271.981,1997.3242" style="stroke:#2F4F4F;stroke-width:1;"/><line style="stroke:#2F4F4F;stroke-width:1;" x1="271.981" x2="271.981" y1="2038.418" y2="2058.418"/><polygon fill="#2F4F4F" points="267.981,2048.418,271.981,2058.418,275.981,2048.418,271.981,2052.418" style="stroke:#2F4F4F;stroke-width:1;"/><line style="stroke:#2F4F4F;stroke-width:1;" x1="271.981" x2="271.981" y1="2093.5117" y2="2113.5117"/><polygon fill="#2F4F4F" points="267.981,2103.5117,271.981,2113.5117,275.981,2103.5117,271.981,2107.5117" style="stroke:#2F4F4F;stroke-width:1;"/><!--SRC=[XPJRQXj138Rl_HGYL_P5JgMb9MbQ7Di9eQO9CRae18mo8wy7puwMESHTIg4FqIViarIpziPkdD0R7qOQwVjrcB0mhaAF9Q2Avj746dvq0CvHBGhFoUa1M_OmDiKyNhBLv6vPVoDhUPdTs6loAvSX-iMrHrUG68O6ItRwnJ0Jj6BRSdeMv9Qq62SHVTmSNdgYV6VKXjfuzhtdvUPmOZ7IfSUwyxCJJRG4_LQP92oor3-_VaC_Hd8QdI8Op4ajzgySdATW78K0DvwLV7Sw8LDqEYUZih9S4m5MbMTKSmg0cmYQ7esYKt4SO4aUGM4LanUdcUHh34EAf2BCKDoDUpetC-XUO1CYsqb_xa6SauEkuvw8EvdCUGbxNtbri_NQEnLRY5nr1C7C9FwOKGCvpzQINZcJKwoDAp85by8as8V3ymQJoof5WkCt7_Q7_tfdyuLn6XueH2WngZbqHqbPemaTQ2Cr4SszDNpx7pwAx_Tf-_VUTOyEtXxrdiiPSm4Ou0ADO9vk1DwvXUEbQr1snGtGgfJx2ehTJ41omZCuXlqddZNEbltJ6PJ6JJSd3TFxLvacALH66KvXYsii7riny-IKw19QK7bgm17fbzhHTz7iXufv9YLT-tQjUQHclbPjDEpQAevRo_MNr-ZMiHgslYKV8P1ANkPwjrnDEfqgQrGksbBQAJgwxt91sfHzwmbrlMAJaJ7ktdbIvAAjdnXg2jiGmpPaGt5LEFO4GLgPB-rWv97taf70SZ6DTKNGRT1arMHPcv_NAMQWama-qjP6JUL6W2ucRI94BzFIOZ-5EZk3TR0Tse4eYtIOAftLRqKLVVBOX8D6yzIuHiO6CypDBAwM9OYBJl9u2AYc6IOR6-VD9ChOnIICDxBceXyEOIp7Waasj4ApkdphxZyad9v7NxANbxcO2fViQNXc7Q6tzPXopTOOKXfvcd9p7gnqfst13VaW2xAR6IB3wYaOcb1Ph5TJxcNVPIopbTPFtcb-1QMhVm40]--></g></svg>