<svg xmlns="http://www.w3.org/2000/svg" xmlns:xlink="http://www.w3.org/1999/xlink" contentStyleType="text/css" height="1149px" preserveAspectRatio="none" style="width:1020px;height:1149px;background:#FFFFFF;" version="1.1" viewBox="0 0 1020 1149" width="1020px" zoomAndPan="magnify"><title>Class Diagram &#8212; FaceID Attendance System</title><defs/><g><text fill="#000000" font-family="sans-serif" font-size="14" font-weight="bold" lengthAdjust="spacing" textLength="299.2158" x="353.6797" y="24.5332">Class Diagram &#8212; FaceID Attendance System</text><!--class EmployeeDto--><g id="elem_EmployeeDto"><rect codeLine="9" fill="#E0FFFF" height="259.3125" id="EmployeeDto" rx="2.5" ry="2.5" style="stroke:#008B8B;stroke-width:0.5;" width="185.9404" x="449.5" y="615.6094"/><ellipse cx="496.1997" cy="631.6094" fill="#ADD1B2" rx="11" ry="11" style="stroke:#181818;stroke-width:1;"/><path d="M498.9653,627.4844 Q499.1216,627.2656 499.3091,627.1563 Q499.4966,627.0469 499.7153,627.0469 Q500.0903,627.0469 500.3247,627.3125 Q500.5591,627.5625 500.5591,628.1719 L500.5591,629.625 Q500.5591,630.2344 500.3247,630.5 Q500.0903,630.7656 499.7153,630.7656 Q499.3716,630.7656 499.1685,630.5625 Q498.9653,630.375 498.856,629.8594 Q498.8091,629.5 498.6216,629.3125 Q498.2935,628.9375 497.6841,628.7188 Q497.0747,628.5 496.4497,628.5 Q495.6841,628.5 495.0435,628.8281 Q494.4185,629.1563 493.9185,629.9063 Q493.4341,630.6563 493.4341,631.6875 L493.4341,632.7813 Q493.4341,634.0156 494.3247,634.8438 Q495.2153,635.6563 496.8091,635.6563 Q497.7466,635.6563 498.4028,635.4063 Q498.7935,635.25 499.2153,634.8125 Q499.481,634.5469 499.6216,634.4688 Q499.7778,634.3906 499.981,634.3906 Q500.3091,634.3906 500.5591,634.6563 Q500.8247,634.9063 500.8247,635.25 Q500.8247,635.5938 500.481,636 Q499.981,636.5781 499.1841,636.9063 Q498.106,637.3594 496.8091,637.3594 Q495.2935,637.3594 494.0903,636.7344 Q493.106,636.2344 492.4185,635.1719 Q491.731,634.0938 491.731,632.8125 L491.731,631.6563 Q491.731,630.3281 492.3403,629.1875 Q492.9653,628.0313 494.0591,627.4219 Q495.1528,626.7969 496.3872,626.7969 Q497.1216,626.7969 497.7622,626.9688 Q498.4185,627.125 498.9653,627.4844 Z " fill="#000000"/><text fill="#000000" font-family="sans-serif" font-size="14" lengthAdjust="spacing" textLength="84.041" x="516.6997" y="637.3379">EmployeeDto</text><line style="stroke:#008B8B;stroke-width:0.5;" x1="450.5" x2="634.4404" y1="647.6094" y2="647.6094"/><text fill="#000000" font-family="sans-serif" font-size="14" lengthAdjust="spacing" textLength="38.5273" x="455.5" y="666.1426">+int Id</text><text fill="#000000" font-family="sans-serif" font-size="14" lengthAdjust="spacing" textLength="79.7686" x="455.5" y="683.752">+string Code</text><text fill="#000000" font-family="sans-serif" font-size="14" lengthAdjust="spacing" textLength="106.2031" x="455.5" y="701.3613">+string FullName</text><text fill="#000000" font-family="sans-serif" font-size="14" lengthAdjust="spacing" textLength="92.9961" x="455.5" y="718.9707">+string Gender</text><text fill="#000000" font-family="sans-serif" font-size="14" lengthAdjust="spacing" textLength="119.458" x="455.5" y="736.5801">+int? DepartmentId</text><text fill="#000000" font-family="sans-serif" font-size="14" lengthAdjust="spacing" textLength="96.1201" x="455.5" y="754.1895">+int? PositionId</text><text fill="#000000" font-family="sans-serif" font-size="14" lengthAdjust="spacing" textLength="118.6855" x="455.5" y="771.7988">+int? DefaultShiftId</text><text fill="#000000" font-family="sans-serif" font-size="14" lengthAdjust="spacing" textLength="101.5684" x="455.5" y="789.4082">+int? ManagerId</text><text fill="#000000" font-family="sans-serif" font-size="14" lengthAdjust="spacing" textLength="148.251" x="455.5" y="807.0176">+bool IsFaceRegistered</text><text fill="#000000" font-family="sans-serif" font-size="14" lengthAdjust="spacing" textLength="173.9404" x="455.5" y="824.627">+decimal AnnualLeaveDays</text><text fill="#000000" font-family="sans-serif" font-size="14" lengthAdjust="spacing" textLength="163.0303" x="455.5" y="842.2363">+decimal UsedLeaveDays</text><text fill="#000000" font-family="sans-serif" font-size="14" lengthAdjust="spacing" textLength="87.5479" x="455.5" y="859.8457">+bool IsActive</text><line style="stroke:#008B8B;stroke-width:0.5;" x1="450.5" x2="634.4404" y1="866.9219" y2="866.9219"/></g><!--class UserDto--><g id="elem_UserDto"><rect codeLine="24" fill="#E0FFFF" height="188.875" id="UserDto" rx="2.5" ry="2.5" style="stroke:#008B8B;stroke-width:0.5;" width="191.3818" x="643" y="321.6094"/><ellipse cx="708.7686" cy="337.6094" fill="#ADD1B2" rx="11" ry="11" style="stroke:#181818;stroke-width:1;"/><path d="M711.5342,333.4844 Q711.6904,333.2656 711.8779,333.1563 Q712.0654,333.0469 712.2842,333.0469 Q712.6592,333.0469 712.8936,333.3125 Q713.1279,333.5625 713.1279,334.1719 L713.1279,335.625 Q713.1279,336.2344 712.8936,336.5 Q712.6592,336.7656 712.2842,336.7656 Q711.9404,336.7656 711.7373,336.5625 Q711.5342,336.375 711.4248,335.8594 Q711.3779,335.5 711.1904,335.3125 Q710.8623,334.9375 710.2529,334.7188 Q709.6436,334.5 709.0186,334.5 Q708.2529,334.5 707.6123,334.8281 Q706.9873,335.1563 706.4873,335.9063 Q706.0029,336.6563 706.0029,337.6875 L706.0029,338.7813 Q706.0029,340.0156 706.8936,340.8438 Q707.7842,341.6563 709.3779,341.6563 Q710.3154,341.6563 710.9717,341.4063 Q711.3623,341.25 711.7842,340.8125 Q712.0498,340.5469 712.1904,340.4688 Q712.3467,340.3906 712.5498,340.3906 Q712.8779,340.3906 713.1279,340.6563 Q713.3936,340.9063 713.3936,341.25 Q713.3936,341.5938 713.0498,342 Q712.5498,342.5781 711.7529,342.9063 Q710.6748,343.3594 709.3779,343.3594 Q707.8623,343.3594 706.6592,342.7344 Q705.6748,342.2344 704.9873,341.1719 Q704.2998,340.0938 704.2998,338.8125 L704.2998,337.6563 Q704.2998,336.3281 704.9092,335.1875 Q705.5342,334.0313 706.6279,333.4219 Q707.7217,332.7969 708.9561,332.7969 Q709.6904,332.7969 710.3311,332.9688 Q710.9873,333.125 711.5342,333.4844 Z " fill="#000000"/><text fill="#000000" font-family="sans-serif" font-size="14" lengthAdjust="spacing" textLength="51.3447" x="729.2686" y="343.3379">UserDto</text><line style="stroke:#008B8B;stroke-width:0.5;" x1="644" x2="833.3818" y1="353.6094" y2="353.6094"/><text fill="#000000" font-family="sans-serif" font-size="14" lengthAdjust="spacing" textLength="38.5273" x="649" y="372.1426">+int Id</text><text fill="#000000" font-family="sans-serif" font-size="14" lengthAdjust="spacing" textLength="110.8789" x="649" y="389.752">+string Username</text><text fill="#000000" font-family="sans-serif" font-size="14" lengthAdjust="spacing" textLength="140.4512" x="649" y="407.3613">+string PasswordHash</text><text fill="#000000" font-family="sans-serif" font-size="14" lengthAdjust="spacing" textLength="108.5684" x="649" y="424.9707">+int? EmployeeId</text><text fill="#000000" font-family="sans-serif" font-size="14" lengthAdjust="spacing" textLength="75.0928" x="649" y="442.5801">+string Role</text><text fill="#000000" font-family="sans-serif" font-size="14" lengthAdjust="spacing" textLength="136.5957" x="649" y="460.1895">+int FailedLoginCount</text><text fill="#000000" font-family="sans-serif" font-size="14" lengthAdjust="spacing" textLength="153.6855" x="649" y="477.7988">+DateTime? LockedUntil</text><text fill="#000000" font-family="sans-serif" font-size="14" lengthAdjust="spacing" textLength="179.3818" x="649" y="495.4082">+bool MustChangePassword</text><line style="stroke:#008B8B;stroke-width:0.5;" x1="644" x2="833.3818" y1="502.4844" y2="502.4844"/></g><!--class FaceDataDto--><g id="elem_FaceDataDto"><rect codeLine="35" fill="#E0FFFF" height="206.4844" id="FaceDataDto" rx="2.5" ry="2.5" style="stroke:#008B8B;stroke-width:0.5;" width="130.6719" x="477" y="313.1094"/><ellipse cx="499.2853" cy="329.1094" fill="#ADD1B2" rx="11" ry="11" style="stroke:#181818;stroke-width:1;"/><path d="M502.0509,324.9844 Q502.2071,324.7656 502.3946,324.6563 Q502.5821,324.5469 502.8009,324.5469 Q503.1759,324.5469 503.4103,324.8125 Q503.6446,325.0625 503.6446,325.6719 L503.6446,327.125 Q503.6446,327.7344 503.4103,328 Q503.1759,328.2656 502.8009,328.2656 Q502.4571,328.2656 502.254,328.0625 Q502.0509,327.875 501.9415,327.3594 Q501.8946,327 501.7071,326.8125 Q501.379,326.4375 500.7696,326.2188 Q500.1603,326 499.5353,326 Q498.7696,326 498.129,326.3281 Q497.504,326.6563 497.004,327.4063 Q496.5196,328.1563 496.5196,329.1875 L496.5196,330.2813 Q496.5196,331.5156 497.4103,332.3438 Q498.3009,333.1563 499.8946,333.1563 Q500.8321,333.1563 501.4884,332.9063 Q501.879,332.75 502.3009,332.3125 Q502.5665,332.0469 502.7071,331.9688 Q502.8634,331.8906 503.0665,331.8906 Q503.3946,331.8906 503.6446,332.1563 Q503.9103,332.4063 503.9103,332.75 Q503.9103,333.0938 503.5665,333.5 Q503.0665,334.0781 502.2696,334.4063 Q501.1915,334.8594 499.8946,334.8594 Q498.379,334.8594 497.1759,334.2344 Q496.1915,333.7344 495.504,332.6719 Q494.8165,331.5938 494.8165,330.3125 L494.8165,329.1563 Q494.8165,327.8281 495.4259,326.6875 Q496.0509,325.5313 497.1446,324.9219 Q498.2384,324.2969 499.4728,324.2969 Q500.2071,324.2969 500.8478,324.4688 Q501.504,324.625 502.0509,324.9844 Z " fill="#000000"/><text fill="#000000" font-family="sans-serif" font-size="14" lengthAdjust="spacing" textLength="82.4824" x="514.9042" y="334.8379">FaceDataDto</text><line style="stroke:#008B8B;stroke-width:0.5;" x1="478" x2="606.6719" y1="345.1094" y2="345.1094"/><text fill="#000000" font-family="sans-serif" font-size="14" lengthAdjust="spacing" textLength="38.5273" x="483" y="363.6426">+int Id</text><text fill="#000000" font-family="sans-serif" font-size="14" lengthAdjust="spacing" textLength="100.7822" x="483" y="381.252">+int EmployeeId</text><text fill="#000000" font-family="sans-serif" font-size="14" lengthAdjust="spacing" textLength="104.6787" x="483" y="398.8613">+string Encoding</text><text fill="#000000" font-family="sans-serif" font-size="14" lengthAdjust="spacing" textLength="114.0098" x="483" y="416.4707">+string ImagePath</text><text fill="#000000" font-family="sans-serif" font-size="14" lengthAdjust="spacing" textLength="100.0098" x="483" y="434.0801">+int ImageIndex</text><text fill="#000000" font-family="sans-serif" font-size="14" lengthAdjust="spacing" textLength="82.1064" x="483" y="451.6895">+string Angle</text><text fill="#000000" font-family="sans-serif" font-size="14" lengthAdjust="spacing" textLength="118.6719" x="483" y="469.2988">+float QualityScore</text><text fill="#000000" font-family="sans-serif" font-size="14" lengthAdjust="spacing" textLength="87.5479" x="483" y="486.9082">+bool IsActive</text><text fill="#000000" font-family="sans-serif" font-size="14" lengthAdjust="spacing" textLength="96.8926" x="483" y="504.5176">+bool IsVerified</text><line style="stroke:#008B8B;stroke-width:0.5;" x1="478" x2="606.6719" y1="511.5938" y2="511.5938"/></g><!--class AttendanceRecordDto--><g id="elem_AttendanceRecordDto"><rect codeLine="47" fill="#E0FFFF" height="276.9219" id="AttendanceRecordDto" rx="2.5" ry="2.5" style="stroke:#008B8B;stroke-width:0.5;" width="185.1543" x="7" y="277.6094"/><ellipse cx="28.9315" cy="293.6094" fill="#ADD1B2" rx="11" ry="11" style="stroke:#181818;stroke-width:1;"/><path d="M31.6971,289.4844 Q31.8534,289.2656 32.0409,289.1563 Q32.2284,289.0469 32.4471,289.0469 Q32.8221,289.0469 33.0565,289.3125 Q33.2909,289.5625 33.2909,290.1719 L33.2909,291.625 Q33.2909,292.2344 33.0565,292.5 Q32.8221,292.7656 32.4471,292.7656 Q32.1034,292.7656 31.9002,292.5625 Q31.6971,292.375 31.5877,291.8594 Q31.5409,291.5 31.3534,291.3125 Q31.0252,290.9375 30.4159,290.7188 Q29.8065,290.5 29.1815,290.5 Q28.4159,290.5 27.7752,290.8281 Q27.1502,291.1563 26.6502,291.9063 Q26.1659,292.6563 26.1659,293.6875 L26.1659,294.7813 Q26.1659,296.0156 27.0565,296.8438 Q27.9471,297.6563 29.5409,297.6563 Q30.4784,297.6563 31.1346,297.4063 Q31.5252,297.25 31.9471,296.8125 Q32.2127,296.5469 32.3534,296.4688 Q32.5096,296.3906 32.7127,296.3906 Q33.0409,296.3906 33.2909,296.6563 Q33.5565,296.9063 33.5565,297.25 Q33.5565,297.5938 33.2127,298 Q32.7127,298.5781 31.9159,298.9063 Q30.8377,299.3594 29.5409,299.3594 Q28.0252,299.3594 26.8221,298.7344 Q25.8377,298.2344 25.1502,297.1719 Q24.4627,296.0938 24.4627,294.8125 L24.4627,293.6563 Q24.4627,292.3281 25.0721,291.1875 Q25.6971,290.0313 26.7909,289.4219 Q27.8846,288.7969 29.119,288.7969 Q29.8534,288.7969 30.494,288.9688 Q31.1502,289.125 31.6971,289.4844 Z " fill="#000000"/><text fill="#000000" font-family="sans-serif" font-size="14" lengthAdjust="spacing" textLength="137.751" x="44.4718" y="299.3379">AttendanceRecordDto</text><line style="stroke:#008B8B;stroke-width:0.5;" x1="8" x2="191.1543" y1="309.6094" y2="309.6094"/><text fill="#000000" font-family="sans-serif" font-size="14" lengthAdjust="spacing" textLength="50.21" x="13" y="328.1426">+long Id</text><text fill="#000000" font-family="sans-serif" font-size="14" lengthAdjust="spacing" textLength="100.7822" x="13" y="345.752">+int EmployeeId</text><text fill="#000000" font-family="sans-serif" font-size="14" lengthAdjust="spacing" textLength="173.1543" x="13" y="363.3613">+DateTime AttendanceDate</text><text fill="#000000" font-family="sans-serif" font-size="14" lengthAdjust="spacing" textLength="74.3271" x="13" y="380.9707">+int? ShiftId</text><text fill="#000000" font-family="sans-serif" font-size="14" lengthAdjust="spacing" textLength="131.8926" x="13" y="398.5801">+DateTime? CheckIn</text><text fill="#000000" font-family="sans-serif" font-size="14" lengthAdjust="spacing" textLength="142.7822" x="13" y="416.1895">+DateTime? CheckOut</text><text fill="#000000" font-family="sans-serif" font-size="14" lengthAdjust="spacing" textLength="144.3545" x="13" y="433.7988">+string CheckInMethod</text><text fill="#000000" font-family="sans-serif" font-size="14" lengthAdjust="spacing" textLength="168.499" x="13" y="451.4082">+float? CheckInConfidence</text><text fill="#000000" font-family="sans-serif" font-size="14" lengthAdjust="spacing" textLength="85.9893" x="13" y="469.0176">+string Status</text><text fill="#000000" font-family="sans-serif" font-size="14" lengthAdjust="spacing" textLength="103.1201" x="13" y="486.627">+int LateMinutes</text><text fill="#000000" font-family="sans-serif" font-size="14" lengthAdjust="spacing" textLength="107.7686" x="13" y="504.2363">+int EarlyMinutes</text><text fill="#000000" font-family="sans-serif" font-size="14" lengthAdjust="spacing" textLength="127.2168" x="13" y="521.8457">+int WorkingMinutes</text><text fill="#000000" font-family="sans-serif" font-size="14" lengthAdjust="spacing" textLength="119.4648" x="13" y="539.4551">+bool IsManualEdit</text><line style="stroke:#008B8B;stroke-width:0.5;" x1="8" x2="191.1543" y1="546.5313" y2="546.5313"/></g><!--class LeaveRequestDto--><g id="elem_LeaveRequestDto"><rect codeLine="63" fill="#E0FFFF" height="188.875" id="LeaveRequestDto" rx="2.5" ry="2.5" style="stroke:#008B8B;stroke-width:0.5;" width="144.0752" x="869.5" y="321.6094"/><ellipse cx="884.5" cy="337.6094" fill="#ADD1B2" rx="11" ry="11" style="stroke:#181818;stroke-width:1;"/><path d="M887.2656,333.4844 Q887.4219,333.2656 887.6094,333.1563 Q887.7969,333.0469 888.0156,333.0469 Q888.3906,333.0469 888.625,333.3125 Q888.8594,333.5625 888.8594,334.1719 L888.8594,335.625 Q888.8594,336.2344 888.625,336.5 Q888.3906,336.7656 888.0156,336.7656 Q887.6719,336.7656 887.4688,336.5625 Q887.2656,336.375 887.1563,335.8594 Q887.1094,335.5 886.9219,335.3125 Q886.5938,334.9375 885.9844,334.7188 Q885.375,334.5 884.75,334.5 Q883.9844,334.5 883.3438,334.8281 Q882.7188,335.1563 882.2188,335.9063 Q881.7344,336.6563 881.7344,337.6875 L881.7344,338.7813 Q881.7344,340.0156 882.625,340.8438 Q883.5156,341.6563 885.1094,341.6563 Q886.0469,341.6563 886.7031,341.4063 Q887.0938,341.25 887.5156,340.8125 Q887.7813,340.5469 887.9219,340.4688 Q888.0781,340.3906 888.2813,340.3906 Q888.6094,340.3906 888.8594,340.6563 Q889.125,340.9063 889.125,341.25 Q889.125,341.5938 888.7813,342 Q888.2813,342.5781 887.4844,342.9063 Q886.4063,343.3594 885.1094,343.3594 Q883.5938,343.3594 882.3906,342.7344 Q881.4063,342.2344 880.7188,341.1719 Q880.0313,340.0938 880.0313,338.8125 L880.0313,337.6563 Q880.0313,336.3281 880.6406,335.1875 Q881.2656,334.0313 882.3594,333.4219 Q883.4531,332.7969 884.6875,332.7969 Q885.4219,332.7969 886.0625,332.9688 Q886.7188,333.125 887.2656,333.4844 Z " fill="#000000"/><text fill="#000000" font-family="sans-serif" font-size="14" lengthAdjust="spacing" textLength="112.0752" x="898.5" y="343.3379">LeaveRequestDto</text><line style="stroke:#008B8B;stroke-width:0.5;" x1="870.5" x2="1012.5752" y1="353.6094" y2="353.6094"/><text fill="#000000" font-family="sans-serif" font-size="14" lengthAdjust="spacing" textLength="38.5273" x="875.5" y="372.1426">+int Id</text><text fill="#000000" font-family="sans-serif" font-size="14" lengthAdjust="spacing" textLength="100.7822" x="875.5" y="389.752">+int EmployeeId</text><text fill="#000000" font-family="sans-serif" font-size="14" lengthAdjust="spacing" textLength="115.5684" x="875.5" y="407.3613">+string LeaveType</text><text fill="#000000" font-family="sans-serif" font-size="14" lengthAdjust="spacing" textLength="131.8857" x="875.5" y="424.9707">+DateTime StartDate</text><text fill="#000000" font-family="sans-serif" font-size="14" lengthAdjust="spacing" textLength="127.2305" x="875.5" y="442.5801">+DateTime EndDate</text><text fill="#000000" font-family="sans-serif" font-size="14" lengthAdjust="spacing" textLength="123.3271" x="875.5" y="460.1895">+decimal TotalDays</text><text fill="#000000" font-family="sans-serif" font-size="14" lengthAdjust="spacing" textLength="85.9893" x="875.5" y="477.7988">+string Status</text><text fill="#000000" font-family="sans-serif" font-size="14" lengthAdjust="spacing" textLength="110.9063" x="875.5" y="495.4082">+int? ApprovedBy</text><line style="stroke:#008B8B;stroke-width:0.5;" x1="870.5" x2="1012.5752" y1="502.4844" y2="502.4844"/></g><!--class DepartmentDto--><g id="elem_DepartmentDto"><rect codeLine="74" fill="#E0FFFF" height="118.4375" id="DepartmentDto" rx="2.5" ry="2.5" style="stroke:#008B8B;stroke-width:0.5;" width="126.9307" x="479" y="979.6094"/><ellipse cx="494" cy="995.6094" fill="#ADD1B2" rx="11" ry="11" style="stroke:#181818;stroke-width:1;"/><path d="M496.7656,991.4844 Q496.9219,991.2656 497.1094,991.1563 Q497.2969,991.0469 497.5156,991.0469 Q497.8906,991.0469 498.125,991.3125 Q498.3594,991.5625 498.3594,992.1719 L498.3594,993.625 Q498.3594,994.2344 498.125,994.5 Q497.8906,994.7656 497.5156,994.7656 Q497.1719,994.7656 496.9688,994.5625 Q496.7656,994.375 496.6563,993.8594 Q496.6094,993.5 496.4219,993.3125 Q496.0938,992.9375 495.4844,992.7188 Q494.875,992.5 494.25,992.5 Q493.4844,992.5 492.8438,992.8281 Q492.2188,993.1563 491.7188,993.9063 Q491.2344,994.6563 491.2344,995.6875 L491.2344,996.7813 Q491.2344,998.0156 492.125,998.8438 Q493.0156,999.6563 494.6094,999.6563 Q495.5469,999.6563 496.2031,999.4063 Q496.5938,999.25 497.0156,998.8125 Q497.2813,998.5469 497.4219,998.4688 Q497.5781,998.3906 497.7813,998.3906 Q498.1094,998.3906 498.3594,998.6563 Q498.625,998.9063 498.625,999.25 Q498.625,999.5938 498.2813,1000 Q497.7813,1000.5781 496.9844,1000.9063 Q495.9063,1001.3594 494.6094,1001.3594 Q493.0938,1001.3594 491.8906,1000.7344 Q490.9063,1000.2344 490.2188,999.1719 Q489.5313,998.0938 489.5313,996.8125 L489.5313,995.6563 Q489.5313,994.3281 490.1406,993.1875 Q490.7656,992.0313 491.8594,991.4219 Q492.9531,990.7969 494.1875,990.7969 Q494.9219,990.7969 495.5625,990.9688 Q496.2188,991.125 496.7656,991.4844 Z " fill="#000000"/><text fill="#000000" font-family="sans-serif" font-size="14" lengthAdjust="spacing" textLength="94.9307" x="508" y="1001.3379">DepartmentDto</text><line style="stroke:#008B8B;stroke-width:0.5;" x1="480" x2="604.9307" y1="1011.6094" y2="1011.6094"/><text fill="#000000" font-family="sans-serif" font-size="14" lengthAdjust="spacing" textLength="38.5273" x="485" y="1030.1426">+int Id</text><text fill="#000000" font-family="sans-serif" font-size="14" lengthAdjust="spacing" textLength="79.7686" x="485" y="1047.752">+string Code</text><text fill="#000000" font-family="sans-serif" font-size="14" lengthAdjust="spacing" textLength="83.6445" x="485" y="1065.3613">+string Name</text><text fill="#000000" font-family="sans-serif" font-size="14" lengthAdjust="spacing" textLength="87.5479" x="485" y="1082.9707">+bool IsActive</text><line style="stroke:#008B8B;stroke-width:0.5;" x1="480" x2="604.9307" y1="1090.0469" y2="1090.0469"/></g><!--class WorkShiftDto--><g id="elem_WorkShiftDto"><rect codeLine="81" fill="#E0FFFF" height="206.4844" id="WorkShiftDto" rx="2.5" ry="2.5" style="stroke:#008B8B;stroke-width:0.5;" width="148.5479" x="262" y="935.6094"/><ellipse cx="292.3387" cy="951.6094" fill="#ADD1B2" rx="11" ry="11" style="stroke:#181818;stroke-width:1;"/><path d="M295.1043,947.4844 Q295.2605,947.2656 295.448,947.1563 Q295.6355,947.0469 295.8543,947.0469 Q296.2293,947.0469 296.4637,947.3125 Q296.698,947.5625 296.698,948.1719 L296.698,949.625 Q296.698,950.2344 296.4637,950.5 Q296.2293,950.7656 295.8543,950.7656 Q295.5105,950.7656 295.3074,950.5625 Q295.1043,950.375 294.9949,949.8594 Q294.948,949.5 294.7605,949.3125 Q294.4324,948.9375 293.823,948.7188 Q293.2137,948.5 292.5887,948.5 Q291.823,948.5 291.1824,948.8281 Q290.5574,949.1563 290.0574,949.9063 Q289.573,950.6563 289.573,951.6875 L289.573,952.7813 Q289.573,954.0156 290.4637,954.8438 Q291.3543,955.6563 292.948,955.6563 Q293.8855,955.6563 294.5418,955.4063 Q294.9324,955.25 295.3543,954.8125 Q295.6199,954.5469 295.7605,954.4688 Q295.9168,954.3906 296.1199,954.3906 Q296.448,954.3906 296.698,954.6563 Q296.9637,954.9063 296.9637,955.25 Q296.9637,955.5938 296.6199,956 Q296.1199,956.5781 295.323,956.9063 Q294.2449,957.3594 292.948,957.3594 Q291.4324,957.3594 290.2293,956.7344 Q289.2449,956.2344 288.5574,955.1719 Q287.8699,954.0938 287.8699,952.8125 L287.8699,951.6563 Q287.8699,950.3281 288.4793,949.1875 Q289.1043,948.0313 290.198,947.4219 Q291.2918,946.7969 292.5262,946.7969 Q293.2605,946.7969 293.9012,946.9688 Q294.5574,947.125 295.1043,947.4844 Z " fill="#000000"/><text fill="#000000" font-family="sans-serif" font-size="14" lengthAdjust="spacing" textLength="82.4619" x="309.7473" y="957.3379">WorkShiftDto</text><line style="stroke:#008B8B;stroke-width:0.5;" x1="263" x2="409.5479" y1="967.6094" y2="967.6094"/><text fill="#000000" font-family="sans-serif" font-size="14" lengthAdjust="spacing" textLength="38.5273" x="268" y="986.1426">+int Id</text><text fill="#000000" font-family="sans-serif" font-size="14" lengthAdjust="spacing" textLength="79.7686" x="268" y="1003.752">+string Code</text><text fill="#000000" font-family="sans-serif" font-size="14" lengthAdjust="spacing" textLength="83.6445" x="268" y="1021.3613">+string Name</text><text fill="#000000" font-family="sans-serif" font-size="14" lengthAdjust="spacing" textLength="105.4375" x="268" y="1038.9707">+string ShiftType</text><text fill="#000000" font-family="sans-serif" font-size="14" lengthAdjust="spacing" textLength="136.5479" x="268" y="1056.5801">+TimeSpan StartTime</text><text fill="#000000" font-family="sans-serif" font-size="14" lengthAdjust="spacing" textLength="131.8926" x="268" y="1074.1895">+TimeSpan EndTime</text><text fill="#000000" font-family="sans-serif" font-size="14" lengthAdjust="spacing" textLength="112.4443" x="268" y="1091.7988">+int BreakMinutes</text><text fill="#000000" font-family="sans-serif" font-size="14" lengthAdjust="spacing" textLength="116.3545" x="268" y="1109.4082">+int LateThreshold</text><text fill="#000000" font-family="sans-serif" font-size="14" lengthAdjust="spacing" textLength="121.0029" x="268" y="1127.0176">+int EarlyThreshold</text><line style="stroke:#008B8B;stroke-width:0.5;" x1="263" x2="409.5479" y1="1134.0938" y2="1134.0938"/></g><!--class AttendanceDeviceDto--><g id="elem_AttendanceDeviceDto"><rect codeLine="93" fill="#E0FFFF" height="171.2656" id="AttendanceDeviceDto" rx="2.5" ry="2.5" style="stroke:#008B8B;stroke-width:0.5;" width="167.4131" x="16" y="659.6094"/><ellipse cx="31" cy="675.6094" fill="#ADD1B2" rx="11" ry="11" style="stroke:#181818;stroke-width:1;"/><path d="M33.7656,671.4844 Q33.9219,671.2656 34.1094,671.1563 Q34.2969,671.0469 34.5156,671.0469 Q34.8906,671.0469 35.125,671.3125 Q35.3594,671.5625 35.3594,672.1719 L35.3594,673.625 Q35.3594,674.2344 35.125,674.5 Q34.8906,674.7656 34.5156,674.7656 Q34.1719,674.7656 33.9688,674.5625 Q33.7656,674.375 33.6563,673.8594 Q33.6094,673.5 33.4219,673.3125 Q33.0938,672.9375 32.4844,672.7188 Q31.875,672.5 31.25,672.5 Q30.4844,672.5 29.8438,672.8281 Q29.2188,673.1563 28.7188,673.9063 Q28.2344,674.6563 28.2344,675.6875 L28.2344,676.7813 Q28.2344,678.0156 29.125,678.8438 Q30.0156,679.6563 31.6094,679.6563 Q32.5469,679.6563 33.2031,679.4063 Q33.5938,679.25 34.0156,678.8125 Q34.2813,678.5469 34.4219,678.4688 Q34.5781,678.3906 34.7813,678.3906 Q35.1094,678.3906 35.3594,678.6563 Q35.625,678.9063 35.625,679.25 Q35.625,679.5938 35.2813,680 Q34.7813,680.5781 33.9844,680.9063 Q32.9063,681.3594 31.6094,681.3594 Q30.0938,681.3594 28.8906,680.7344 Q27.9063,680.2344 27.2188,679.1719 Q26.5313,678.0938 26.5313,676.8125 L26.5313,675.6563 Q26.5313,674.3281 27.1406,673.1875 Q27.7656,672.0313 28.8594,671.4219 Q29.9531,670.7969 31.1875,670.7969 Q31.9219,670.7969 32.5625,670.9688 Q33.2188,671.125 33.7656,671.4844 Z " fill="#000000"/><text fill="#000000" font-family="sans-serif" font-size="14" lengthAdjust="spacing" textLength="135.4131" x="45" y="681.3379">AttendanceDeviceDto</text><line style="stroke:#008B8B;stroke-width:0.5;" x1="17" x2="182.4131" y1="691.6094" y2="691.6094"/><text fill="#000000" font-family="sans-serif" font-size="14" lengthAdjust="spacing" textLength="38.5273" x="22" y="710.1426">+int Id</text><text fill="#000000" font-family="sans-serif" font-size="14" lengthAdjust="spacing" textLength="79.7686" x="22" y="727.752">+string Code</text><text fill="#000000" font-family="sans-serif" font-size="14" lengthAdjust="spacing" textLength="83.6445" x="22" y="745.3613">+string Name</text><text fill="#000000" font-family="sans-serif" font-size="14" lengthAdjust="spacing" textLength="120.2168" x="22" y="762.9707">+string DeviceType</text><text fill="#000000" font-family="sans-serif" font-size="14" lengthAdjust="spacing" textLength="99.2305" x="22" y="780.5801">+string Location</text><text fill="#000000" font-family="sans-serif" font-size="14" lengthAdjust="spacing" textLength="109.334" x="22" y="798.1895">+string IpAddress</text><text fill="#000000" font-family="sans-serif" font-size="14" lengthAdjust="spacing" textLength="87.5479" x="22" y="815.7988">+bool IsActive</text><line style="stroke:#008B8B;stroke-width:0.5;" x1="17" x2="182.4131" y1="822.875" y2="822.875"/></g><!--class FaceRecognitionService--><g id="elem_FaceRecognitionService"><rect codeLine="103" fill="#E0FFFF" height="100.8281" id="FaceRecognitionService" rx="2.5" ry="2.5" style="stroke:#008B8B;stroke-width:0.5;" width="543.0908" x="346" y="72.1094"/><ellipse cx="537.4233" cy="88.1094" fill="#ADD1B2" rx="11" ry="11" style="stroke:#181818;stroke-width:1;"/><path d="M540.189,83.9844 Q540.3452,83.7656 540.5327,83.6563 Q540.7202,83.5469 540.939,83.5469 Q541.314,83.5469 541.5483,83.8125 Q541.7827,84.0625 541.7827,84.6719 L541.7827,86.125 Q541.7827,86.7344 541.5483,87 Q541.314,87.2656 540.939,87.2656 Q540.5952,87.2656 540.3921,87.0625 Q540.189,86.875 540.0796,86.3594 Q540.0327,86 539.8452,85.8125 Q539.5171,85.4375 538.9077,85.2188 Q538.2983,85 537.6733,85 Q536.9077,85 536.2671,85.3281 Q535.6421,85.6563 535.1421,86.4063 Q534.6577,87.1563 534.6577,88.1875 L534.6577,89.2813 Q534.6577,90.5156 535.5483,91.3438 Q536.439,92.1563 538.0327,92.1563 Q538.9702,92.1563 539.6265,91.9063 Q540.0171,91.75 540.439,91.3125 Q540.7046,91.0469 540.8452,90.9688 Q541.0015,90.8906 541.2046,90.8906 Q541.5327,90.8906 541.7827,91.1563 Q542.0483,91.4063 542.0483,91.75 Q542.0483,92.0938 541.7046,92.5 Q541.2046,93.0781 540.4077,93.4063 Q539.3296,93.8594 538.0327,93.8594 Q536.5171,93.8594 535.314,93.2344 Q534.3296,92.7344 533.6421,91.6719 Q532.9546,90.5938 532.9546,89.3125 L532.9546,88.1563 Q532.9546,86.8281 533.564,85.6875 Q534.189,84.5313 535.2827,83.9219 Q536.3765,83.2969 537.6108,83.2969 Q538.3452,83.2969 538.9858,83.4688 Q539.6421,83.625 540.189,83.9844 Z " fill="#000000"/><text fill="#000000" font-family="sans-serif" font-size="14" lengthAdjust="spacing" textLength="151.7441" x="557.9233" y="93.8379">FaceRecognitionService</text><line style="stroke:#008B8B;stroke-width:0.5;" x1="347" x2="888.0908" y1="104.1094" y2="104.1094"/><line style="stroke:#008B8B;stroke-width:0.5;" x1="347" x2="888.0908" y1="112.1094" y2="112.1094"/><text fill="#000000" font-family="sans-serif" font-size="14" lengthAdjust="spacing" textLength="531.0908" x="352" y="130.6426">+List&lt;FaceMatchItem&gt; RecognizeFaces(imagePath, models, faceDataList, tolerance)</text><text fill="#000000" font-family="sans-serif" font-size="14" lengthAdjust="spacing" textLength="306.5986" x="352" y="148.252">-EnrolledFace[] LoadEnrolledFaces(faceDataList)</text><text fill="#000000" font-family="sans-serif" font-size="14" lengthAdjust="spacing" textLength="371.1641" x="352" y="165.8613">-FaceMatchItem FindBestMatch(faces, encoding, tolerance)</text></g><!--class Repository--><g id="elem_Repository"><rect codeLine="109" fill="#E0FFFF" height="153.6563" id="Repository" rx="2.5" ry="2.5" style="stroke:#008B8B;stroke-width:0.5;" width="302.6914" x="8" y="45.6094"/><ellipse cx="121.6372" cy="61.6094" fill="#ADD1B2" rx="11" ry="11" style="stroke:#181818;stroke-width:1;"/><path d="M124.4028,57.4844 Q124.5591,57.2656 124.7466,57.1563 Q124.9341,57.0469 125.1528,57.0469 Q125.5278,57.0469 125.7622,57.3125 Q125.9966,57.5625 125.9966,58.1719 L125.9966,59.625 Q125.9966,60.2344 125.7622,60.5 Q125.5278,60.7656 125.1528,60.7656 Q124.8091,60.7656 124.606,60.5625 Q124.4028,60.375 124.2935,59.8594 Q124.2466,59.5 124.0591,59.3125 Q123.731,58.9375 123.1216,58.7188 Q122.5122,58.5 121.8872,58.5 Q121.1216,58.5 120.481,58.8281 Q119.856,59.1563 119.356,59.9063 Q118.8716,60.6563 118.8716,61.6875 L118.8716,62.7813 Q118.8716,64.0156 119.7622,64.8438 Q120.6528,65.6563 122.2466,65.6563 Q123.1841,65.6563 123.8403,65.4063 Q124.231,65.25 124.6528,64.8125 Q124.9185,64.5469 125.0591,64.4688 Q125.2153,64.3906 125.4185,64.3906 Q125.7466,64.3906 125.9966,64.6563 Q126.2622,64.9063 126.2622,65.25 Q126.2622,65.5938 125.9185,66 Q125.4185,66.5781 124.6216,66.9063 Q123.5435,67.3594 122.2466,67.3594 Q120.731,67.3594 119.5278,66.7344 Q118.5435,66.2344 117.856,65.1719 Q117.1685,64.0938 117.1685,62.8125 L117.1685,61.6563 Q117.1685,60.3281 117.7778,59.1875 Q118.4028,58.0313 119.4966,57.4219 Q120.5903,56.7969 121.8247,56.7969 Q122.5591,56.7969 123.1997,56.9688 Q123.856,57.125 124.4028,57.4844 Z " fill="#000000"/><text fill="#000000" font-family="sans-serif" font-size="14" lengthAdjust="spacing" textLength="66.917" x="142.1372" y="67.3379">Repository</text><line style="stroke:#008B8B;stroke-width:0.5;" x1="9" x2="309.6914" y1="77.6094" y2="77.6094"/><text fill="#000000" font-family="sans-serif" font-size="14" lengthAdjust="spacing" textLength="116.751" x="14" y="96.1426">-AppDatabase _db</text><line style="stroke:#008B8B;stroke-width:0.5;" x1="9" x2="309.6914" y1="103.2188" y2="103.2188"/><text fill="#000000" font-family="sans-serif" font-size="14" lengthAdjust="spacing" textLength="201.1475" x="14" y="121.752">+EmployeeDto GetEmployee(id)</text><text fill="#000000" font-family="sans-serif" font-size="14" lengthAdjust="spacing" textLength="263.3955" x="14" y="139.3613">+List&lt;FaceDataDto&gt; GetActiveFaceData()</text><text fill="#000000" font-family="sans-serif" font-size="14" lengthAdjust="spacing" textLength="234.6299" x="14" y="156.9707">+void SaveAttendanceRecord(record)</text><text fill="#000000" font-family="sans-serif" font-size="14" lengthAdjust="spacing" textLength="191.8574" x="14" y="174.5801">+void SaveAttendanceLog(log)</text><text fill="#000000" font-family="sans-serif" font-size="14" lengthAdjust="spacing" textLength="290.6914" x="14" y="192.1895">+List&lt;LeaveRequestDto&gt; GetPendingLeaves()</text></g><!--class AppDatabase--><g id="elem_AppDatabase"><rect codeLine="118" fill="#E0FFFF" height="118.4375" id="AppDatabase" rx="2.5" ry="2.5" style="stroke:#008B8B;stroke-width:0.5;" width="215.4648" x="227" y="357.1094"/><ellipse cx="288.062" cy="373.1094" fill="#ADD1B2" rx="11" ry="11" style="stroke:#181818;stroke-width:1;"/><path d="M290.8276,368.9844 Q290.9839,368.7656 291.1714,368.6563 Q291.3589,368.5469 291.5776,368.5469 Q291.9526,368.5469 292.187,368.8125 Q292.4214,369.0625 292.4214,369.6719 L292.4214,371.125 Q292.4214,371.7344 292.187,372 Q291.9526,372.2656 291.5776,372.2656 Q291.2339,372.2656 291.0308,372.0625 Q290.8276,371.875 290.7183,371.3594 Q290.6714,371 290.4839,370.8125 Q290.1558,370.4375 289.5464,370.2188 Q288.937,370 288.312,370 Q287.5464,370 286.9058,370.3281 Q286.2808,370.6563 285.7808,371.4063 Q285.2964,372.1563 285.2964,373.1875 L285.2964,374.2813 Q285.2964,375.5156 286.187,376.3438 Q287.0776,377.1563 288.6714,377.1563 Q289.6089,377.1563 290.2651,376.9063 Q290.6558,376.75 291.0776,376.3125 Q291.3433,376.0469 291.4839,375.9688 Q291.6401,375.8906 291.8433,375.8906 Q292.1714,375.8906 292.4214,376.1563 Q292.687,376.4063 292.687,376.75 Q292.687,377.0938 292.3433,377.5 Q291.8433,378.0781 291.0464,378.4063 Q289.9683,378.8594 288.6714,378.8594 Q287.1558,378.8594 285.9526,378.2344 Q284.9683,377.7344 284.2808,376.6719 Q283.5933,375.5938 283.5933,374.3125 L283.5933,373.1563 Q283.5933,371.8281 284.2026,370.6875 Q284.8276,369.5313 285.9214,368.9219 Q287.0151,368.2969 288.2495,368.2969 Q288.9839,368.2969 289.6245,368.4688 Q290.2808,368.625 290.8276,368.9844 Z " fill="#000000"/><text fill="#000000" font-family="sans-serif" font-size="14" lengthAdjust="spacing" textLength="84.8408" x="308.562" y="378.8379">AppDatabase</text><line style="stroke:#008B8B;stroke-width:0.5;" x1="228" x2="441.4648" y1="389.1094" y2="389.1094"/><text fill="#000000" font-family="sans-serif" font-size="14" lengthAdjust="spacing" textLength="160.3232" x="233" y="407.6426">-SQLiteConnection _conn</text><line style="stroke:#008B8B;stroke-width:0.5;" x1="228" x2="441.4648" y1="414.7188" y2="414.7188"/><text fill="#000000" font-family="sans-serif" font-size="14" lengthAdjust="spacing" textLength="192.541" x="233" y="433.252">+T QueryFirst&lt;T&gt;(sql, params)</text><text fill="#000000" font-family="sans-serif" font-size="14" lengthAdjust="spacing" textLength="203.4648" x="233" y="450.8613">+List&lt;T&gt; Query&lt;T&gt;(sql, params)</text><text fill="#000000" font-family="sans-serif" font-size="14" lengthAdjust="spacing" textLength="159.1201" x="233" y="468.4707">+int Execute(sql, params)</text></g><!--reverse link EmployeeDto to DepartmentDto--><g id="link_EmployeeDto_DepartmentDto"><path codeLine="125" d="M542.5,886.8094 C542.5,923.4194 542.5,949.4794 542.5,979.5794 " fill="none" id="EmployeeDto-backto-DepartmentDto" style="stroke:#2F4F4F;stroke-width:1;"/><polygon fill="none" points="542.5,874.8094,538.5,880.8094,542.5,886.8094,546.5,880.8094,542.5,874.8094" style="stroke:#2F4F4F;stroke-width:1;"/><text fill="#000000" font-family="sans-serif" font-size="13" lengthAdjust="spacing" textLength="7.23" x="535.306" y="896.2664">1</text><text fill="#000000" font-family="sans-serif" font-size="13" lengthAdjust="spacing" textLength="21.6836" x="520.2662" y="968.9">0..1</text></g><!--reverse link EmployeeDto to WorkShiftDto--><g id="link_EmployeeDto_WorkShiftDto"><path codeLine="126" d="M444.6241,884.609 C430.2841,904.899 422.56,915.8294 408.73,935.4094 " fill="none" id="EmployeeDto-backto-WorkShiftDto" style="stroke:#2F4F4F;stroke-width:1;"/><polygon fill="none" points="451.55,874.8094,444.8205,877.4005,444.6241,884.609,451.3536,882.0178,451.55,874.8094" style="stroke:#2F4F4F;stroke-width:1;"/><text fill="#000000" font-family="sans-serif" font-size="13" lengthAdjust="spacing" textLength="7.23" x="439.098" y="896.2664">1</text><text fill="#000000" font-family="sans-serif" font-size="13" lengthAdjust="spacing" textLength="21.6836" x="392.305" y="924.7334">0..1</text></g><!--link UserDto to EmployeeDto--><g id="link_UserDto_EmployeeDto"><path codeLine="127" d="M682.33,510.8194 C662.82,543.3694 643.6644,575.3229 622.7544,610.2129 " fill="none" id="UserDto-to-EmployeeDto" style="stroke:#2F4F4F;stroke-width:1;"/><polygon fill="#2F4F4F" points="619.67,615.3594,627.7276,609.6958,622.2403,611.0706,620.8655,605.5833,619.67,615.3594" style="stroke:#2F4F4F;stroke-width:1;"/><text fill="#000000" font-family="sans-serif" font-size="13" lengthAdjust="spacing" textLength="7.23" x="670.9424" y="531.8748">1</text><text fill="#000000" font-family="sans-serif" font-size="13" lengthAdjust="spacing" textLength="21.6836" x="602.5458" y="604.8919">0..1</text></g><!--link FaceDataDto to EmployeeDto--><g id="link_FaceDataDto_EmployeeDto"><path codeLine="128" d="M542.5,519.2294 C542.5,549.6794 542.5,577.4594 542.5,609.3794 " fill="none" id="FaceDataDto-to-EmployeeDto" style="stroke:#2F4F4F;stroke-width:1;"/><polygon fill="#2F4F4F" points="542.5,615.3794,546.5,606.3794,542.5,610.3794,538.5,606.3794,542.5,615.3794" style="stroke:#2F4F4F;stroke-width:1;"/><text fill="#000000" font-family="sans-serif" font-size="13" lengthAdjust="spacing" textLength="19.5127" x="522.8048" y="541.227">1..*</text><text fill="#000000" font-family="sans-serif" font-size="13" lengthAdjust="spacing" textLength="7.23" x="535.306" y="604.9131">1</text></g><!--link AttendanceRecordDto to EmployeeDto--><g id="link_AttendanceRecordDto_EmployeeDto"><path codeLine="129" d="M192.01,540.7994 C197.66,545.7394 203.5,550.3794 209.5,554.6094 C242.93,578.1794 259.74,566.6894 296.5,584.6094 C349.34,610.3694 399.6307,641.9676 444.3407,672.6076 " fill="none" id="AttendanceRecordDto-to-EmployeeDto" style="stroke:#2F4F4F;stroke-width:1;"/><polygon fill="#2F4F4F" points="449.29,675.9994,444.1272,667.6121,445.1656,673.1729,439.6048,674.2112,449.29,675.9994" style="stroke:#2F4F4F;stroke-width:1;"/><text fill="#000000" font-family="sans-serif" font-size="13" lengthAdjust="spacing" textLength="19.5127" x="200.1532" y="547.6103">1..*</text><text fill="#000000" font-family="sans-serif" font-size="13" lengthAdjust="spacing" textLength="7.23" x="434.2932" y="667.1104">1</text></g><!--link AttendanceRecordDto to WorkShiftDto--><g id="link_AttendanceRecordDto_WorkShiftDto"><path codeLine="130" d="M173,554.6194 C182.77,574.8294 192.24,595.5894 200.5,615.6094 C244.53,722.3494 281.9931,843.1127 306.8431,929.6027 " fill="none" id="AttendanceRecordDto-to-WorkShiftDto" style="stroke:#2F4F4F;stroke-width:1;"/><polygon fill="#2F4F4F" points="308.5,935.3694,309.8592,925.6148,307.1193,930.5638,302.1702,927.8239,308.5,935.3694" style="stroke:#2F4F4F;stroke-width:1;"/><text fill="#000000" font-family="sans-serif" font-size="13" lengthAdjust="spacing" textLength="21.6836" x="155.4598" y="576.1385">0..1</text><text fill="#000000" font-family="sans-serif" font-size="13" lengthAdjust="spacing" textLength="7.23" x="299.2118" y="924.6904">1</text></g><!--link AttendanceRecordDto to AttendanceDeviceDto--><g id="link_AttendanceRecordDto_AttendanceDeviceDto"><path codeLine="131" d="M99.5,554.8394 C99.5,590.2694 99.5,621.3594 99.5,653.2194 " fill="none" id="AttendanceRecordDto-to-AttendanceDeviceDto" style="stroke:#2F4F4F;stroke-width:1;"/><polygon fill="#2F4F4F" points="99.5,659.2194,103.5,650.2194,99.5,654.2194,95.5,650.2194,99.5,659.2194" style="stroke:#2F4F4F;stroke-width:1;"/><text fill="#000000" font-family="sans-serif" font-size="13" lengthAdjust="spacing" textLength="21.6836" x="77.9722" y="575.9113">0..1</text><text fill="#000000" font-family="sans-serif" font-size="13" lengthAdjust="spacing" textLength="7.23" x="92.1914" y="648.6495">1</text></g><!--link LeaveRequestDto to EmployeeDto--><g id="link_LeaveRequestDto_EmployeeDto"><path codeLine="132" d="M888.18,510.9394 C877.16,526.4694 864.8,541.6894 851.5,554.6094 C788.07,616.1994 706.5304,664.5344 641.0404,698.0744 " fill="none" id="LeaveRequestDto-to-EmployeeDto" style="stroke:#2F4F4F;stroke-width:1;"/><polygon fill="#2F4F4F" points="635.7,700.8094,645.5339,700.2671,640.1503,698.5302,641.8872,693.1466,635.7,700.8094" style="stroke:#2F4F4F;stroke-width:1;"/><text fill="#000000" font-family="sans-serif" font-size="13" lengthAdjust="spacing" textLength="19.5127" x="864.5827" y="532.0036">1..*</text><text fill="#000000" font-family="sans-serif" font-size="13" lengthAdjust="spacing" textLength="7.23" x="643.4173" y="694.1384">1</text></g><!--link FaceRecognitionService to FaceDataDto--><g id="link_FaceRecognitionService_FaceDataDto"><path codeLine="134" d="M604.69,173.3894 C594.86,211.5994 582.4448,259.8486 570.2748,307.1586 " fill="none" id="FaceRecognitionService-to-FaceDataDto" style="stroke:#2F4F4F;stroke-width:1;"/><polygon fill="#2F4F4F" points="568.78,312.9694,574.896,305.2497,570.0256,308.127,567.1483,303.2566,568.78,312.9694" style="stroke:#2F4F4F;stroke-width:1;"/><text fill="#000000" font-family="sans-serif" font-size="13" lengthAdjust="spacing" textLength="27.46" x="590.5" y="244.1045">uses</text></g><!--link Repository to AppDatabase--><g id="link_Repository_AppDatabase"><path codeLine="135" d="M205.25,199.8194 C234.72,248.9094 269.3513,306.5954 296.4313,351.6954 " fill="none" id="Repository-to-AppDatabase" style="stroke:#2F4F4F;stroke-width:1;"/><polygon fill="#2F4F4F" points="299.52,356.8394,298.3163,347.0643,296.9461,352.5527,291.4577,351.1825,299.52,356.8394" style="stroke:#2F4F4F;stroke-width:1;"/><text fill="#000000" font-family="sans-serif" font-size="13" lengthAdjust="spacing" textLength="27.46" x="232.5" y="244.1045">uses</text></g><!--link Repository to AttendanceRecordDto--><g id="link_Repository_AttendanceRecordDto"><path codeLine="136" d="M143.81,199.8194 C138.9,223.6894 134.5305,244.9327 129.0205,271.6827 " fill="none" id="Repository-to-AttendanceRecordDto" style="stroke:#2F4F4F;stroke-width:1;"/><polygon fill="#2F4F4F" points="127.81,277.5594,133.5435,269.5514,128.8187,272.6622,125.708,267.9375,127.81,277.5594" style="stroke:#2F4F4F;stroke-width:1;"/><text fill="#000000" font-family="sans-serif" font-size="13" lengthAdjust="spacing" textLength="53.479" x="138.5" y="244.1045">manages</text></g><!--link Repository to FaceDataDto--><g id="link_Repository_FaceDataDto"><path codeLine="137" d="M311.09,191.9794 C372.67,221.6694 435.05,254.7894 459.5,277.6094 C470.61,287.9794 477.2713,295.2808 486.3513,308.0408 " fill="none" id="Repository-to-FaceDataDto" style="stroke:#2F4F4F;stroke-width:1;"/><polygon fill="#2F4F4F" points="489.83,312.9294,487.871,303.2773,486.9311,308.8555,481.3528,307.9156,489.83,312.9294" style="stroke:#2F4F4F;stroke-width:1;"/><text fill="#000000" font-family="sans-serif" font-size="13" lengthAdjust="spacing" textLength="53.479" x="415.5" y="244.1045">manages</text></g><!--SRC=[dLRDZjis4BxhAOWzEUrwaLo3OXTU_smDsEt6Sjf3KGHSSImHfaY7f9meGO4-H9-mJz8X9KgKOo-oFLd- -CtCDyEPaSoUomFLj2IPeCPChDNygRAmp9HC-HSWhnCpf92l2I7tDDldMbMIJPLGcgnuNjXfJQKxKvg1Rl0PrViMdcYjFlLeAgY51qthvA_4SYk0JBtt6QUvY_Nlt_-G1SrWEICe2YIZCWEIriP2cIIDadbv4Ae6c5dbLVt8fILBvfuCvY5pCbKCeh-BIeXVQ1b33-WQT6jyHsQ0gTeIf6tyUF1H6MwvaX4qWnsjX4qBlekPQoff3hf1dfGIP6bS5Xl8EIhNu0yOPBoaWaoahAXO0Jt2ZDOcFdflW0qEMcUJpF8ZOCtQ4Y1FNqxVdSfXlezezGblw6TgYavsAEJ0UAC41AyBoWKAKZcNKxnrw_0PNk2Mbt17LYhR0tilBHUTr7LbxBIWCeSGiHVjAeBMz8nmztHMpLncYk5312rBwhpRedFXW2NUv-U8DP5vayTEA6h9EwmujtMQAGtVrhK7VWFDTnmYrNqRRW2jMQTUA2VcWlnGfSZSGLtfemxg2pej8DilvHdmryh6xTtmrc0BnReSE_kfaZlE04D6DgcbjZ91x0hThxd4YU-WETMYFi5-LngtG1wXRPcmuR6WSyPjNoZVjnluM86nBxbYRxUj3p2e6-hLDfIiG-UI1IoCp5PPAiAud4lsZamE1wsEmExhNcq_yT-zHi8AkJ2JhbZ-Mb_iCAXsng4GBjtqG6LJ2FTlW68X0kQYt6kW-vFBStUyBJIOGWaskEKUFTFbCpZo3Fvl3errI2BSiCgeMwJn41ycZA6AvvPSiq4pbKk_XbFGpdSZQuLxzIT7M5ER5KjyEzoIbli576v6FEo9QrAYPc6koQxTGCxwcbZSTDgb_0ezZkTIAu7RpXd_yITgfYo6p2WszXQ3y6J19Rl7rlU89sD0QDVN85YNu0OExXMZTEsJ6cEVkW1Fr03vm9vSdl6xxW5i-3lYxDMW3ErUlNMafeu17NdYKN56KXoqqtKsqlxd4Wbt_qYel0zsCkK-u2EICKb_P4PHWd52FiFqtOfRm0Kb8NDtIZxW1uVlYoskQD3rWciCihqTcO_YclZl3zC7tzush7C4tzsV8SCH69wXchYALs-kY1gFoTNhcnjy7Eo1vuZnU2VX_Uiuu_5ju4JcIVosktfpS_D3opoXdNkzl9JU10_qWT3lu9yP_UHqbp-ZABamfeuRr-0jgGmkfwZd7IFka0kCCncy9QN_ulg6F0mOIFy1]--></g></svg>