<svg xmlns="http://www.w3.org/2000/svg" xmlns:xlink="http://www.w3.org/1999/xlink" contentStyleType="text/css" height="639px" preserveAspectRatio="none" style="width:2591px;height:639px;background:#FFFFFF;" version="1.1" viewBox="0 0 2591 639" width="2591px" zoomAndPan="magnify"><title>Deployment Diagram &#8212; FaceID Attendance System</title><defs/><g><text fill="#000000" font-family="sans-serif" font-size="14" font-weight="bold" lengthAdjust="spacing" textLength="341.9814" x="1117.731" y="24.5332">Deployment Diagram &#8212; FaceID Attendance System</text><!--cluster WS--><g id="cluster_WS"><polygon fill="#B0C4DE" points="16,54.6094,26,44.6094,935,44.6094,935,612.6094,925,622.6094,16,622.6094,16,54.6094" style="stroke:#000080;stroke-width:1;"/><line style="stroke:#000080;stroke-width:1;" x1="925" x2="935" y1="54.6094" y2="44.6094"/><line style="stroke:#000080;stroke-width:1;" x1="16" x2="925" y1="54.6094" y2="54.6094"/><line style="stroke:#000080;stroke-width:1;" x1="925" x2="925" y1="54.6094" y2="622.6094"/><text fill="#000000" font-family="sans-serif" font-size="14" font-weight="bold" lengthAdjust="spacing" textLength="123.6689" x="409.6655" y="72.1426">Client Workstation</text><text fill="#000000" font-family="sans-serif" font-size="14" font-weight="bold" lengthAdjust="spacing" textLength="109.6826" x="416.6587" y="89.752">(Windows 10/11)</text></g><!--cluster MDL--><g id="cluster_MDL"><path d="M351.5,456.6094 L405.4033,456.6094 A3.75,3.75 0 0 1 407.9033,459.1094 L414.9033,480.2188 L778.5,480.2188 A2.5,2.5 0 0 1 781,482.7188 L781,580.1094 A2.5,2.5 0 0 1 778.5,582.6094 L351.5,582.6094 A2.5,2.5 0 0 1 349,580.1094 L349,459.1094 A2.5,2.5 0 0 1 351.5,456.6094 " fill="none" style="stroke:#000000;stroke-width:1.5;"/><line style="stroke:#000000;stroke-width:1.5;" x1="349" x2="414.9033" y1="480.2188" y2="480.2188"/><text fill="#000000" font-family="sans-serif" font-size="14" font-weight="bold" lengthAdjust="spacing" textLength="52.9033" x="353" y="473.1426">models/</text></g><!--cluster IMG--><g id="cluster_IMG"><path d="M485.5,264.6094 L538.6377,264.6094 A3.75,3.75 0 0 1 541.1377,267.1094 L548.1377,288.2188 L884.5,288.2188 A2.5,2.5 0 0 1 887,290.7188 L887,388.1094 A2.5,2.5 0 0 1 884.5,390.6094 L485.5,390.6094 A2.5,2.5 0 0 1 483,388.1094 L483,267.1094 A2.5,2.5 0 0 1 485.5,264.6094 " fill="none" style="stroke:#000000;stroke-width:1.5;"/><line style="stroke:#000000;stroke-width:1.5;" x1="483" x2="548.1377" y1="288.2188" y2="288.2188"/><text fill="#000000" font-family="sans-serif" font-size="14" font-weight="bold" lengthAdjust="spacing" textLength="52.1377" x="487" y="281.1426">images/</text></g><!--cluster CAM--><g id="cluster_CAM"><polygon fill="#B0C4DE" points="975,251.6094,985,241.6094,1254,241.6094,1254,380.6094,1244,390.6094,975,390.6094,975,251.6094" style="stroke:#000080;stroke-width:1;"/><line style="stroke:#000080;stroke-width:1;" x1="1244" x2="1254" y1="251.6094" y2="241.6094"/><line style="stroke:#000080;stroke-width:1;" x1="975" x2="1244" y1="251.6094" y2="251.6094"/><line style="stroke:#000080;stroke-width:1;" x1="1244" x2="1244" y1="251.6094" y2="390.6094"/><text fill="#000000" font-family="sans-serif" font-size="14" font-weight="bold" lengthAdjust="spacing" textLength="68.4824" x="1076.2588" y="269.1426">IP Camera</text><text fill="#000000" font-family="sans-serif" font-size="14" font-weight="bold" lengthAdjust="spacing" textLength="60.6895" x="1080.1553" y="286.752">(Camera)</text></g><!--cluster KIOSK--><g id="cluster_KIOSK"><polygon fill="#B0C4DE" points="1449,251.6094,1459,241.6094,1760,241.6094,1760,380.6094,1750,390.6094,1449,390.6094,1449,251.6094" style="stroke:#000080;stroke-width:1;"/><line style="stroke:#000080;stroke-width:1;" x1="1750" x2="1760" y1="251.6094" y2="241.6094"/><line style="stroke:#000080;stroke-width:1;" x1="1449" x2="1750" y1="251.6094" y2="251.6094"/><line style="stroke:#000080;stroke-width:1;" x1="1750" x2="1750" y1="251.6094" y2="390.6094"/><text fill="#000000" font-family="sans-serif" font-size="14" font-weight="bold" lengthAdjust="spacing" textLength="100.3652" x="1550.3174" y="269.1426">Kiosk Terminal</text><text fill="#000000" font-family="sans-serif" font-size="14" font-weight="bold" lengthAdjust="spacing" textLength="47.4482" x="1576.7759" y="286.752">(Kiosk)</text></g><!--cluster MOB--><g id="cluster_MOB"><polygon fill="#B0C4DE" points="1800,251.6094,1810,241.6094,2157,241.6094,2157,380.6094,2147,390.6094,1800,390.6094,1800,251.6094" style="stroke:#000080;stroke-width:1;"/><line style="stroke:#000080;stroke-width:1;" x1="2147" x2="2157" y1="251.6094" y2="241.6094"/><line style="stroke:#000080;stroke-width:1;" x1="1800" x2="2147" y1="251.6094" y2="251.6094"/><line style="stroke:#000080;stroke-width:1;" x1="2147" x2="2147" y1="251.6094" y2="390.6094"/><text fill="#000000" font-family="sans-serif" font-size="14" font-weight="bold" lengthAdjust="spacing" textLength="93.3652" x="1927.8174" y="269.1426">Mobile Device</text><text fill="#000000" font-family="sans-serif" font-size="14" font-weight="bold" lengthAdjust="spacing" textLength="90.9863" x="1929.0068" y="286.752">(Android/iOS)</text></g><!--entity APP--><g id="elem_APP"><rect fill="#90EE90" height="58.2188" rx="2.5" ry="2.5" style="stroke:#006400;stroke-width:0.5;" width="173.9033" x="270" y="111.6094"/><polygon fill="#90EE90" points="426.9033,116.6094,426.9033,130.6094,438.9033,130.6094,438.9033,122.6094,432.9033,116.6094,426.9033,116.6094" style="stroke:#006400;stroke-width:0.5;"/><line style="stroke:#006400;stroke-width:0.5;" x1="432.9033" x2="432.9033" y1="116.6094" y2="122.6094"/><line style="stroke:#006400;stroke-width:0.5;" x1="438.9033" x2="432.9033" y1="122.6094" y2="122.6094"/><text fill="#000000" font-family="sans-serif" font-size="14" lengthAdjust="spacing" textLength="96.4961" x="280" y="139.1426">FaceIDApp.exe</text><text fill="#000000" font-family="sans-serif" font-size="14" lengthAdjust="spacing" textLength="143.9033" x="280" y="156.752">(.NET 4.6.1 WinForms)</text></g><!--entity DLIB--><g id="elem_DLIB"><rect fill="#90EE90" height="58.2188" rx="2.5" ry="2.5" style="stroke:#006400;stroke-width:0.5;" width="196.5303" x="258.5" y="308.6094"/><polygon fill="#90EE90" points="438.0303,313.6094,438.0303,327.6094,450.0303,327.6094,450.0303,319.6094,444.0303,313.6094,438.0303,313.6094" style="stroke:#006400;stroke-width:0.5;"/><line style="stroke:#006400;stroke-width:0.5;" x1="444.0303" x2="444.0303" y1="313.6094" y2="319.6094"/><line style="stroke:#006400;stroke-width:0.5;" x1="450.0303" x2="444.0303" y1="319.6094" y2="319.6094"/><text fill="#000000" font-family="sans-serif" font-size="14" lengthAdjust="spacing" textLength="85.5859" x="268.5" y="336.1426">DlibDotNet.dll</text><text fill="#000000" font-family="sans-serif" font-size="14" lengthAdjust="spacing" textLength="166.5303" x="268.5" y="353.752">FaceRecognitionDotNet.dll</text></g><!--entity DB--><g id="elem_DB"><path d="M40.5,315.6094 C40.5,305.6094 131.8374,305.6094 131.8374,305.6094 C131.8374,305.6094 223.1748,305.6094 223.1748,315.6094 L223.1748,359.8281 C223.1748,369.8281 131.8374,369.8281 131.8374,369.8281 C131.8374,369.8281 40.5,369.8281 40.5,359.8281 L40.5,315.6094 " fill="#FFFFE0" style="stroke:#B8860B;stroke-width:0.5;"/><path d="M40.5,315.6094 C40.5,325.6094 131.8374,325.6094 131.8374,325.6094 C131.8374,325.6094 223.1748,325.6094 223.1748,315.6094 " fill="none" style="stroke:#B8860B;stroke-width:0.5;"/><text fill="#000000" font-family="sans-serif" font-size="14" lengthAdjust="spacing" textLength="162.6748" x="50.5" y="344.1426">face_attendance_v3.sqlite</text><text fill="#000000" font-family="sans-serif" font-size="14" lengthAdjust="spacing" textLength="91.4375" x="50.5" y="361.752">(SQLite 3.35+)</text></g><!--entity shape_predictor_5\n_face_landmarks.dat--><g id="elem_shape_predictor_5\n_face_landmarks.dat"><rect fill="#90EE90" height="58.2188" rx="2.5" ry="2.5" style="stroke:#006400;stroke-width:0.5;" width="159.9648" x="597" y="500.6094"/><polygon fill="#90EE90" points="739.9648,505.6094,739.9648,519.6094,751.9648,519.6094,751.9648,511.6094,745.9648,505.6094,739.9648,505.6094" style="stroke:#006400;stroke-width:0.5;"/><line style="stroke:#006400;stroke-width:0.5;" x1="745.9648" x2="745.9648" y1="505.6094" y2="511.6094"/><line style="stroke:#006400;stroke-width:0.5;" x1="751.9648" x2="745.9648" y1="511.6094" y2="511.6094"/><text fill="#000000" font-family="sans-serif" font-size="14" lengthAdjust="spacing" textLength="115.9717" x="607" y="528.1426">shape_predictor_5</text><text fill="#000000" font-family="sans-serif" font-size="14" lengthAdjust="spacing" textLength="129.9648" x="607" y="545.752">_face_landmarks.dat</text></g><!--entity dlib_face_recognition\n_resnet_model_v1.dat--><g id="elem_dlib_face_recognition\n_resnet_model_v1.dat"><rect fill="#90EE90" height="58.2188" rx="2.5" ry="2.5" style="stroke:#006400;stroke-width:0.5;" width="168.5371" x="392.5" y="500.6094"/><polygon fill="#90EE90" points="544.0371,505.6094,544.0371,519.6094,556.0371,519.6094,556.0371,511.6094,550.0371,505.6094,544.0371,505.6094" style="stroke:#006400;stroke-width:0.5;"/><line style="stroke:#006400;stroke-width:0.5;" x1="550.0371" x2="550.0371" y1="505.6094" y2="511.6094"/><line style="stroke:#006400;stroke-width:0.5;" x1="556.0371" x2="550.0371" y1="511.6094" y2="511.6094"/><text fill="#000000" font-family="sans-serif" font-size="14" lengthAdjust="spacing" textLength="132.3164" x="402.5" y="528.1426">dlib_face_recognition</text><text fill="#000000" font-family="sans-serif" font-size="14" lengthAdjust="spacing" textLength="138.5371" x="402.5" y="545.752">_resnet_model_v1.dat</text></g><!--entity face_images/\n(registered photos)--><g id="elem_face_images/\n(registered photos)"><rect fill="#90EE90" height="58.2188" rx="2.5" ry="2.5" style="stroke:#006400;stroke-width:0.5;" width="147.5029" x="715" y="308.6094"/><polygon fill="#90EE90" points="845.5029,313.6094,845.5029,327.6094,857.5029,327.6094,857.5029,319.6094,851.5029,313.6094,845.5029,313.6094" style="stroke:#006400;stroke-width:0.5;"/><line style="stroke:#006400;stroke-width:0.5;" x1="851.5029" x2="851.5029" y1="313.6094" y2="319.6094"/><line style="stroke:#006400;stroke-width:0.5;" x1="857.5029" x2="851.5029" y1="319.6094" y2="319.6094"/><text fill="#000000" font-family="sans-serif" font-size="14" lengthAdjust="spacing" textLength="83.2686" x="725" y="336.1426">face_images/</text><text fill="#000000" font-family="sans-serif" font-size="14" lengthAdjust="spacing" textLength="117.5029" x="725" y="353.752">(registered photos)</text></g><!--entity checkin_snapshots/\n(audit trail)--><g id="elem_checkin_snapshots/\n(audit trail)"><rect fill="#90EE90" height="58.2188" rx="2.5" ry="2.5" style="stroke:#006400;stroke-width:0.5;" width="152.9648" x="526.5" y="308.6094"/><polygon fill="#90EE90" points="662.4648,313.6094,662.4648,327.6094,674.4648,327.6094,674.4648,319.6094,668.4648,313.6094,662.4648,313.6094" style="stroke:#006400;stroke-width:0.5;"/><line style="stroke:#006400;stroke-width:0.5;" x1="668.4648" x2="668.4648" y1="313.6094" y2="319.6094"/><line style="stroke:#006400;stroke-width:0.5;" x1="674.4648" x2="668.4648" y1="319.6094" y2="319.6094"/><text fill="#000000" font-family="sans-serif" font-size="14" lengthAdjust="spacing" textLength="122.9648" x="536.5" y="336.1426">checkin_snapshots/</text><text fill="#000000" font-family="sans-serif" font-size="14" lengthAdjust="spacing" textLength="66.1309" x="536.5" y="353.752">(audit trail)</text></g><!--entity RTSP Stream\nrtsp://192.168.1.x:554/stream--><g id="elem_RTSP Stream\nrtsp://192.168.1.x:554/stream"><rect fill="#90EE90" height="58.2188" rx="2.5" ry="2.5" style="stroke:#006400;stroke-width:0.5;" width="212.1025" x="1018" y="308.6094"/><polygon fill="#90EE90" points="1213.1025,313.6094,1213.1025,327.6094,1225.1025,327.6094,1225.1025,319.6094,1219.1025,313.6094,1213.1025,313.6094" style="stroke:#006400;stroke-width:0.5;"/><line style="stroke:#006400;stroke-width:0.5;" x1="1219.1025" x2="1219.1025" y1="313.6094" y2="319.6094"/><line style="stroke:#006400;stroke-width:0.5;" x1="1225.1025" x2="1219.1025" y1="319.6094" y2="319.6094"/><text fill="#000000" font-family="sans-serif" font-size="14" lengthAdjust="spacing" textLength="86.3516" x="1028" y="336.1426">RTSP Stream</text><text fill="#000000" font-family="sans-serif" font-size="14" lengthAdjust="spacing" textLength="182.1025" x="1028" y="353.752">rtsp://192.168.1.x:554/stream</text></g><!--entity Touch UI\n(embedded browser or WinForms)--><g id="elem_Touch UI\n(embedded browser or WinForms)"><rect fill="#90EE90" height="58.2188" rx="2.5" ry="2.5" style="stroke:#006400;stroke-width:0.5;" width="243.1719" x="1492.5" y="308.6094"/><polygon fill="#90EE90" points="1718.6719,313.6094,1718.6719,327.6094,1730.6719,327.6094,1730.6719,319.6094,1724.6719,313.6094,1718.6719,313.6094" style="stroke:#006400;stroke-width:0.5;"/><line style="stroke:#006400;stroke-width:0.5;" x1="1724.6719" x2="1724.6719" y1="313.6094" y2="319.6094"/><line style="stroke:#006400;stroke-width:0.5;" x1="1730.6719" x2="1724.6719" y1="319.6094" y2="319.6094"/><text fill="#000000" font-family="sans-serif" font-size="14" lengthAdjust="spacing" textLength="56.7998" x="1502.5" y="336.1426">Touch UI</text><text fill="#000000" font-family="sans-serif" font-size="14" lengthAdjust="spacing" textLength="213.1719" x="1502.5" y="353.752">(embedded browser or WinForms)</text></g><!--entity Mobile App\n(//TODO: planned)--><g id="elem_Mobile App\n(//TODO: planned)"><rect fill="#90EE90" height="58.2188" rx="2.5" ry="2.5" style="stroke:#006400;stroke-width:0.5;" width="145.1514" x="1987.5" y="308.6094"/><polygon fill="#90EE90" points="2115.6514,313.6094,2115.6514,327.6094,2127.6514,327.6094,2127.6514,319.6094,2121.6514,313.6094,2115.6514,313.6094" style="stroke:#006400;stroke-width:0.5;"/><line style="stroke:#006400;stroke-width:0.5;" x1="2121.6514" x2="2121.6514" y1="313.6094" y2="319.6094"/><line style="stroke:#006400;stroke-width:0.5;" x1="2127.6514" x2="2121.6514" y1="319.6094" y2="319.6094"/><text fill="#000000" font-family="sans-serif" font-size="14" lengthAdjust="spacing" textLength="70.041" x="1997.5" y="336.1426">Mobile App</text><text fill="#000000" font-family="sans-serif" font-size="14" lengthAdjust="spacing" textLength="115.1514" x="1997.5" y="353.752">(//TODO: planned)</text></g><!--entity GPS Module--><g id="elem_GPS Module"><rect fill="#90EE90" height="40.6094" rx="2.5" ry="2.5" style="stroke:#006400;stroke-width:0.5;" width="109.3721" x="1843.5" y="317.1094"/><polygon fill="#90EE90" points="1935.8721,322.1094,1935.8721,336.1094,1947.8721,336.1094,1947.8721,328.1094,1941.8721,322.1094,1935.8721,322.1094" style="stroke:#006400;stroke-width:0.5;"/><line style="stroke:#006400;stroke-width:0.5;" x1="1941.8721" x2="1941.8721" y1="322.1094" y2="328.1094"/><line style="stroke:#006400;stroke-width:0.5;" x1="1947.8721" x2="1941.8721" y1="328.1094" y2="328.1094"/><text fill="#000000" font-family="sans-serif" font-size="14" lengthAdjust="spacing" textLength="79.3721" x="1853.5" y="344.6426">GPS Module</text></g><!--entity NET--><g id="elem_NET"><polygon fill="#B0C4DE" points="1295,507.1094,1305,497.1094,1431.4688,497.1094,1431.4688,552.3281,1421.4688,562.3281,1295,562.3281,1295,507.1094" style="stroke:#000080;stroke-width:0.5;"/><line style="stroke:#000080;stroke-width:0.5;" x1="1421.4688" x2="1431.4688" y1="507.1094" y2="497.1094"/><line style="stroke:#000080;stroke-width:0.5;" x1="1295" x2="1421.4688" y1="507.1094" y2="507.1094"/><line style="stroke:#000080;stroke-width:0.5;" x1="1421.4688" x2="1421.4688" y1="507.1094" y2="562.3281"/><text fill="#000000" font-family="sans-serif" font-size="14" lengthAdjust="spacing" textLength="96.4688" x="1310" y="531.6426">Network Switch</text><text fill="#000000" font-family="sans-serif" font-size="14" lengthAdjust="spacing" textLength="93.4199" x="1310" y="549.252">192.168.1.0/24</text></g><g id="elem_GMN29"><path d="M2181,308.1094 L2181,367.1641 L2381.2134,367.1641 L2381.2134,318.1094 L2371.2134,308.1094 L2181,308.1094 " fill="#FEFFDD" style="stroke:#181818;stroke-width:0.5;"/><path d="M2371.2134,308.1094 L2371.2134,318.1094 L2381.2134,318.1094 L2371.2134,308.1094 " fill="#FEFFDD" style="stroke:#181818;stroke-width:1;"/><text fill="#000000" font-family="sans-serif" font-size="13" lengthAdjust="spacing" textLength="100.439" x="2187" y="326.6045">Single-file SQLite</text><text fill="#000000" font-family="sans-serif" font-size="13" lengthAdjust="spacing" textLength="179.2134" x="2187" y="342.9561">No separate DB server needed</text><text fill="#000000" font-family="sans-serif" font-size="13" lengthAdjust="spacing" textLength="114.8926" x="2187" y="359.3076">Backup via file copy</text></g><g id="elem_GMN32"><path d="M2416,308.1094 L2416,367.1641 L2584.4434,367.1641 L2584.4434,318.1094 L2574.4434,308.1094 L2416,308.1094 " fill="#FEFFDD" style="stroke:#181818;stroke-width:0.5;"/><path d="M2574.4434,308.1094 L2574.4434,318.1094 L2584.4434,318.1094 L2574.4434,308.1094 " fill="#FEFFDD" style="stroke:#181818;stroke-width:1;"/><text fill="#000000" font-family="sans-serif" font-size="13" lengthAdjust="spacing" textLength="131.1743" x="2422" y="326.6045">min_confidence = 0.70</text><text fill="#000000" font-family="sans-serif" font-size="13" lengthAdjust="spacing" textLength="117.7617" x="2422" y="342.9561">RTSP URL stored in</text><text fill="#000000" font-family="sans-serif" font-size="13" lengthAdjust="spacing" textLength="147.4434" x="2422" y="359.3076">attendance_devices table</text></g><!--link APP to DB--><g id="link_APP_DB"><path d="M278.69,169.6194 C261.63,177.7694 244.4,187.7394 230,199.6094 C194,229.2694 167.7355,269.9053 150.8455,300.2853 " fill="none" id="APP-to-DB" style="stroke:#181818;stroke-width:1;"/><polygon fill="#181818" points="147.93,305.5294,155.7992,299.6069,150.3596,301.1593,148.8072,295.7197,147.93,305.5294" style="stroke:#181818;stroke-width:1;"/><text fill="#000000" font-family="sans-serif" font-size="13" lengthAdjust="spacing" textLength="117.7681" x="231" y="214.1045">System.Data.SQLite</text></g><!--link APP to DLIB--><g id="link_APP_DLIB"><path d="M357,169.9594 C357,207.0394 357,265.5994 357,302.5394 " fill="none" id="APP-to-DLIB" style="stroke:#181818;stroke-width:1;"/><polygon fill="#181818" points="357,308.5394,361,299.5394,357,303.5394,353,299.5394,357,308.5394" style="stroke:#181818;stroke-width:1;"/><text fill="#000000" font-family="sans-serif" font-size="13" lengthAdjust="spacing" textLength="50.5845" x="358" y="214.1045">P/Invoke</text></g><!--link DLIB to MDL--><g id="link_DLIB_MDL"><path d="M357,366.6494 C357,379.6544 357,396.0669 357,413.4222 C357,422.0998 357,431.0132 357,439.8542 C357,444.2747 357,448.6771 357,453.0228 C357,454.1093 357,449.1922 357,450.271 " fill="none" id="DLIB-to-MDL" style="stroke:#181818;stroke-width:1;"/><polygon fill="#181818" points="357,456.271,361,447.271,357,451.271,353,447.271,357,456.271" style="stroke:#181818;stroke-width:1;"/><text fill="#000000" font-family="sans-serif" font-size="13" lengthAdjust="spacing" textLength="70.0972" x="358" y="429.1045">load models</text></g><!--link APP to IMG--><g id="link_APP_IMG"><path d="M425.81,169.7794 C449.39,183.0694 473.26,201.4294 487,225.6094 C493,236.1719 496.2894,248.2581 497.8388,260.4784 C497.9356,261.2422 498.0256,262.0065 498.1091,262.771 C498.1508,263.1532 498.1909,263.5355 498.2294,263.9178 C498.2487,264.1089 497.6913,258.3278 497.7097,258.519 " fill="none" id="APP-to-IMG" style="stroke:#181818;stroke-width:1;"/><polygon fill="#181818" points="498.286,264.4912,501.4031,255.1487,497.8057,259.5143,493.4401,255.917,498.286,264.4912" style="stroke:#181818;stroke-width:1;"/><text fill="#000000" font-family="sans-serif" font-size="13" lengthAdjust="spacing" textLength="57.0781" x="482" y="214.1045">read/write</text></g><!--link CAM to NET--><g id="link_CAM_NET"><path d="M991.7134,390.7436 C991.7625,390.8536 991.8119,390.9634 991.8615,391.0731 C992.0599,391.512 992.2627,391.9487 992.4698,392.3831 C993.2986,394.1206 994.1981,395.8209 995.1744,397.469 C997.1269,400.765 999.3863,403.8519 1002,406.6094 C1079.49,488.3494 1207.6058,514.6751 1288.7358,523.5751 " fill="none" id="CAM-to-NET" style="stroke:#181818;stroke-width:1;"/><polygon fill="#181818" points="1294.7,524.2294,1286.1899,519.2718,1289.7298,523.6841,1285.3175,527.2241,1294.7,524.2294" style="stroke:#181818;stroke-width:1;"/><text fill="#000000" font-family="sans-serif" font-size="13" lengthAdjust="spacing" textLength="64.2827" x="1026" y="429.1045">RTSP/TCP</text></g><!--link KIOSK to NET--><g id="link_KIOSK_NET"><path d="M1448.9076,361.0123 C1448.8324,361.2123 1448.7568,361.4133 1448.6808,361.615 C1448.5288,362.0186 1448.3752,362.4255 1448.22,362.8356 C1443.255,375.9594 1436.71,392.3594 1430,406.6094 C1415.18,438.0894 1398.8397,467.5688 1384.7497,491.8688 " fill="none" id="KIOSK-to-NET" style="stroke:#181818;stroke-width:1;"/><polygon fill="#181818" points="1381.74,497.0594,1389.7149,491.28,1384.2481,492.7339,1382.7941,487.2671,1381.74,497.0594" style="stroke:#181818;stroke-width:1;"/><text fill="#000000" font-family="sans-serif" font-size="13" lengthAdjust="spacing" textLength="63.5527" x="1426" y="429.1045">HTTP/TCP</text></g><!--link MOB to NET--><g id="link_MOB_NET"><path d="M1799.8479,352.7496 C1799.7919,352.8396 1799.7357,352.93 1799.6792,353.0206 C1799.5662,353.2019 1799.4521,353.3844 1799.3371,353.5681 C1798.8767,354.3027 1798.3996,355.0561 1797.9063,355.8264 C1795.9328,358.9073 1793.6988,362.2575 1791.23,365.7519 C1781.355,379.7294 1767.725,396.0144 1752,406.6094 C1652.07,473.9394 1518.9278,504.6794 1436.9778,518.3894 " fill="none" id="MOB-to-NET" style="stroke:#181818;stroke-width:1;"/><polygon fill="#181818" points="1431.06,519.3794,1440.5967,521.8395,1435.9915,518.5544,1439.2766,513.9492,1431.06,519.3794" style="stroke:#181818;stroke-width:1;"/><text fill="#000000" font-family="sans-serif" font-size="13" lengthAdjust="spacing" textLength="79.4346" x="1734" y="429.1045">HTTPS / WiFi</text></g><!--link WS to NET--><g id="link_WS_NET"><path d="M935.447,141.2344 C935.6226,141.2287 935.8008,141.2229 935.9816,141.2172 C936.7046,141.1943 937.4681,141.1719 938.2711,141.1503 C944.695,140.9774 953.6432,140.8592 964.5377,141.0291 C986.3266,141.3688 1015.9006,142.8606 1048.6363,147.3719 C1114.1075,156.3944 1192.225,177.4944 1246,225.6094 C1288.02,263.2094 1334.2336,421.2074 1353.1236,491.0574 " fill="none" id="WS-to-NET" style="stroke:#181818;stroke-width:1;"/><polygon fill="#181818" points="1354.69,496.8494,1356.2018,487.1172,1353.3847,492.0228,1348.4792,489.2057,1354.69,496.8494" style="stroke:#181818;stroke-width:1;"/><text fill="#000000" font-family="sans-serif" font-size="13" lengthAdjust="spacing" textLength="107.6436" x="1328" y="343.1045">read RTSP stream</text></g><!--link WS to CAM--><g id="link_WS_CAM"><path d="M935.0643,169.6876 C935.1414,169.956 935.2189,170.226 935.2968,170.4973 C935.6085,171.5827 935.9269,172.6911 936.2514,173.8211 C941.4441,191.9016 948.2281,215.5238 955.0113,239.1431 C961.7944,262.7625 968.5766,286.3791 973.7655,304.4483 C974.0898,305.5776 974.4079,306.6853 974.7193,307.7699 C974.7972,308.0411 973.2186,302.5438 973.2956,302.8121 " fill="none" id="WS-to-CAM" style="stroke:#181818;stroke-width:1;"/><polygon fill="#181818" points="974.9517,308.579,976.3122,298.8246,973.5716,303.7733,968.623,301.0327,974.9517,308.579" style="stroke:#181818;stroke-width:1;"/><text fill="#000000" font-family="sans-serif" font-size="13" lengthAdjust="spacing" textLength="86.7026" x="950" y="214.1045">capture frames</text></g><!--link DB to GMN29--><g id="link_DB_GMN29"><path d="M149.86,305.4294 C170.83,271.3694 209.1,219.5494 258.5,197.6094 C306.05,176.4894 2083.11,178.4894 2131.5,197.6094 C2187.55,219.7594 2234.92,273.9494 2260.53,308.0494 " fill="none" id="DB-GMN29" style="stroke:#181818;stroke-width:1;stroke-dasharray:7.0,7.0;"/></g><!--link CAM to GMN32--><g id="link_CAM_GMN32"><path d="M986.937,241.2035 C988.0968,237.5763 989.425,234.0277 990.942,230.5969 C997.01,216.8738 1006.0975,205.0369 1019.5,197.6094 C1085.68,160.9294 2312.85,165.7794 2381.5,197.6094 C2430.32,220.2494 2466.33,274.0094 2485.16,307.9394 " fill="none" id="CAM-GMN32" style="stroke:#181818;stroke-width:1;stroke-dasharray:7.0,7.0;"/></g><!--SRC=[VLJRRXen47tVhnZnrAhARcWkRP5QYR1DYWA1PecYIaWhinx0mcjlRGEDgaZzY7vXlwHZBm52Bs-MPywPcJCNkn2gOeQLe3H7-1u1NB1YCJDwgNX7IssW9sPpbpb4UI6Nw1squMXgumrRFKIFaTtISEROXDd_K7r1AVNwW2TbPd6b9KTrg_apGcQScBB2_PlmoY2gl_65_yV82ISHKgoaVYXHEKW5ctdgNpz-mYKhi9j2spbKdAa28Nkm3iie2e8qEb9uoBqs2-kO4rgDrOjxeRXUMsWU9ytcomOm2_TPI72RRQCcRbTLZD-GCF7Dnn6SnkTn4mX-gKrfQsHxE7m6JAMOfDhTe8kvb6FbYMwnq3CbVFYTAQ3JNlU2u5lP6qI2ETkMawzEOljL2kTpo3xtw04dySdPgpfuwi5JBxo1HaaLIvi4Gp_jXOBsCxDpLc5U6UIYSDhaPsELXt2IALwIuZQcF1e7A4xrr6vcLmKX3Lg5BWz1yrNp2Vgubv0esGmt2NNxLtya55WtJbIUmPcWtb5-KCsrqoJm0Q2OOq6JbLl5Aaik0SQMN3XmXWdvyYa3QWeS7NqWVGZVsin4d9BASItYlW-rW7o6ILUjzC9RmeytUHLR83NZK8kx1_C5aT4WuydQUCh7fw7h3g73IZICigiVTRSwxVx1bDsEiY5aZaZAiJBELgqaQRvx7JVFtyRD-5lhxEmqiS7SsD5V2sqNC49J2iLembw4Zph4TNUGNHy46UbbCOUxBdbYEK7EIU29eGMW7j6kxSPv5wAl9o8itKeKVlBQYXijU286MHsdFxWuYBA1qCQGVvAC1kcW1HMDba8U-h9plHfcqDTyAN4l96t5chOKihLmnNoiTZ8S9wzFGr1QmIZo8aBeWDz8tm8lOZBg3AEw-7tJfz6eDlbyuGzJ1WcLVoaYMly3i-zhO8PQ_psNEeCM5AnoIuCmfME4rjT1osdyIGCzhLSp4secyMZgbTaEteq6Y_uwaZiDABLXHPrGYDIOpP5SLh0I30AkqDL3HES0FFzX5Cg583G8UQ7LLD01fXFu7exZDyVq7_A_k-rH3TglbV1tTk-uyD1V2tHy9EvY_0O0]--></g></svg>