<svg xmlns="http://www.w3.org/2000/svg" xmlns:xlink="http://www.w3.org/1999/xlink" contentStyleType="text/css" height="874px" preserveAspectRatio="none" style="width:1184px;height:874px;background:#FFFFFF;" version="1.1" viewBox="0 0 1184 874" width="1184px" zoomAndPan="magnify"><title>Data Flow Diagram &#8212; Level 0 + Level 1</title><defs/><g><text fill="#000000" font-family="sans-serif" font-size="14" font-weight="bold" lengthAdjust="spacing" textLength="259.1504" x="455.8743" y="24.5332">Data Flow Diagram &#8212; Level 0 + Level 1</text><!--cluster Level 1 Processes--><g id="cluster_Level 1 Processes"><path d="M44.5,186.1094 L166.9199,186.1094 A3.75,3.75 0 0 1 169.4199,188.6094 L176.4199,209.7188 L863.5,209.7188 A2.5,2.5 0 0 1 866,212.2188 L866,724.6094 A2.5,2.5 0 0 1 863.5,727.1094 L44.5,727.1094 A2.5,2.5 0 0 1 42,724.6094 L42,188.6094 A2.5,2.5 0 0 1 44.5,186.1094 " fill="none" style="stroke:#000000;stroke-width:1.5;"/><line style="stroke:#000000;stroke-width:1.5;" x1="42" x2="176.4199" y1="209.7188" y2="209.7188"/><text fill="#000000" font-family="sans-serif" font-size="14" font-weight="bold" lengthAdjust="spacing" textLength="121.4199" x="46" y="202.6426">Level 1 Processes</text></g><!--entity P1--><g id="elem_P1"><rect fill="#FFFFE0" height="55.2188" rx="2.5" ry="2.5" style="stroke:#FF8C00;stroke-width:0.5;" width="108.7305" x="150.5" y="242.1094"/><text fill="#000000" font-family="sans-serif" font-size="14" lengthAdjust="spacing" textLength="17.124" x="160.5" y="266.6426">P1</text><text fill="#000000" font-family="sans-serif" font-size="14" lengthAdjust="spacing" textLength="88.7305" x="160.5" y="284.252">Authentication</text></g><!--entity P2--><g id="elem_P2"><rect fill="#FFFFE0" height="55.2188" rx="2.5" ry="2.5" style="stroke:#FF8C00;stroke-width:0.5;" width="128.9512" x="635.5" y="242.1094"/><text fill="#000000" font-family="sans-serif" font-size="14" lengthAdjust="spacing" textLength="17.124" x="645.5" y="266.6426">P2</text><text fill="#000000" font-family="sans-serif" font-size="14" lengthAdjust="spacing" textLength="108.9512" x="645.5" y="284.252">Face Recognition</text></g><!--entity P3--><g id="elem_P3"><rect fill="#FFFFE0" height="55.2188" rx="2.5" ry="2.5" style="stroke:#FF8C00;stroke-width:0.5;" width="138.3164" x="356" y="386.6094"/><text fill="#000000" font-family="sans-serif" font-size="14" lengthAdjust="spacing" textLength="17.124" x="366" y="411.1426">P3</text><text fill="#000000" font-family="sans-serif" font-size="14" lengthAdjust="spacing" textLength="118.3164" x="366" y="428.752">Attendance Engine</text></g><!--entity P4--><g id="elem_P4"><rect fill="#FFFFE0" height="55.2188" rx="2.5" ry="2.5" style="stroke:#FF8C00;stroke-width:0.5;" width="143.751" x="58" y="386.6094"/><text fill="#000000" font-family="sans-serif" font-size="14" lengthAdjust="spacing" textLength="17.124" x="68" y="411.1426">P4</text><text fill="#000000" font-family="sans-serif" font-size="14" lengthAdjust="spacing" textLength="123.751" x="68" y="428.752">Leave Management</text></g><!--entity P5--><g id="elem_P5"><rect fill="#FFFFE0" height="55.2188" rx="2.5" ry="2.5" style="stroke:#FF8C00;stroke-width:0.5;" width="128.9443" x="510.5" y="656.1094"/><text fill="#000000" font-family="sans-serif" font-size="14" lengthAdjust="spacing" textLength="17.124" x="520.5" y="680.6426">P5</text><text fill="#000000" font-family="sans-serif" font-size="14" lengthAdjust="spacing" textLength="108.9443" x="520.5" y="698.252">Report Generator</text></g><!--entity D1--><g id="elem_D1"><path d="M237,400.6094 C237,390.6094 275.0103,390.6094 275.0103,390.6094 C275.0103,390.6094 313.0205,390.6094 313.0205,400.6094 L313.0205,427.2188 C313.0205,437.2188 275.0103,437.2188 275.0103,437.2188 C275.0103,437.2188 237,437.2188 237,427.2188 L237,400.6094 " fill="#ADD8E6" style="stroke:#000080;stroke-width:0.5;"/><path d="M237,400.6094 C237,410.6094 275.0103,410.6094 275.0103,410.6094 C275.0103,410.6094 313.0205,410.6094 313.0205,400.6094 " fill="none" style="stroke:#000080;stroke-width:0.5;"/><text fill="#000000" font-family="sans-serif" font-size="14" lengthAdjust="spacing" textLength="56.0205" x="247" y="429.1426">D1 users</text></g><!--entity D2--><g id="elem_D2"><path d="M319.5,541.1094 C319.5,531.1094 374.2446,531.1094 374.2446,531.1094 C374.2446,531.1094 428.9893,531.1094 428.9893,541.1094 L428.9893,567.7188 C428.9893,577.7188 374.2446,577.7188 374.2446,577.7188 C374.2446,577.7188 319.5,577.7188 319.5,567.7188 L319.5,541.1094 " fill="#ADD8E6" style="stroke:#000080;stroke-width:0.5;"/><path d="M319.5,541.1094 C319.5,551.1094 374.2446,551.1094 374.2446,551.1094 C374.2446,551.1094 428.9893,551.1094 428.9893,541.1094 " fill="none" style="stroke:#000080;stroke-width:0.5;"/><text fill="#000000" font-family="sans-serif" font-size="14" lengthAdjust="spacing" textLength="89.4893" x="329.5" y="569.6426">D2 employees</text></g><!--entity D3--><g id="elem_D3"><path d="M648.5,400.6094 C648.5,390.6094 700.1411,390.6094 700.1411,390.6094 C700.1411,390.6094 751.7822,390.6094 751.7822,400.6094 L751.7822,427.2188 C751.7822,437.2188 700.1411,437.2188 700.1411,437.2188 C700.1411,437.2188 648.5,437.2188 648.5,427.2188 L648.5,400.6094 " fill="#ADD8E6" style="stroke:#000080;stroke-width:0.5;"/><path d="M648.5,400.6094 C648.5,410.6094 700.1411,410.6094 700.1411,410.6094 C700.1411,410.6094 751.7822,410.6094 751.7822,400.6094 " fill="none" style="stroke:#000080;stroke-width:0.5;"/><text fill="#000000" font-family="sans-serif" font-size="14" lengthAdjust="spacing" textLength="83.2822" x="658.5" y="429.1426">D3 face_data</text></g><!--entity D4--><g id="elem_D4"><path d="M493,541.1094 C493,531.1094 575.7686,531.1094 575.7686,531.1094 C575.7686,531.1094 658.5371,531.1094 658.5371,541.1094 L658.5371,567.7188 C658.5371,577.7188 575.7686,577.7188 575.7686,577.7188 C575.7686,577.7188 493,577.7188 493,567.7188 L493,541.1094 " fill="#ADD8E6" style="stroke:#000080;stroke-width:0.5;"/><path d="M493,541.1094 C493,551.1094 575.7686,551.1094 575.7686,551.1094 C575.7686,551.1094 658.5371,551.1094 658.5371,541.1094 " fill="none" style="stroke:#000080;stroke-width:0.5;"/><text fill="#000000" font-family="sans-serif" font-size="14" lengthAdjust="spacing" textLength="145.5371" x="503" y="569.6426">D4 attendance_records</text></g><!--entity D5--><g id="elem_D5"><path d="M88.5,541.1094 C88.5,531.1094 156.8687,531.1094 156.8687,531.1094 C156.8687,531.1094 225.2373,531.1094 225.2373,541.1094 L225.2373,567.7188 C225.2373,577.7188 156.8687,577.7188 156.8687,577.7188 C156.8687,577.7188 88.5,577.7188 88.5,567.7188 L88.5,541.1094 " fill="#ADD8E6" style="stroke:#000080;stroke-width:0.5;"/><path d="M88.5,541.1094 C88.5,551.1094 156.8687,551.1094 156.8687,551.1094 C156.8687,551.1094 225.2373,551.1094 225.2373,541.1094 " fill="none" style="stroke:#000080;stroke-width:0.5;"/><text fill="#000000" font-family="sans-serif" font-size="14" lengthAdjust="spacing" textLength="116.7373" x="98.5" y="569.6426">D5 leave_requests</text></g><!--entity EMP--><g id="elem_EMP"><ellipse cx="326.1274" cy="52.6094" fill="#F1F1F1" rx="8" ry="8" style="stroke:#181818;stroke-width:0.5;"/><path d="M326.1274,60.6094 L326.1274,87.6094 M313.1274,68.6094 L339.1274,68.6094 M326.1274,87.6094 L313.1274,102.6094 M326.1274,87.6094 L339.1274,102.6094 " fill="none" style="stroke:#181818;stroke-width:0.5;"/><text fill="#000000" font-family="sans-serif" font-size="14" lengthAdjust="spacing" textLength="62.2549" x="295" y="118.6426">Employee</text></g><!--entity HR--><g id="elem_HR"><ellipse cx="916.7861" cy="799.6094" fill="#F1F1F1" rx="8" ry="8" style="stroke:#181818;stroke-width:0.5;"/><path d="M916.7861,807.6094 L916.7861,834.6094 M903.7861,815.6094 L929.7861,815.6094 M916.7861,834.6094 L903.7861,849.6094 M916.7861,834.6094 L929.7861,849.6094 " fill="none" style="stroke:#181818;stroke-width:0.5;"/><text fill="#000000" font-family="sans-serif" font-size="14" lengthAdjust="spacing" textLength="71.5723" x="881" y="865.6426">HR / Admin</text></g><!--entity CAM--><g id="elem_CAM"><ellipse cx="908.2378" cy="52.6094" fill="#F1F1F1" rx="8" ry="8" style="stroke:#181818;stroke-width:0.5;"/><path d="M908.2378,60.6094 L908.2378,87.6094 M895.2378,68.6094 L921.2378,68.6094 M908.2378,87.6094 L895.2378,102.6094 M908.2378,87.6094 L921.2378,102.6094 " fill="none" style="stroke:#181818;stroke-width:0.5;"/><text fill="#000000" font-family="sans-serif" font-size="14" lengthAdjust="spacing" textLength="96.4756" x="860" y="118.6426">Camera Device</text></g><!--entity MGR--><g id="elem_MGR"><ellipse cx="1114.1274" cy="383.6094" fill="#F1F1F1" rx="8" ry="8" style="stroke:#181818;stroke-width:0.5;"/><path d="M1114.1274,391.6094 L1114.1274,418.6094 M1101.1274,399.6094 L1127.1274,399.6094 M1114.1274,418.6094 L1101.1274,433.6094 M1114.1274,418.6094 L1127.1274,433.6094 " fill="none" style="stroke:#181818;stroke-width:0.5;"/><text fill="#000000" font-family="sans-serif" font-size="14" lengthAdjust="spacing" textLength="55.2549" x="1086.5" y="449.6426">Manager</text></g><!--entity SYS--><g id="elem_SYS"><rect fill="#90EE90" height="55.2188" rx="2.5" ry="2.5" style="stroke:#FF8C00;stroke-width:0.5;" width="141.3994" x="882.5" y="242.1094"/><text fill="#000000" font-family="sans-serif" font-size="14" lengthAdjust="spacing" textLength="45.124" x="892.5" y="266.6426">FaceID</text><text fill="#000000" font-family="sans-serif" font-size="14" lengthAdjust="spacing" textLength="121.3994" x="892.5" y="284.252">Attendance System</text></g><!--link EMP to SYS--><g id="link_EMP_SYS"><path d="M357.13,88.8594 C416.51,98.2594 549.74,121.0794 659,152.1094 C681.32,158.4494 685.27,165.4694 708,170.1094 C742.45,177.1394 834.01,163.5194 866,178.1094 C895.74,191.6694 917.004,215.5331 932.404,237.0131 " fill="none" id="EMP-to-SYS" style="stroke:#181818;stroke-width:1;"/><polygon fill="#181818" points="935.9,241.8894,933.9068,232.2443,932.9867,237.8258,927.4051,236.9057,935.9,241.8894" style="stroke:#181818;stroke-width:1;"/><text fill="#000000" font-family="sans-serif" font-size="13" lengthAdjust="spacing" textLength="110.5635" x="709" y="166.6045">Face image / Login</text></g><!--link SYS to EMP--><g id="link_SYS_EMP"><path d="M936.31,242.0794 C921,220.4194 896.15,191.2994 866,178.1094 C825.07,160.1994 506.83,182.8194 464,170.1094 C423.68,158.1394 388.2753,134.654 361.7753,114.034 " fill="none" id="SYS-to-EMP" style="stroke:#181818;stroke-width:1;"/><polygon fill="#181818" points="357.04,110.3494,361.6866,119.0332,360.9861,113.4199,366.5994,112.7194,357.04,110.3494" style="stroke:#181818;stroke-width:1;"/><text fill="#000000" font-family="sans-serif" font-size="13" lengthAdjust="spacing" textLength="185.7261" x="465" y="166.6045">Attendance status / Leave result</text></g><!--link CAM to SYS--><g id="link_CAM_SYS"><path d="M917.32,122.3394 C926.05,158.1194 937.4384,204.8102 945.0984,236.2202 " fill="none" id="CAM-to-SYS" style="stroke:#181818;stroke-width:1;"/><polygon fill="#181818" points="946.52,242.0494,948.2738,232.3579,945.3354,237.1917,940.5015,234.2533,946.52,242.0494" style="stroke:#181818;stroke-width:1;"/><text fill="#000000" font-family="sans-serif" font-size="13" lengthAdjust="spacing" textLength="112.7026" x="928" y="166.6045">RTSP video stream</text></g><!--link HR to SYS--><g id="link_HR_SYS"><path d="M937.33,790.9194 C961.67,742.8594 1001,657.0294 1016,578.1094 C1035.79,473.9794 991.5653,356.0674 968.0153,302.7774 " fill="none" id="HR-to-SYS" style="stroke:#181818;stroke-width:1;"/><polygon fill="#181818" points="965.59,297.2894,965.5692,307.1382,967.6111,301.8627,972.8866,303.9045,965.59,297.2894" style="stroke:#181818;stroke-width:1;"/><text fill="#000000" font-family="sans-serif" font-size="13" lengthAdjust="spacing" textLength="155.3652" x="1021" y="560.1045">Employee data / Approvals</text></g><!--link SYS to HR--><g id="link_SYS_HR"><path d="M942.1,297.1594 C931.51,325.3994 917,371.6494 917,413.1094 C917,413.1094 917,413.1094 917,684.6094 C917,720.7294 917,755.9394 917,785.0794 " fill="none" id="SYS-to-HR" style="stroke:#181818;stroke-width:1;"/><polygon fill="#181818" points="917,791.0794,921,782.0794,917,786.0794,913,782.0794,917,791.0794" style="stroke:#181818;stroke-width:1;"/><text fill="#000000" font-family="sans-serif" font-size="13" lengthAdjust="spacing" textLength="89.5845" x="918" y="560.1045">Reports / Alerts</text></g><!--link SYS to MGR--><g id="link_SYS_MGR"><path d="M1015.65,297.1994 C1030.86,305.4194 1046.36,315.4394 1059,327.1094 C1073.58,340.5794 1082.9407,353.5171 1092.2207,369.6671 " fill="none" id="SYS-to-MGR" style="stroke:#181818;stroke-width:1;"/><polygon fill="#181818" points="1095.21,374.8694,1094.1942,365.073,1092.7189,370.5341,1087.2578,369.0588,1095.21,374.8694" style="stroke:#181818;stroke-width:1;"/><text fill="#000000" font-family="sans-serif" font-size="13" lengthAdjust="spacing" textLength="101.8989" x="1075" y="341.6045">Pending leave list</text></g><!--link EMP to P1--><g id="link_EMP_P1"><path d="M311.21,122.4894 C304.66,137.7894 296.32,155.2494 287,170.1094 C270.69,196.1294 252.1857,218.2885 234.8557,237.2685 " fill="none" id="EMP-to-P1" style="stroke:#181818;stroke-width:1;"/><polygon fill="#181818" points="230.81,241.6994,239.8324,237.7502,234.1814,238.007,233.9246,232.356,230.81,241.6994" style="stroke:#181818;stroke-width:1;"/><text fill="#000000" font-family="sans-serif" font-size="13" lengthAdjust="spacing" textLength="62.8672" x="299" y="166.6045">credentials</text></g><!--link P1 to EMP--><g id="link_P1_EMP"><path d="M195.32,242.0494 C187.96,217.0094 181.61,179.3694 198,152.1094 C218.87,117.3894 258.339,101.0456 289.039,92.5156 " fill="none" id="P1-to-EMP" style="stroke:#181818;stroke-width:1;"/><polygon fill="#181818" points="294.82,90.9094,285.0777,89.4648,290.0025,92.2479,287.2193,97.1728,294.82,90.9094" style="stroke:#181818;stroke-width:1;"/><text fill="#000000" font-family="sans-serif" font-size="13" lengthAdjust="spacing" textLength="79.4917" x="199" y="166.6045">session token</text></g><!--link P1 to D1--><g id="link_P1_D1"><path d="M150.31,290.9794 C124.28,301.8894 97.26,315.4494 90,327.1094 C85.77,333.8994 85.02,338.8494 90,345.1094 C126.61,391.2094 165.07,351.5194 219,375.1094 C228.26,379.1594 232.6462,381.4088 240.9962,387.0788 " fill="none" id="P1-to-D1" style="stroke:#181818;stroke-width:1;"/><polygon fill="#181818" points="245.96,390.4494,240.7614,382.0843,241.8235,387.6405,236.2673,388.7026,245.96,390.4494" style="stroke:#181818;stroke-width:1;"/><text fill="#000000" font-family="sans-serif" font-size="13" lengthAdjust="spacing" textLength="62.8608" x="91" y="341.6045">verify hash</text></g><!--link D1 to P1--><g id="link_D1_P1"><path d="M242.65,390.4094 C222.47,375.4594 199.35,356.5894 194,345.1094 C187.04,330.1794 187.8852,317.6491 192.2752,302.9291 " fill="none" id="D1-to-P1" style="stroke:#181818;stroke-width:1;"/><polygon fill="#181818" points="193.99,297.1794,187.5847,304.6608,192.561,301.9708,195.251,306.9472,193.99,297.1794" style="stroke:#181818;stroke-width:1;"/><text fill="#000000" font-family="sans-serif" font-size="13" lengthAdjust="spacing" textLength="65.749" x="195" y="341.6045">user record</text></g><!--link CAM to P2--><g id="link_CAM_P2"><path d="M875.03,122.2394 C861.06,137.6594 844.28,155.2794 828,170.1094 C799.29,196.2594 769.0377,219.4276 742.8577,238.4076 " fill="none" id="CAM-to-P2" style="stroke:#181818;stroke-width:1;"/><polygon fill="#181818" points="738,241.9294,747.6344,239.8852,742.0481,238.9946,742.9387,233.4083,738,241.9294" style="stroke:#181818;stroke-width:1;"/><text fill="#000000" font-family="sans-serif" font-size="13" lengthAdjust="spacing" textLength="33.23" x="847" y="166.6045">frame</text></g><!--link P2 to D3--><g id="link_P2_D3"><path d="M712.74,297.3094 C716.5,306.5294 720.12,317.0694 722,327.1094 C726.07,348.7694 721.0664,367.543 713.7864,384.763 " fill="none" id="P2-to-D3" style="stroke:#181818;stroke-width:1;"/><polygon fill="#181818" points="711.45,390.2894,718.6388,383.5573,713.397,385.684,711.2703,380.4422,711.45,390.2894" style="stroke:#181818;stroke-width:1;"/><text fill="#000000" font-family="sans-serif" font-size="13" lengthAdjust="spacing" textLength="87.458" x="724" y="341.6045">load encodings</text></g><!--link D3 to P2--><g id="link_D3_P2"><path d="M667.88,390.3994 C654.07,378.6394 639.41,362.9994 632,345.1094 C624.43,326.8294 632.1011,313.9129 648.2711,301.0029 " fill="none" id="D3-to-P2" style="stroke:#181818;stroke-width:1;"/><polygon fill="#181818" points="652.96,297.2594,643.431,299.7488,649.0526,300.379,648.4224,306.0007,652.96,297.2594" style="stroke:#181818;stroke-width:1;"/><text fill="#000000" font-family="sans-serif" font-size="13" lengthAdjust="spacing" textLength="80.9199" x="633" y="341.6045">128-D vectors</text></g><!--link P2 to P3--><g id="link_P2_P3"><path d="M635.15,269.9594 C533.42,270.4794 343.49,278.1794 301,327.1094 C295.75,333.1494 296.92,338.2294 301,345.1094 C308.47,357.7294 330.5835,370.7874 357.8035,383.8874 " fill="none" id="P2-to-P3" style="stroke:#181818;stroke-width:1;"/><polygon fill="#181818" points="363.21,386.4894,356.8349,378.9822,358.7046,384.3211,353.3657,386.1908,363.21,386.4894" style="stroke:#181818;stroke-width:1;"/><text fill="#000000" font-family="sans-serif" font-size="13" lengthAdjust="spacing" textLength="204.8833" x="302" y="341.6045">matched employee_id + confidence</text></g><!--link P3 to D4--><g id="link_P3_D4"><path d="M466.1,441.8194 C482.94,453.5894 502.15,468.1394 518,483.1094 C533.56,497.7994 545.21,511.8145 556.18,526.3145 " fill="none" id="P3-to-D4" style="stroke:#181818;stroke-width:1;"/><polygon fill="#181818" points="559.8,531.0994,557.5599,521.5087,556.7833,527.1119,551.18,526.3354,559.8,531.0994" style="stroke:#181818;stroke-width:1;"/><text fill="#000000" font-family="sans-serif" font-size="13" lengthAdjust="spacing" textLength="152.4644" x="534" y="497.6045">write check_in / check_out</text></g><!--link P3 to D2--><g id="link_P3_D2"><path d="M415.17,441.8094 C405.61,467.7494 393.3416,501.0683 384.3616,525.4783 " fill="none" id="P3-to-D2" style="stroke:#181818;stroke-width:1;"/><polygon fill="#181818" points="382.29,531.1094,389.1514,524.0439,384.0163,526.4168,381.6433,521.2818,382.29,531.1094" style="stroke:#181818;stroke-width:1;"/><text fill="#000000" font-family="sans-serif" font-size="13" lengthAdjust="spacing" textLength="109.1226" x="400" y="497.6045">read shift schedule</text></g><!--link D4 to P5--><g id="link_D4_P5"><path d="M577.58,578.3394 C578.15,587.5694 578.72,598.3494 579,608.1094 C579.45,624.0394 578.9963,635.876 577.9363,650.086 " fill="none" id="D4-to-P5" style="stroke:#181818;stroke-width:1;"/><polygon fill="#181818" points="577.49,656.0694,582.1484,647.3919,577.8619,651.0832,574.1706,646.7968,577.49,656.0694" style="stroke:#181818;stroke-width:1;"/><text fill="#000000" font-family="sans-serif" font-size="13" lengthAdjust="spacing" textLength="93.2471" x="580" y="622.6045">attendance data</text></g><!--link D4 to P5--><g id="link_D4_P5"><path d="M547.08,578.3494 C538.64,586.6994 530.49,596.8894 526,608.1094 C519.22,625.0694 525.0139,637.8257 537.6339,651.3957 " fill="none" id="D4-to-P5-1" style="stroke:#181818;stroke-width:1;"/><polygon fill="#181818" points="541.72,655.7894,538.52,646.4749,538.315,652.128,532.6618,651.9229,541.72,655.7894" style="stroke:#181818;stroke-width:1;"/><text fill="#000000" font-family="sans-serif" font-size="13" lengthAdjust="spacing" textLength="43.3481" x="527" y="622.6045">records</text></g><!--link EMP to P4--><g id="link_EMP_P4"><path d="M294.74,84.0794 C235.82,85.9194 109.18,99.3494 53,178.1094 C6,243.9994 66.2084,335.5869 103.2084,381.7669 " fill="none" id="EMP-to-P4" style="stroke:#181818;stroke-width:1;"/><polygon fill="#181818" points="106.96,386.4494,104.4542,376.9246,103.8336,382.5473,98.2109,381.9268,106.96,386.4494" style="stroke:#181818;stroke-width:1;"/><text fill="#000000" font-family="sans-serif" font-size="13" lengthAdjust="spacing" textLength="78.0508" x="54" y="275.1045">leave request</text></g><!--link P4 to D5--><g id="link_P4_D5"><path d="M121.3,441.6194 C116.98,458.9094 113.87,481.7694 120,501.1094 C123.4,511.8494 126.2537,517.4992 132.8537,526.1992 " fill="none" id="P4-to-D5" style="stroke:#181818;stroke-width:1;"/><polygon fill="#181818" points="136.48,530.9794,134.2273,521.3916,133.4581,526.9959,127.8538,526.2267,136.48,530.9794" style="stroke:#181818;stroke-width:1;"/><text fill="#000000" font-family="sans-serif" font-size="13" lengthAdjust="spacing" textLength="74.4326" x="121" y="497.6045">save request</text></g><!--link MGR to P4--><g id="link_MGR_P4"><path d="M1086.26,390.0794 C1078,384.1794 1068.58,378.5694 1059,375.1094 C1023.85,362.4294 707.18,328.7894 515,340.1094 C382.76,347.8994 346.84,340.3694 219,375.1094 C208.09,378.0694 202.3496,379.8785 191.6196,384.2885 " fill="none" id="MGR-to-P4" style="stroke:#181818;stroke-width:1;"/><polygon fill="#181818" points="186.07,386.5694,195.9149,386.8478,190.6946,384.6687,192.8738,379.4484,186.07,386.5694" style="stroke:#181818;stroke-width:1;"/><text fill="#000000" font-family="sans-serif" font-size="13" lengthAdjust="spacing" textLength="82.3799" x="516" y="341.6045">approve/reject</text></g><!--link P4 to D2--><g id="link_P4_D2"><path d="M158.81,441.7594 C179.85,460.2094 209.71,484.3594 239,501.1094 C264.21,515.5294 288.5035,525.6182 313.7735,534.5582 " fill="none" id="P4-to-D2" style="stroke:#181818;stroke-width:1;"/><polygon fill="#181818" points="319.43,536.5594,312.2794,529.7867,314.7163,534.8918,309.6112,537.3286,319.43,536.5594" style="stroke:#181818;stroke-width:1;"/><text fill="#000000" font-family="sans-serif" font-size="13" lengthAdjust="spacing" textLength="144.5615" x="240" y="497.6045">update used_leave_days</text></g><!--link D5 to P5--><g id="link_D5_P5"><path d="M225.56,576.4394 C304.42,600.3994 427.1991,637.7052 504.4491,661.1752 " fill="none" id="D5-to-P5" style="stroke:#181818;stroke-width:1;"/><polygon fill="#181818" points="510.19,662.9194,502.7415,656.4758,505.4059,661.4659,500.4159,664.1303,510.19,662.9194" style="stroke:#181818;stroke-width:1;"/><text fill="#000000" font-family="sans-serif" font-size="13" lengthAdjust="spacing" textLength="59.9917" x="379" y="622.6045">leave data</text></g><!--link P5 to HR--><g id="link_P5_HR"><path d="M637.73,711.1094 C709.08,741.2594 817.6228,787.1247 875.4128,811.5347 " fill="none" id="P5-to-HR" style="stroke:#181818;stroke-width:1;"/><polygon fill="#181818" points="880.94,813.8694,874.2057,806.6827,876.334,811.9239,871.0928,814.0522,880.94,813.8694" style="stroke:#181818;stroke-width:1;"/><text fill="#000000" font-family="sans-serif" font-size="13" lengthAdjust="spacing" textLength="83.0908" x="747" y="757.6045">monthly report</text></g><!--SRC=[jLJRQXin47tNLmpkGrjAI6t7KF9GSB9EKeZRnUvBm62KtR6jMYkvajQfAOLyHBumNzAPlJhxK2YqnW-BpfcBpXoDtogpaqvcu309qgmrmay1S26JxThPtAINLbi7jsgz2NUejNrWrBeKNOb4qcs_E8f4yKlu9bqgWxoN_W_PBdIEdLoVvVv0MO8Ar4P46U2A2aAav9fpFZy-mItkKSDxU5TzzOLu3SzFZ_I7oO-0paWD4qCf5FeA-1z_8PD07VScsKxR0s8Fgf_qC9d6DNmpWrCOfvaolGQ-cTNefSpGIOXmhv8Y0w6NusaDJwMHQtHDQeQdrxEZ6q-bCX0xcw3tyARMvfwLbkxmzg_lBreNzAvaWf-YXHc7W9JE90ZpWm-OzRYF-TqSNXLpl7Q8HWYwD9oSV2o0S-1WK1crJ_U_jMjb15tiY33xEezXhrAqu8D3cGcIwWYlTIsCn1hkTixkfVQ2SUPnmNCuwiu76NBFzL3kaGpjSnqQEgUdihYpBZ1fh94-6fXq9JYcNCgiGHSPjFBXIEpAS3Ikn6OxwybYrlnxYuaTlHOMhbSNh0QClbUyfgCPnNsQJnusI8PF9FVJsYpkTxY3XId6CgF-rqRLRAOEEjJXYx5F3CsF_SdKOOTwjZ2btgLRCsgbpdhMeOuMfjGVhj6GySdaDNKaYDli3EX5VSWzEjzwlxbNrEzG1u2LMLxGcJheK8Um8WMMVDIb3ZlKCv2D0akw1QqfNqeGdNMeez8lnFgUem- -dK4qedNMF8suJnPB7AOyBhOo7HH0nC0UdLeTO2FzHaGLK4Im451sq4IKvYTBUFPWi5j-WlKBYmU4hMXZeg3FiiAGZhILAQ19B7lS2pfhwVt1XvE8Uk3DuvkmcCCo6P8DfetAIvNI-asiMT7p9NM4YAjC9DevF3WL42WYsIvfEvrMdpOFBOyhqgDFmM_KAe3d_Bb6GGdAkYCYjFeNQX_fo6LqzSWBoKLS1KOSw8yHVjXDa2os29uw_4OtRQEudtn7LP3LJfVbF5DvyE9bJvKH1DLf3yjMYXxZwhpSDfarOQCF5CMk5xy1]--></g></svg>