<svg xmlns="http://www.w3.org/2000/svg" xmlns:xlink="http://www.w3.org/1999/xlink" contentStyleType="text/css" height="1216px" preserveAspectRatio="none" style="width:1603px;height:1216px;background:#FFFFFF;" version="1.1" viewBox="0 0 1603 1216" width="1603px" zoomAndPan="magnify"><title>ERD &#8212; Face Attendance Database (face_attendance_v3)</title><defs/><g><text fill="#000000" font-family="sans-serif" font-size="14" font-weight="bold" lengthAdjust="spacing" textLength="376.2432" x="606.3901" y="24.5332">ERD &#8212; Face Attendance Database (face_attendance_v3)</text><!--class DEPT--><g id="elem_DEPT"><rect codeLine="9" fill="#F1F1F1" height="153.6563" id="DEPT" rx="2.5" ry="2.5" style="stroke:#181818;stroke-width:0.5;" width="237.292" x="746.5" y="71.6094"/><ellipse cx="821.9858" cy="87.6094" fill="#ADD1B2" rx="11" ry="11" style="stroke:#181818;stroke-width:1;"/><path d="M820.8452,88.4063 L820.8452,90.9063 L825.1733,90.9063 L825.1733,89.9844 Q825.1733,89.375 825.4077,89.1094 Q825.6577,88.8438 826.0327,88.8438 Q826.4077,88.8438 826.6421,89.1094 Q826.8765,89.375 826.8765,89.9844 L826.8765,92.6094 L818.8765,92.6094 Q818.2515,92.6094 817.9858,92.375 Q817.7358,92.1406 817.7358,91.75 Q817.7358,91.375 818.0015,91.1406 Q818.2671,90.9063 818.8765,90.9063 L819.1421,90.9063 L819.1421,84.25 L818.8765,84.25 Q818.2515,84.25 817.9858,84.0156 Q817.7358,83.7813 817.7358,83.3906 Q817.7358,83.0156 817.9858,82.7813 Q818.2515,82.5469 818.8765,82.5469 L826.5015,82.5469 L826.5015,85.1406 Q826.5015,85.75 826.2671,86.0156 Q826.0483,86.2656 825.6577,86.2656 Q825.2827,86.2656 825.0483,86.0156 Q824.814,85.75 824.814,85.1406 L824.814,84.25 L820.8452,84.25 L820.8452,86.7031 L822.3296,86.7031 Q822.3296,86.0469 822.4546,85.8594 Q822.7202,85.4531 823.189,85.4531 Q823.564,85.4531 823.7983,85.7188 Q824.0327,85.9688 824.0327,86.5781 L824.0327,88.5469 Q824.0327,89.0938 823.9077,89.2813 Q823.6421,89.6719 823.189,89.6719 Q822.7202,89.6719 822.4546,89.2656 Q822.3296,89.0781 822.3296,88.4063 L820.8452,88.4063 Z " fill="#000000"/><text fill="#000000" font-family="sans-serif" font-size="14" lengthAdjust="spacing" textLength="77.8203" x="842.4858" y="93.3379">departments</text><line style="stroke:#181818;stroke-width:0.5;" x1="747.5" x2="982.792" y1="103.6094" y2="103.6094"/><ellipse cx="757.5" cy="117.9141" fill="#000000" rx="3" ry="3" style="stroke:#000000;stroke-width:1;"/><text fill="#000000" font-family="sans-serif" font-size="14" lengthAdjust="spacing" textLength="122.9307" x="766.5" y="122.1426">id : INTEGER &#171;PK&#187;</text><line style="stroke:#181818;stroke-width:1;" x1="747.5" x2="982.792" y1="129.2188" y2="129.2188"/><text fill="#000000" font-family="sans-serif" font-size="14" lengthAdjust="spacing" textLength="118.2686" x="752.5" y="147.752">code : TEXT &#171;UQ&#187;</text><text fill="#000000" font-family="sans-serif" font-size="14" lengthAdjust="spacing" textLength="82.4688" x="752.5" y="165.3613">name : TEXT</text><text fill="#000000" font-family="sans-serif" font-size="14" lengthAdjust="spacing" textLength="219.8506" x="752.5" y="182.9707">parent_id : INT &#171;FK&#8594;departments&#187;</text><text fill="#000000" font-family="sans-serif" font-size="14" lengthAdjust="spacing" textLength="225.292" x="752.5" y="200.5801">manager_id : INT &#171;FK&#8594;employees&#187;</text><text fill="#000000" font-family="sans-serif" font-size="14" lengthAdjust="spacing" textLength="128.3652" x="752.5" y="218.1895">is_active : INTEGER</text></g><!--class POS--><g id="elem_POS"><rect codeLine="19" fill="#F1F1F1" height="136.0469" id="POS" rx="2.5" ry="2.5" style="stroke:#181818;stroke-width:0.5;" width="148.9307" x="562.5" y="80.6094"/><ellipse cx="605.2541" cy="96.6094" fill="#ADD1B2" rx="11" ry="11" style="stroke:#181818;stroke-width:1;"/><path d="M604.1135,97.4063 L604.1135,99.9063 L608.4416,99.9063 L608.4416,98.9844 Q608.4416,98.375 608.676,98.1094 Q608.926,97.8438 609.301,97.8438 Q609.676,97.8438 609.9104,98.1094 Q610.1447,98.375 610.1447,98.9844 L610.1447,101.6094 L602.1447,101.6094 Q601.5197,101.6094 601.2541,101.375 Q601.0041,101.1406 601.0041,100.75 Q601.0041,100.375 601.2697,100.1406 Q601.5354,99.9063 602.1447,99.9063 L602.4104,99.9063 L602.4104,93.25 L602.1447,93.25 Q601.5197,93.25 601.2541,93.0156 Q601.0041,92.7813 601.0041,92.3906 Q601.0041,92.0156 601.2541,91.7813 Q601.5197,91.5469 602.1447,91.5469 L609.7697,91.5469 L609.7697,94.1406 Q609.7697,94.75 609.5354,95.0156 Q609.3166,95.2656 608.926,95.2656 Q608.551,95.2656 608.3166,95.0156 Q608.0822,94.75 608.0822,94.1406 L608.0822,93.25 L604.1135,93.25 L604.1135,95.7031 L605.5979,95.7031 Q605.5979,95.0469 605.7229,94.8594 Q605.9885,94.4531 606.4572,94.4531 Q606.8322,94.4531 607.0666,94.7188 Q607.301,94.9688 607.301,95.5781 L607.301,97.5469 Q607.301,98.0938 607.176,98.2813 Q606.9104,98.6719 606.4572,98.6719 Q605.9885,98.6719 605.7229,98.2656 Q605.5979,98.0781 605.5979,97.4063 L604.1135,97.4063 Z " fill="#000000"/><text fill="#000000" font-family="sans-serif" font-size="14" lengthAdjust="spacing" textLength="55.2549" x="625.4217" y="102.3379">positions</text><line style="stroke:#181818;stroke-width:0.5;" x1="563.5" x2="710.4307" y1="112.6094" y2="112.6094"/><ellipse cx="573.5" cy="126.9141" fill="#000000" rx="3" ry="3" style="stroke:#000000;stroke-width:1;"/><text fill="#000000" font-family="sans-serif" font-size="14" lengthAdjust="spacing" textLength="122.9307" x="582.5" y="131.1426">id : INTEGER &#171;PK&#187;</text><line style="stroke:#181818;stroke-width:1;" x1="563.5" x2="710.4307" y1="138.2188" y2="138.2188"/><text fill="#000000" font-family="sans-serif" font-size="14" lengthAdjust="spacing" textLength="118.2686" x="568.5" y="156.752">code : TEXT &#171;UQ&#187;</text><text fill="#000000" font-family="sans-serif" font-size="14" lengthAdjust="spacing" textLength="82.4688" x="568.5" y="174.3613">name : TEXT</text><text fill="#000000" font-family="sans-serif" font-size="14" lengthAdjust="spacing" textLength="108.9238" x="568.5" y="191.9707">level : SMALLINT</text><text fill="#000000" font-family="sans-serif" font-size="14" lengthAdjust="spacing" textLength="128.3652" x="568.5" y="209.5801">is_active : INTEGER</text></g><!--class SHIFT--><g id="elem_SHIFT"><rect codeLine="28" fill="#F1F1F1" height="206.4844" id="SHIFT" rx="2.5" ry="2.5" style="stroke:#181818;stroke-width:0.5;" width="187.8545" x="1019" y="45.6094"/><ellipse cx="1073.667" cy="61.6094" fill="#ADD1B2" rx="11" ry="11" style="stroke:#181818;stroke-width:1;"/><path d="M1072.5264,62.4063 L1072.5264,64.9063 L1076.8545,64.9063 L1076.8545,63.9844 Q1076.8545,63.375 1077.0889,63.1094 Q1077.3389,62.8438 1077.7139,62.8438 Q1078.0889,62.8438 1078.3232,63.1094 Q1078.5576,63.375 1078.5576,63.9844 L1078.5576,66.6094 L1070.5576,66.6094 Q1069.9326,66.6094 1069.667,66.375 Q1069.417,66.1406 1069.417,65.75 Q1069.417,65.375 1069.6826,65.1406 Q1069.9482,64.9063 1070.5576,64.9063 L1070.8232,64.9063 L1070.8232,58.25 L1070.5576,58.25 Q1069.9326,58.25 1069.667,58.0156 Q1069.417,57.7813 1069.417,57.3906 Q1069.417,57.0156 1069.667,56.7813 Q1069.9326,56.5469 1070.5576,56.5469 L1078.1826,56.5469 L1078.1826,59.1406 Q1078.1826,59.75 1077.9482,60.0156 Q1077.7295,60.2656 1077.3389,60.2656 Q1076.9639,60.2656 1076.7295,60.0156 Q1076.4951,59.75 1076.4951,59.1406 L1076.4951,58.25 L1072.5264,58.25 L1072.5264,60.7031 L1074.0107,60.7031 Q1074.0107,60.0469 1074.1357,59.8594 Q1074.4014,59.4531 1074.8701,59.4531 Q1075.2451,59.4531 1075.4795,59.7188 Q1075.7139,59.9688 1075.7139,60.5781 L1075.7139,62.5469 Q1075.7139,63.0938 1075.5889,63.2813 Q1075.3232,63.6719 1074.8701,63.6719 Q1074.4014,63.6719 1074.1357,63.2656 Q1074.0107,63.0781 1074.0107,62.4063 L1072.5264,62.4063 Z " fill="#000000"/><text fill="#000000" font-family="sans-serif" font-size="14" lengthAdjust="spacing" textLength="70.0205" x="1094.167" y="67.3379">work_shifts</text><line style="stroke:#181818;stroke-width:0.5;" x1="1020" x2="1205.8545" y1="77.6094" y2="77.6094"/><ellipse cx="1030" cy="91.9141" fill="#000000" rx="3" ry="3" style="stroke:#000000;stroke-width:1;"/><text fill="#000000" font-family="sans-serif" font-size="14" lengthAdjust="spacing" textLength="122.9307" x="1039" y="96.1426">id : INTEGER &#171;PK&#187;</text><line style="stroke:#181818;stroke-width:1;" x1="1020" x2="1205.8545" y1="103.2188" y2="103.2188"/><text fill="#000000" font-family="sans-serif" font-size="14" lengthAdjust="spacing" textLength="118.2686" x="1025" y="121.752">code : TEXT &#171;UQ&#187;</text><text fill="#000000" font-family="sans-serif" font-size="14" lengthAdjust="spacing" textLength="82.4688" x="1025" y="139.3613">name : TEXT</text><text fill="#000000" font-family="sans-serif" font-size="14" lengthAdjust="spacing" textLength="107.3721" x="1025" y="156.9707">shift_type : TEXT</text><text fill="#000000" font-family="sans-serif" font-size="14" lengthAdjust="spacing" textLength="108.9102" x="1025" y="174.5801">start_time : TEXT</text><text fill="#000000" font-family="sans-serif" font-size="14" lengthAdjust="spacing" textLength="105.041" x="1025" y="192.1895">end_time : TEXT</text><text fill="#000000" font-family="sans-serif" font-size="14" lengthAdjust="spacing" textLength="171.958" x="1025" y="209.7988">break_minutes : SMALLINT</text><text fill="#000000" font-family="sans-serif" font-size="14" lengthAdjust="spacing" textLength="168.082" x="1025" y="227.4082">late_threshold : SMALLINT</text><text fill="#000000" font-family="sans-serif" font-size="14" lengthAdjust="spacing" textLength="175.8545" x="1025" y="245.0176">early_threshold : SMALLINT</text></g><!--class EMP--><g id="elem_EMP"><rect codeLine="42" fill="#F1F1F1" height="241.7031" id="EMP" rx="2.5" ry="2.5" style="stroke:#181818;stroke-width:0.5;" width="262.9746" x="733.5" y="311.6094"/><ellipse cx="826.8857" cy="327.6094" fill="#ADD1B2" rx="11" ry="11" style="stroke:#181818;stroke-width:1;"/><path d="M825.7451,328.4063 L825.7451,330.9063 L830.0732,330.9063 L830.0732,329.9844 Q830.0732,329.375 830.3076,329.1094 Q830.5576,328.8438 830.9326,328.8438 Q831.3076,328.8438 831.542,329.1094 Q831.7764,329.375 831.7764,329.9844 L831.7764,332.6094 L823.7764,332.6094 Q823.1514,332.6094 822.8857,332.375 Q822.6357,332.1406 822.6357,331.75 Q822.6357,331.375 822.9014,331.1406 Q823.167,330.9063 823.7764,330.9063 L824.042,330.9063 L824.042,324.25 L823.7764,324.25 Q823.1514,324.25 822.8857,324.0156 Q822.6357,323.7813 822.6357,323.3906 Q822.6357,323.0156 822.8857,322.7813 Q823.1514,322.5469 823.7764,322.5469 L831.4014,322.5469 L831.4014,325.1406 Q831.4014,325.75 831.167,326.0156 Q830.9482,326.2656 830.5576,326.2656 Q830.1826,326.2656 829.9482,326.0156 Q829.7139,325.75 829.7139,325.1406 L829.7139,324.25 L825.7451,324.25 L825.7451,326.7031 L827.2295,326.7031 Q827.2295,326.0469 827.3545,325.8594 Q827.6201,325.4531 828.0889,325.4531 Q828.4639,325.4531 828.6982,325.7188 Q828.9326,325.9688 828.9326,326.5781 L828.9326,328.5469 Q828.9326,329.0938 828.8076,329.2813 Q828.542,329.6719 828.0889,329.6719 Q827.6201,329.6719 827.3545,329.2656 Q827.2295,329.0781 827.2295,328.4063 L825.7451,328.4063 Z " fill="#000000"/><text fill="#000000" font-family="sans-serif" font-size="14" lengthAdjust="spacing" textLength="67.7031" x="847.3857" y="333.3379">employees</text><line style="stroke:#181818;stroke-width:0.5;" x1="734.5" x2="995.4746" y1="343.6094" y2="343.6094"/><ellipse cx="744.5" cy="357.9141" fill="#000000" rx="3" ry="3" style="stroke:#000000;stroke-width:1;"/><text fill="#000000" font-family="sans-serif" font-size="14" lengthAdjust="spacing" textLength="122.9307" x="753.5" y="362.1426">id : INTEGER &#171;PK&#187;</text><line style="stroke:#181818;stroke-width:1;" x1="734.5" x2="995.4746" y1="369.2188" y2="369.2188"/><text fill="#000000" font-family="sans-serif" font-size="14" lengthAdjust="spacing" textLength="118.2686" x="739.5" y="387.752">code : TEXT &#171;UQ&#187;</text><text fill="#000000" font-family="sans-serif" font-size="14" lengthAdjust="spacing" textLength="108.1514" x="739.5" y="405.3613">full_name : TEXT</text><text fill="#000000" font-family="sans-serif" font-size="14" lengthAdjust="spacing" textLength="250.9746" x="739.5" y="422.9707">department_id : INT &#171;FK&#8594;departments&#187;</text><text fill="#000000" font-family="sans-serif" font-size="14" lengthAdjust="spacing" textLength="205.8438" x="739.5" y="440.5801">position_id : INT &#171;FK&#8594;positions&#187;</text><text fill="#000000" font-family="sans-serif" font-size="14" lengthAdjust="spacing" textLength="247.8506" x="739.5" y="458.1895">default_shift_id : INT &#171;FK&#8594;work_shifts&#187;</text><text fill="#000000" font-family="sans-serif" font-size="14" lengthAdjust="spacing" textLength="225.292" x="739.5" y="475.7988">manager_id : INT &#171;FK&#8594;employees&#187;</text><text fill="#000000" font-family="sans-serif" font-size="14" lengthAdjust="spacing" textLength="188.2959" x="739.5" y="493.4082">is_face_registered : INTEGER</text><text fill="#000000" font-family="sans-serif" font-size="14" lengthAdjust="spacing" textLength="168.8955" x="739.5" y="511.0176">annual_leave_days : REAL</text><text fill="#000000" font-family="sans-serif" font-size="14" lengthAdjust="spacing" textLength="157.2129" x="739.5" y="528.627">used_leave_days : REAL</text><text fill="#000000" font-family="sans-serif" font-size="14" lengthAdjust="spacing" textLength="128.3652" x="739.5" y="546.2363">is_active : INTEGER</text></g><!--class USR--><g id="elem_USR"><rect codeLine="57" fill="#F1F1F1" height="171.2656" id="USR" rx="2.5" ry="2.5" style="stroke:#181818;stroke-width:0.5;" width="267.6299" x="7" y="684.1094"/><ellipse cx="119.4478" cy="700.1094" fill="#ADD1B2" rx="11" ry="11" style="stroke:#181818;stroke-width:1;"/><path d="M118.3071,700.9063 L118.3071,703.4063 L122.6353,703.4063 L122.6353,702.4844 Q122.6353,701.875 122.8696,701.6094 Q123.1196,701.3438 123.4946,701.3438 Q123.8696,701.3438 124.104,701.6094 Q124.3384,701.875 124.3384,702.4844 L124.3384,705.1094 L116.3384,705.1094 Q115.7134,705.1094 115.4478,704.875 Q115.1978,704.6406 115.1978,704.25 Q115.1978,703.875 115.4634,703.6406 Q115.729,703.4063 116.3384,703.4063 L116.604,703.4063 L116.604,696.75 L116.3384,696.75 Q115.7134,696.75 115.4478,696.5156 Q115.1978,696.2813 115.1978,695.8906 Q115.1978,695.5156 115.4478,695.2813 Q115.7134,695.0469 116.3384,695.0469 L123.9634,695.0469 L123.9634,697.6406 Q123.9634,698.25 123.729,698.5156 Q123.5103,698.7656 123.1196,698.7656 Q122.7446,698.7656 122.5103,698.5156 Q122.2759,698.25 122.2759,697.6406 L122.2759,696.75 L118.3071,696.75 L118.3071,699.2031 L119.7915,699.2031 Q119.7915,698.5469 119.9165,698.3594 Q120.1821,697.9531 120.6509,697.9531 Q121.0259,697.9531 121.2603,698.2188 Q121.4946,698.4688 121.4946,699.0781 L121.4946,701.0469 Q121.4946,701.5938 121.3696,701.7813 Q121.104,702.1719 120.6509,702.1719 Q120.1821,702.1719 119.9165,701.7656 Q119.7915,701.5781 119.7915,700.9063 L118.3071,700.9063 Z " fill="#000000"/><text fill="#000000" font-family="sans-serif" font-size="14" lengthAdjust="spacing" textLength="34.2344" x="139.9478" y="705.8379">users</text><line style="stroke:#181818;stroke-width:0.5;" x1="8" x2="273.6299" y1="716.1094" y2="716.1094"/><ellipse cx="18" cy="730.4141" fill="#000000" rx="3" ry="3" style="stroke:#000000;stroke-width:1;"/><text fill="#000000" font-family="sans-serif" font-size="14" lengthAdjust="spacing" textLength="122.9307" x="27" y="734.6426">id : INTEGER &#171;PK&#187;</text><line style="stroke:#181818;stroke-width:1;" x1="8" x2="273.6299" y1="741.7188" y2="741.7188"/><text fill="#000000" font-family="sans-serif" font-size="14" lengthAdjust="spacing" textLength="150.165" x="13" y="760.252">username : TEXT &#171;UQ&#187;</text><text fill="#000000" font-family="sans-serif" font-size="14" lengthAdjust="spacing" textLength="145.5098" x="13" y="777.8613">password_hash : TEXT</text><text fill="#000000" font-family="sans-serif" font-size="14" lengthAdjust="spacing" textLength="255.6299" x="13" y="795.4707">employee_id : INT &#171;FK&#8594;employees,UQ&#187;</text><text fill="#000000" font-family="sans-serif" font-size="14" lengthAdjust="spacing" textLength="70.793" x="13" y="813.0801">role : TEXT</text><text fill="#000000" font-family="sans-serif" font-size="14" lengthAdjust="spacing" textLength="192.999" x="13" y="830.6895">failed_login_count : SMALLINT</text><text fill="#000000" font-family="sans-serif" font-size="14" lengthAdjust="spacing" textLength="156.3857" x="13" y="848.2988">locked_until : DATETIME</text></g><!--class FACE--><g id="elem_FACE"><rect codeLine="68" fill="#F1F1F1" height="206.4844" id="FACE" rx="2.5" ry="2.5" style="stroke:#181818;stroke-width:0.5;" width="242.7402" x="310.5" y="666.6094"/><ellipse cx="396.8721" cy="682.6094" fill="#ADD1B2" rx="11" ry="11" style="stroke:#181818;stroke-width:1;"/><path d="M395.7314,683.4063 L395.7314,685.9063 L400.0596,685.9063 L400.0596,684.9844 Q400.0596,684.375 400.2939,684.1094 Q400.5439,683.8438 400.9189,683.8438 Q401.2939,683.8438 401.5283,684.1094 Q401.7627,684.375 401.7627,684.9844 L401.7627,687.6094 L393.7627,687.6094 Q393.1377,687.6094 392.8721,687.375 Q392.6221,687.1406 392.6221,686.75 Q392.6221,686.375 392.8877,686.1406 Q393.1533,685.9063 393.7627,685.9063 L394.0283,685.9063 L394.0283,679.25 L393.7627,679.25 Q393.1377,679.25 392.8721,679.0156 Q392.6221,678.7813 392.6221,678.3906 Q392.6221,678.0156 392.8721,677.7813 Q393.1377,677.5469 393.7627,677.5469 L401.3877,677.5469 L401.3877,680.1406 Q401.3877,680.75 401.1533,681.0156 Q400.9346,681.2656 400.5439,681.2656 Q400.1689,681.2656 399.9346,681.0156 Q399.7002,680.75 399.7002,680.1406 L399.7002,679.25 L395.7314,679.25 L395.7314,681.7031 L397.2158,681.7031 Q397.2158,681.0469 397.3408,680.8594 Q397.6064,680.4531 398.0752,680.4531 Q398.4502,680.4531 398.6846,680.7188 Q398.9189,680.9688 398.9189,681.5781 L398.9189,683.5469 Q398.9189,684.0938 398.7939,684.2813 Q398.5283,684.6719 398.0752,684.6719 Q397.6064,684.6719 397.3408,684.2656 Q397.2158,684.0781 397.2158,683.4063 L395.7314,683.4063 Z " fill="#000000"/><text fill="#000000" font-family="sans-serif" font-size="14" lengthAdjust="spacing" textLength="61.4961" x="417.3721" y="688.3379">face_data</text><line style="stroke:#181818;stroke-width:0.5;" x1="311.5" x2="552.2402" y1="698.6094" y2="698.6094"/><ellipse cx="321.5" cy="712.9141" fill="#000000" rx="3" ry="3" style="stroke:#000000;stroke-width:1;"/><text fill="#000000" font-family="sans-serif" font-size="14" lengthAdjust="spacing" textLength="122.9307" x="330.5" y="717.1426">id : INTEGER &#171;PK&#187;</text><line style="stroke:#181818;stroke-width:1;" x1="311.5" x2="552.2402" y1="724.2188" y2="724.2188"/><text fill="#000000" font-family="sans-serif" font-size="14" lengthAdjust="spacing" textLength="230.7402" x="316.5" y="742.752">employee_id : INT &#171;FK&#8594;employees&#187;</text><text fill="#000000" font-family="sans-serif" font-size="14" lengthAdjust="spacing" textLength="104.2754" x="316.5" y="760.3613">encoding : TEXT</text><text fill="#000000" font-family="sans-serif" font-size="14" lengthAdjust="spacing" textLength="120.6133" x="316.5" y="777.9707">image_path : TEXT</text><text fill="#000000" font-family="sans-serif" font-size="14" lengthAdjust="spacing" textLength="159.5166" x="316.5" y="795.5801">image_index : SMALLINT</text><text fill="#000000" font-family="sans-serif" font-size="14" lengthAdjust="spacing" textLength="81.7031" x="316.5" y="813.1895">angle : TEXT</text><text fill="#000000" font-family="sans-serif" font-size="14" lengthAdjust="spacing" textLength="130.7305" x="316.5" y="830.7988">quality_score : REAL</text><text fill="#000000" font-family="sans-serif" font-size="14" lengthAdjust="spacing" textLength="128.3652" x="316.5" y="848.4082">is_active : INTEGER</text><text fill="#000000" font-family="sans-serif" font-size="14" lengthAdjust="spacing" textLength="136.9238" x="316.5" y="866.0176">is_verified : INTEGER</text></g><!--class FRLOG--><g id="elem_FRLOG"><rect codeLine="81" fill="#F1F1F1" height="136.0469" id="FRLOG" rx="2.5" ry="2.5" style="stroke:#181818;stroke-width:0.5;" width="242.7402" x="310.5" y="1029.6094"/><ellipse cx="359.1343" cy="1045.6094" fill="#ADD1B2" rx="11" ry="11" style="stroke:#181818;stroke-width:1;"/><path d="M357.9937,1046.4063 L357.9937,1048.9063 L362.3218,1048.9063 L362.3218,1047.9844 Q362.3218,1047.375 362.5562,1047.1094 Q362.8062,1046.8438 363.1812,1046.8438 Q363.5562,1046.8438 363.7905,1047.1094 Q364.0249,1047.375 364.0249,1047.9844 L364.0249,1050.6094 L356.0249,1050.6094 Q355.3999,1050.6094 355.1343,1050.375 Q354.8843,1050.1406 354.8843,1049.75 Q354.8843,1049.375 355.1499,1049.1406 Q355.4155,1048.9063 356.0249,1048.9063 L356.2905,1048.9063 L356.2905,1042.25 L356.0249,1042.25 Q355.3999,1042.25 355.1343,1042.0156 Q354.8843,1041.7813 354.8843,1041.3906 Q354.8843,1041.0156 355.1343,1040.7813 Q355.3999,1040.5469 356.0249,1040.5469 L363.6499,1040.5469 L363.6499,1043.1406 Q363.6499,1043.75 363.4155,1044.0156 Q363.1968,1044.2656 362.8062,1044.2656 Q362.4312,1044.2656 362.1968,1044.0156 Q361.9624,1043.75 361.9624,1043.1406 L361.9624,1042.25 L357.9937,1042.25 L357.9937,1044.7031 L359.478,1044.7031 Q359.478,1044.0469 359.603,1043.8594 Q359.8687,1043.4531 360.3374,1043.4531 Q360.7124,1043.4531 360.9468,1043.7188 Q361.1812,1043.9688 361.1812,1044.5781 L361.1812,1046.5469 Q361.1812,1047.0938 361.0562,1047.2813 Q360.7905,1047.6719 360.3374,1047.6719 Q359.8687,1047.6719 359.603,1047.2656 Q359.478,1047.0781 359.478,1046.4063 L357.9937,1046.4063 Z " fill="#000000"/><text fill="#000000" font-family="sans-serif" font-size="14" lengthAdjust="spacing" textLength="136.9717" x="379.6343" y="1051.3379">face_registration_logs</text><line style="stroke:#181818;stroke-width:0.5;" x1="311.5" x2="552.2402" y1="1061.6094" y2="1061.6094"/><ellipse cx="321.5" cy="1075.9141" fill="#000000" rx="3" ry="3" style="stroke:#000000;stroke-width:1;"/><text fill="#000000" font-family="sans-serif" font-size="14" lengthAdjust="spacing" textLength="122.9307" x="330.5" y="1080.1426">id : INTEGER &#171;PK&#187;</text><line style="stroke:#181818;stroke-width:1;" x1="311.5" x2="552.2402" y1="1087.2188" y2="1087.2188"/><text fill="#000000" font-family="sans-serif" font-size="14" lengthAdjust="spacing" textLength="230.7402" x="316.5" y="1105.752">employee_id : INT &#171;FK&#8594;employees&#187;</text><text fill="#000000" font-family="sans-serif" font-size="14" lengthAdjust="spacing" textLength="225.3262" x="316.5" y="1123.3613">face_data_id : INT &#171;FK&#8594;face_data&#187;</text><text fill="#000000" font-family="sans-serif" font-size="14" lengthAdjust="spacing" textLength="84.8066" x="316.5" y="1140.9707">action : TEXT</text><text fill="#000000" font-family="sans-serif" font-size="14" lengthAdjust="spacing" textLength="204.2646" x="316.5" y="1158.5801">performed_by : INT &#171;FK&#8594;users&#187;</text></g><!--class DEV--><g id="elem_DEV"><rect codeLine="91" fill="#F1F1F1" height="171.2656" id="DEV" rx="2.5" ry="2.5" style="stroke:#181818;stroke-width:0.5;" width="178.5234" x="1417.5" y="347.1094"/><ellipse cx="1442.3938" cy="363.1094" fill="#ADD1B2" rx="11" ry="11" style="stroke:#181818;stroke-width:1;"/><path d="M1441.2532,363.9063 L1441.2532,366.4063 L1445.5813,366.4063 L1445.5813,365.4844 Q1445.5813,364.875 1445.8157,364.6094 Q1446.0657,364.3438 1446.4407,364.3438 Q1446.8157,364.3438 1447.0501,364.6094 Q1447.2845,364.875 1447.2845,365.4844 L1447.2845,368.1094 L1439.2845,368.1094 Q1438.6595,368.1094 1438.3938,367.875 Q1438.1438,367.6406 1438.1438,367.25 Q1438.1438,366.875 1438.4095,366.6406 Q1438.6751,366.4063 1439.2845,366.4063 L1439.5501,366.4063 L1439.5501,359.75 L1439.2845,359.75 Q1438.6595,359.75 1438.3938,359.5156 Q1438.1438,359.2813 1438.1438,358.8906 Q1438.1438,358.5156 1438.3938,358.2813 Q1438.6595,358.0469 1439.2845,358.0469 L1446.9095,358.0469 L1446.9095,360.6406 Q1446.9095,361.25 1446.6751,361.5156 Q1446.4563,361.7656 1446.0657,361.7656 Q1445.6907,361.7656 1445.4563,361.5156 Q1445.222,361.25 1445.222,360.6406 L1445.222,359.75 L1441.2532,359.75 L1441.2532,362.2031 L1442.7376,362.2031 Q1442.7376,361.5469 1442.8626,361.3594 Q1443.1282,360.9531 1443.597,360.9531 Q1443.972,360.9531 1444.2063,361.2188 Q1444.4407,361.4688 1444.4407,362.0781 L1444.4407,364.0469 Q1444.4407,364.5938 1444.3157,364.7813 Q1444.0501,365.1719 1443.597,365.1719 Q1443.1282,365.1719 1442.8626,364.7656 Q1442.7376,364.5781 1442.7376,363.9063 L1441.2532,363.9063 Z " fill="#000000"/><text fill="#000000" font-family="sans-serif" font-size="14" lengthAdjust="spacing" textLength="124.5371" x="1458.5925" y="368.8379">attendance_devices</text><line style="stroke:#181818;stroke-width:0.5;" x1="1418.5" x2="1595.0234" y1="379.1094" y2="379.1094"/><ellipse cx="1428.5" cy="393.4141" fill="#000000" rx="3" ry="3" style="stroke:#000000;stroke-width:1;"/><text fill="#000000" font-family="sans-serif" font-size="14" lengthAdjust="spacing" textLength="122.9307" x="1437.5" y="397.6426">id : INTEGER &#171;PK&#187;</text><line style="stroke:#181818;stroke-width:1;" x1="1418.5" x2="1595.0234" y1="404.7188" y2="404.7188"/><text fill="#000000" font-family="sans-serif" font-size="14" lengthAdjust="spacing" textLength="166.5234" x="1423.5" y="423.252">device_code : TEXT &#171;UQ&#187;</text><text fill="#000000" font-family="sans-serif" font-size="14" lengthAdjust="spacing" textLength="130.7236" x="1423.5" y="440.8613">device_name : TEXT</text><text fill="#000000" font-family="sans-serif" font-size="14" lengthAdjust="spacing" textLength="122.165" x="1423.5" y="458.4707">device_type : TEXT</text><text fill="#000000" font-family="sans-serif" font-size="14" lengthAdjust="spacing" textLength="138.5098" x="1423.5" y="476.0801">location_name : TEXT</text><text fill="#000000" font-family="sans-serif" font-size="14" lengthAdjust="spacing" textLength="115.9375" x="1423.5" y="493.6895">ip_address : TEXT</text><text fill="#000000" font-family="sans-serif" font-size="14" lengthAdjust="spacing" textLength="146.3027" x="1423.5" y="511.2988">min_confidence : REAL</text></g><!--class SCHED--><g id="elem_SCHED"><rect codeLine="102" fill="#F1F1F1" height="136.0469" id="SCHED" rx="2.5" ry="2.5" style="stroke:#181818;stroke-width:0.5;" width="242.7402" x="939.5" y="701.6094"/><ellipse cx="978.2366" cy="717.6094" fill="#ADD1B2" rx="11" ry="11" style="stroke:#181818;stroke-width:1;"/><path d="M977.096,718.4063 L977.096,720.9063 L981.4241,720.9063 L981.4241,719.9844 Q981.4241,719.375 981.6585,719.1094 Q981.9085,718.8438 982.2835,718.8438 Q982.6585,718.8438 982.8929,719.1094 Q983.1272,719.375 983.1272,719.9844 L983.1272,722.6094 L975.1272,722.6094 Q974.5022,722.6094 974.2366,722.375 Q973.9866,722.1406 973.9866,721.75 Q973.9866,721.375 974.2522,721.1406 Q974.5179,720.9063 975.1272,720.9063 L975.3929,720.9063 L975.3929,714.25 L975.1272,714.25 Q974.5022,714.25 974.2366,714.0156 Q973.9866,713.7813 973.9866,713.3906 Q973.9866,713.0156 974.2366,712.7813 Q974.5022,712.5469 975.1272,712.5469 L982.7522,712.5469 L982.7522,715.1406 Q982.7522,715.75 982.5179,716.0156 Q982.2991,716.2656 981.9085,716.2656 Q981.5335,716.2656 981.2991,716.0156 Q981.0647,715.75 981.0647,715.1406 L981.0647,714.25 L977.096,714.25 L977.096,716.7031 L978.5804,716.7031 Q978.5804,716.0469 978.7054,715.8594 Q978.971,715.4531 979.4397,715.4531 Q979.8147,715.4531 980.0491,715.7188 Q980.2835,715.9688 980.2835,716.5781 L980.2835,718.5469 Q980.2835,719.0938 980.1585,719.2813 Q979.8929,719.6719 979.4397,719.6719 Q978.971,719.6719 978.7054,719.2656 Q978.5804,719.0781 978.5804,718.4063 L977.096,718.4063 Z " fill="#000000"/><text fill="#000000" font-family="sans-serif" font-size="14" lengthAdjust="spacing" textLength="157.9922" x="997.5114" y="723.3379">employee_shift_schedule</text><line style="stroke:#181818;stroke-width:0.5;" x1="940.5" x2="1181.2402" y1="733.6094" y2="733.6094"/><ellipse cx="950.5" cy="747.9141" fill="#000000" rx="3" ry="3" style="stroke:#000000;stroke-width:1;"/><text fill="#000000" font-family="sans-serif" font-size="14" lengthAdjust="spacing" textLength="122.9307" x="959.5" y="752.1426">id : INTEGER &#171;PK&#187;</text><line style="stroke:#181818;stroke-width:1;" x1="940.5" x2="1181.2402" y1="759.2188" y2="759.2188"/><text fill="#000000" font-family="sans-serif" font-size="14" lengthAdjust="spacing" textLength="230.7402" x="945.5" y="777.752">employee_id : INT &#171;FK&#8594;employees&#187;</text><text fill="#000000" font-family="sans-serif" font-size="14" lengthAdjust="spacing" textLength="198.0303" x="945.5" y="795.3613">shift_id : INT &#171;FK&#8594;work_shifts&#187;</text><text fill="#000000" font-family="sans-serif" font-size="14" lengthAdjust="spacing" textLength="112.041" x="945.5" y="812.9707">work_date : TEXT</text><text fill="#000000" font-family="sans-serif" font-size="14" lengthAdjust="spacing" textLength="137.7168" x="945.5" y="830.5801">is_day_off : INTEGER</text></g><!--class HOL--><g id="elem_HOL"><rect codeLine="111" fill="#F1F1F1" height="136.0469" id="HOL" rx="2.5" ry="2.5" style="stroke:#181818;stroke-width:0.5;" width="148.9307" x="1242.5" y="80.6094"/><ellipse cx="1287.0327" cy="96.6094" fill="#ADD1B2" rx="11" ry="11" style="stroke:#181818;stroke-width:1;"/><path d="M1285.8921,97.4063 L1285.8921,99.9063 L1290.2202,99.9063 L1290.2202,98.9844 Q1290.2202,98.375 1290.4546,98.1094 Q1290.7046,97.8438 1291.0796,97.8438 Q1291.4546,97.8438 1291.689,98.1094 Q1291.9233,98.375 1291.9233,98.9844 L1291.9233,101.6094 L1283.9233,101.6094 Q1283.2983,101.6094 1283.0327,101.375 Q1282.7827,101.1406 1282.7827,100.75 Q1282.7827,100.375 1283.0483,100.1406 Q1283.314,99.9063 1283.9233,99.9063 L1284.189,99.9063 L1284.189,93.25 L1283.9233,93.25 Q1283.2983,93.25 1283.0327,93.0156 Q1282.7827,92.7813 1282.7827,92.3906 Q1282.7827,92.0156 1283.0327,91.7813 Q1283.2983,91.5469 1283.9233,91.5469 L1291.5483,91.5469 L1291.5483,94.1406 Q1291.5483,94.75 1291.314,95.0156 Q1291.0952,95.2656 1290.7046,95.2656 Q1290.3296,95.2656 1290.0952,95.0156 Q1289.8608,94.75 1289.8608,94.1406 L1289.8608,93.25 L1285.8921,93.25 L1285.8921,95.7031 L1287.3765,95.7031 Q1287.3765,95.0469 1287.5015,94.8594 Q1287.7671,94.4531 1288.2358,94.4531 Q1288.6108,94.4531 1288.8452,94.7188 Q1289.0796,94.9688 1289.0796,95.5781 L1289.0796,97.5469 Q1289.0796,98.0938 1288.9546,98.2813 Q1288.689,98.6719 1288.2358,98.6719 Q1287.7671,98.6719 1287.5015,98.2656 Q1287.3765,98.0781 1287.3765,97.4063 L1285.8921,97.4063 Z " fill="#000000"/><text fill="#000000" font-family="sans-serif" font-size="14" lengthAdjust="spacing" textLength="51.3652" x="1307.5327" y="102.3379">holidays</text><line style="stroke:#181818;stroke-width:0.5;" x1="1243.5" x2="1390.4307" y1="112.6094" y2="112.6094"/><ellipse cx="1253.5" cy="126.9141" fill="#000000" rx="3" ry="3" style="stroke:#000000;stroke-width:1;"/><text fill="#000000" font-family="sans-serif" font-size="14" lengthAdjust="spacing" textLength="122.9307" x="1262.5" y="131.1426">id : INTEGER &#171;PK&#187;</text><line style="stroke:#181818;stroke-width:1;" x1="1243.5" x2="1390.4307" y1="138.2188" y2="138.2188"/><text fill="#000000" font-family="sans-serif" font-size="14" lengthAdjust="spacing" textLength="126.8477" x="1248.5" y="156.752">holiday_date : TEXT</text><text fill="#000000" font-family="sans-serif" font-size="14" lengthAdjust="spacing" textLength="82.4688" x="1248.5" y="174.3613">name : TEXT</text><text fill="#000000" font-family="sans-serif" font-size="14" lengthAdjust="spacing" textLength="126.0615" x="1248.5" y="191.9707">holiday_type : TEXT</text><text fill="#000000" font-family="sans-serif" font-size="14" lengthAdjust="spacing" textLength="107.3652" x="1248.5" y="209.5801">year : SMALLINT</text></g><!--class ATT--><g id="elem_ATT"><rect codeLine="121" fill="#F1F1F1" height="312.1406" id="ATT" rx="2.5" ry="2.5" style="stroke:#181818;stroke-width:0.5;" width="350.9463" x="1217.5" y="613.6094"/><ellipse cx="1326.8477" cy="629.6094" fill="#ADD1B2" rx="11" ry="11" style="stroke:#181818;stroke-width:1;"/><path d="M1325.707,630.4063 L1325.707,632.9063 L1330.0352,632.9063 L1330.0352,631.9844 Q1330.0352,631.375 1330.2695,631.1094 Q1330.5195,630.8438 1330.8945,630.8438 Q1331.2695,630.8438 1331.5039,631.1094 Q1331.7383,631.375 1331.7383,631.9844 L1331.7383,634.6094 L1323.7383,634.6094 Q1323.1133,634.6094 1322.8477,634.375 Q1322.5977,634.1406 1322.5977,633.75 Q1322.5977,633.375 1322.8633,633.1406 Q1323.1289,632.9063 1323.7383,632.9063 L1324.0039,632.9063 L1324.0039,626.25 L1323.7383,626.25 Q1323.1133,626.25 1322.8477,626.0156 Q1322.5977,625.7813 1322.5977,625.3906 Q1322.5977,625.0156 1322.8477,624.7813 Q1323.1133,624.5469 1323.7383,624.5469 L1331.3633,624.5469 L1331.3633,627.1406 Q1331.3633,627.75 1331.1289,628.0156 Q1330.9102,628.2656 1330.5195,628.2656 Q1330.1445,628.2656 1329.9102,628.0156 Q1329.6758,627.75 1329.6758,627.1406 L1329.6758,626.25 L1325.707,626.25 L1325.707,628.7031 L1327.1914,628.7031 Q1327.1914,628.0469 1327.3164,627.8594 Q1327.582,627.4531 1328.0508,627.4531 Q1328.4258,627.4531 1328.6602,627.7188 Q1328.8945,627.9688 1328.8945,628.5781 L1328.8945,630.5469 Q1328.8945,631.0938 1328.7695,631.2813 Q1328.5039,631.6719 1328.0508,631.6719 Q1327.582,631.6719 1327.3164,631.2656 Q1327.1914,631.0781 1327.1914,630.4063 L1325.707,630.4063 Z " fill="#000000"/><text fill="#000000" font-family="sans-serif" font-size="14" lengthAdjust="spacing" textLength="123.751" x="1347.3477" y="635.3379">attendance_records</text><line style="stroke:#181818;stroke-width:0.5;" x1="1218.5" x2="1567.4463" y1="645.6094" y2="645.6094"/><ellipse cx="1228.5" cy="659.9141" fill="#000000" rx="3" ry="3" style="stroke:#000000;stroke-width:1;"/><text fill="#000000" font-family="sans-serif" font-size="14" lengthAdjust="spacing" textLength="122.9307" x="1237.5" y="664.1426">id : INTEGER &#171;PK&#187;</text><line style="stroke:#181818;stroke-width:1;" x1="1218.5" x2="1567.4463" y1="671.2188" y2="671.2188"/><text fill="#000000" font-family="sans-serif" font-size="14" lengthAdjust="spacing" textLength="230.7402" x="1223.5" y="689.752">employee_id : INT &#171;FK&#8594;employees&#187;</text><text fill="#000000" font-family="sans-serif" font-size="14" lengthAdjust="spacing" textLength="151.7646" x="1223.5" y="707.3613">attendance_date : TEXT</text><text fill="#000000" font-family="sans-serif" font-size="14" lengthAdjust="spacing" textLength="198.0303" x="1223.5" y="724.9707">shift_id : INT &#171;FK&#8594;work_shifts&#187;</text><text fill="#000000" font-family="sans-serif" font-size="14" lengthAdjust="spacing" textLength="137.7031" x="1223.5" y="742.5801">check_in : DATETIME</text><text fill="#000000" font-family="sans-serif" font-size="14" lengthAdjust="spacing" textLength="330.3809" x="1223.5" y="760.1895">check_in_device_id : INT &#171;FK&#8594;attendance_devices&#187;</text><text fill="#000000" font-family="sans-serif" font-size="14" lengthAdjust="spacing" textLength="157.1855" x="1223.5" y="777.7988">check_in_method : TEXT</text><text fill="#000000" font-family="sans-serif" font-size="14" lengthAdjust="spacing" textLength="178.999" x="1223.5" y="795.4082">check_in_confidence : REAL</text><text fill="#000000" font-family="sans-serif" font-size="14" lengthAdjust="spacing" textLength="146.2686" x="1223.5" y="813.0176">check_out : DATETIME</text><text fill="#000000" font-family="sans-serif" font-size="14" lengthAdjust="spacing" textLength="338.9463" x="1223.5" y="830.627">check_out_device_id : INT &#171;FK&#8594;attendance_devices&#187;</text><text fill="#000000" font-family="sans-serif" font-size="14" lengthAdjust="spacing" textLength="84.7998" x="1223.5" y="848.2363">status : TEXT</text><text fill="#000000" font-family="sans-serif" font-size="14" lengthAdjust="spacing" textLength="159.5098" x="1223.5" y="865.8457">late_minutes : SMALLINT</text><text fill="#000000" font-family="sans-serif" font-size="14" lengthAdjust="spacing" textLength="167.2822" x="1223.5" y="883.4551">early_minutes : SMALLINT</text><text fill="#000000" font-family="sans-serif" font-size="14" lengthAdjust="spacing" textLength="139.2686" x="1223.5" y="901.0645">working_minutes : INT</text><text fill="#000000" font-family="sans-serif" font-size="14" lengthAdjust="spacing" textLength="168.0684" x="1223.5" y="918.6738">is_manual_edit : INTEGER</text></g><!--class ALOG--><g id="elem_ALOG"><rect codeLine="140" fill="#F1F1F1" height="224.0938" id="ALOG" rx="2.5" ry="2.5" style="stroke:#181818;stroke-width:0.5;" width="331.4844" x="973.5" y="985.6094"/><ellipse cx="1083.6167" cy="1001.6094" fill="#ADD1B2" rx="11" ry="11" style="stroke:#181818;stroke-width:1;"/><path d="M1082.4761,1002.4063 L1082.4761,1004.9063 L1086.8042,1004.9063 L1086.8042,1003.9844 Q1086.8042,1003.375 1087.0386,1003.1094 Q1087.2886,1002.8438 1087.6636,1002.8438 Q1088.0386,1002.8438 1088.2729,1003.1094 Q1088.5073,1003.375 1088.5073,1003.9844 L1088.5073,1006.6094 L1080.5073,1006.6094 Q1079.8823,1006.6094 1079.6167,1006.375 Q1079.3667,1006.1406 1079.3667,1005.75 Q1079.3667,1005.375 1079.6323,1005.1406 Q1079.8979,1004.9063 1080.5073,1004.9063 L1080.7729,1004.9063 L1080.7729,998.25 L1080.5073,998.25 Q1079.8823,998.25 1079.6167,998.0156 Q1079.3667,997.7813 1079.3667,997.3906 Q1079.3667,997.0156 1079.6167,996.7813 Q1079.8823,996.5469 1080.5073,996.5469 L1088.1323,996.5469 L1088.1323,999.1406 Q1088.1323,999.75 1087.8979,1000.0156 Q1087.6792,1000.2656 1087.2886,1000.2656 Q1086.9136,1000.2656 1086.6792,1000.0156 Q1086.4448,999.75 1086.4448,999.1406 L1086.4448,998.25 L1082.4761,998.25 L1082.4761,1000.7031 L1083.9604,1000.7031 Q1083.9604,1000.0469 1084.0854,999.8594 Q1084.3511,999.4531 1084.8198,999.4531 Q1085.1948,999.4531 1085.4292,999.7188 Q1085.6636,999.9688 1085.6636,1000.5781 L1085.6636,1002.5469 Q1085.6636,1003.0938 1085.5386,1003.2813 Q1085.2729,1003.6719 1084.8198,1003.6719 Q1084.3511,1003.6719 1084.0854,1003.2656 Q1083.9604,1003.0781 1083.9604,1002.4063 L1082.4761,1002.4063 Z " fill="#000000"/><text fill="#000000" font-family="sans-serif" font-size="14" lengthAdjust="spacing" textLength="102.751" x="1104.1167" y="1007.3379">attendance_logs</text><line style="stroke:#181818;stroke-width:0.5;" x1="974.5" x2="1303.9844" y1="1017.6094" y2="1017.6094"/><ellipse cx="984.5" cy="1031.9141" fill="#000000" rx="3" ry="3" style="stroke:#000000;stroke-width:1;"/><text fill="#000000" font-family="sans-serif" font-size="14" lengthAdjust="spacing" textLength="122.9307" x="993.5" y="1036.1426">id : INTEGER &#171;PK&#187;</text><line style="stroke:#181818;stroke-width:1;" x1="974.5" x2="1303.9844" y1="1043.2188" y2="1043.2188"/><text fill="#000000" font-family="sans-serif" font-size="14" lengthAdjust="spacing" textLength="319.4844" x="979.5" y="1061.752">attendance_id : BIGINT &#171;FK&#8594;attendance_records&#187;</text><text fill="#000000" font-family="sans-serif" font-size="14" lengthAdjust="spacing" textLength="230.7402" x="979.5" y="1079.3613">employee_id : INT &#171;FK&#8594;employees&#187;</text><text fill="#000000" font-family="sans-serif" font-size="14" lengthAdjust="spacing" textLength="267.3398" x="979.5" y="1096.9707">device_id : INT &#171;FK&#8594;attendance_devices&#187;</text><text fill="#000000" font-family="sans-serif" font-size="14" lengthAdjust="spacing" textLength="135.3652" x="979.5" y="1114.5801">log_time : DATETIME</text><text fill="#000000" font-family="sans-serif" font-size="14" lengthAdjust="spacing" textLength="100.3789" x="979.5" y="1132.1895">log_type : TEXT</text><text fill="#000000" font-family="sans-serif" font-size="14" lengthAdjust="spacing" textLength="251.7744" x="979.5" y="1149.7988">matched_face_id : INT &#171;FK&#8594;face_data&#187;</text><text fill="#000000" font-family="sans-serif" font-size="14" lengthAdjust="spacing" textLength="115.958" x="979.5" y="1167.4082">confidence : REAL</text><text fill="#000000" font-family="sans-serif" font-size="14" lengthAdjust="spacing" textLength="134.6338" x="979.5" y="1185.0176">face_distance : REAL</text><text fill="#000000" font-family="sans-serif" font-size="14" lengthAdjust="spacing" textLength="81.6826" x="979.5" y="1202.627">result : TEXT</text></g><!--class LVE--><g id="elem_LVE"><rect codeLine="154" fill="#F1F1F1" height="188.875" id="LVE" rx="2.5" ry="2.5" style="stroke:#181818;stroke-width:0.5;" width="244.3057" x="589" y="675.1094"/><ellipse cx="659.4272" cy="691.1094" fill="#ADD1B2" rx="11" ry="11" style="stroke:#181818;stroke-width:1;"/><path d="M658.2866,691.9063 L658.2866,694.4063 L662.6147,694.4063 L662.6147,693.4844 Q662.6147,692.875 662.8491,692.6094 Q663.0991,692.3438 663.4741,692.3438 Q663.8491,692.3438 664.0835,692.6094 Q664.3179,692.875 664.3179,693.4844 L664.3179,696.1094 L656.3179,696.1094 Q655.6929,696.1094 655.4272,695.875 Q655.1772,695.6406 655.1772,695.25 Q655.1772,694.875 655.4429,694.6406 Q655.7085,694.4063 656.3179,694.4063 L656.5835,694.4063 L656.5835,687.75 L656.3179,687.75 Q655.6929,687.75 655.4272,687.5156 Q655.1772,687.2813 655.1772,686.8906 Q655.1772,686.5156 655.4272,686.2813 Q655.6929,686.0469 656.3179,686.0469 L663.9429,686.0469 L663.9429,688.6406 Q663.9429,689.25 663.7085,689.5156 Q663.4897,689.7656 663.0991,689.7656 Q662.7241,689.7656 662.4897,689.5156 Q662.2554,689.25 662.2554,688.6406 L662.2554,687.75 L658.2866,687.75 L658.2866,690.2031 L659.771,690.2031 Q659.771,689.5469 659.896,689.3594 Q660.1616,688.9531 660.6304,688.9531 Q661.0054,688.9531 661.2397,689.2188 Q661.4741,689.4688 661.4741,690.0781 L661.4741,692.0469 Q661.4741,692.5938 661.3491,692.7813 Q661.0835,693.1719 660.6304,693.1719 Q660.1616,693.1719 659.896,692.7656 Q659.771,692.5781 659.771,691.9063 L658.2866,691.9063 Z " fill="#000000"/><text fill="#000000" font-family="sans-serif" font-size="14" lengthAdjust="spacing" textLength="94.9512" x="679.9272" y="696.8379">leave_requests</text><line style="stroke:#181818;stroke-width:0.5;" x1="590" x2="832.3057" y1="707.1094" y2="707.1094"/><ellipse cx="600" cy="721.4141" fill="#000000" rx="3" ry="3" style="stroke:#000000;stroke-width:1;"/><text fill="#000000" font-family="sans-serif" font-size="14" lengthAdjust="spacing" textLength="122.9307" x="609" y="725.6426">id : INTEGER &#171;PK&#187;</text><line style="stroke:#181818;stroke-width:1;" x1="590" x2="832.3057" y1="732.7188" y2="732.7188"/><text fill="#000000" font-family="sans-serif" font-size="14" lengthAdjust="spacing" textLength="230.7402" x="595" y="751.252">employee_id : INT &#171;FK&#8594;employees&#187;</text><text fill="#000000" font-family="sans-serif" font-size="14" lengthAdjust="spacing" textLength="115.165" x="595" y="768.8613">leave_type : TEXT</text><text fill="#000000" font-family="sans-serif" font-size="14" lengthAdjust="spacing" textLength="109.71" x="595" y="786.4707">start_date : TEXT</text><text fill="#000000" font-family="sans-serif" font-size="14" lengthAdjust="spacing" textLength="105.8408" x="595" y="804.0801">end_date : TEXT</text><text fill="#000000" font-family="sans-serif" font-size="14" lengthAdjust="spacing" textLength="112.0615" x="595" y="821.6895">total_days : REAL</text><text fill="#000000" font-family="sans-serif" font-size="14" lengthAdjust="spacing" textLength="84.7998" x="595" y="839.2988">status : TEXT</text><text fill="#000000" font-family="sans-serif" font-size="14" lengthAdjust="spacing" textLength="232.3057" x="595" y="856.9082">approved_by : INT &#171;FK&#8594;employees&#187;</text></g><!--class AUD--><g id="elem_AUD"><rect codeLine="167" fill="#F1F1F1" height="153.6563" id="AUD" rx="2.5" ry="2.5" style="stroke:#181818;stroke-width:0.5;" width="175.8027" x="53" y="1020.6094"/><ellipse cx="104.7378" cy="1036.6094" fill="#ADD1B2" rx="11" ry="11" style="stroke:#181818;stroke-width:1;"/><path d="M103.5972,1037.4063 L103.5972,1039.9063 L107.9253,1039.9063 L107.9253,1038.9844 Q107.9253,1038.375 108.1597,1038.1094 Q108.4097,1037.8438 108.7847,1037.8438 Q109.1597,1037.8438 109.394,1038.1094 Q109.6284,1038.375 109.6284,1038.9844 L109.6284,1041.6094 L101.6284,1041.6094 Q101.0034,1041.6094 100.7378,1041.375 Q100.4878,1041.1406 100.4878,1040.75 Q100.4878,1040.375 100.7534,1040.1406 Q101.019,1039.9063 101.6284,1039.9063 L101.894,1039.9063 L101.894,1033.25 L101.6284,1033.25 Q101.0034,1033.25 100.7378,1033.0156 Q100.4878,1032.7813 100.4878,1032.3906 Q100.4878,1032.0156 100.7378,1031.7813 Q101.0034,1031.5469 101.6284,1031.5469 L109.2534,1031.5469 L109.2534,1034.1406 Q109.2534,1034.75 109.019,1035.0156 Q108.8003,1035.2656 108.4097,1035.2656 Q108.0347,1035.2656 107.8003,1035.0156 Q107.5659,1034.75 107.5659,1034.1406 L107.5659,1033.25 L103.5972,1033.25 L103.5972,1035.7031 L105.0815,1035.7031 Q105.0815,1035.0469 105.2065,1034.8594 Q105.4722,1034.4531 105.9409,1034.4531 Q106.3159,1034.4531 106.5503,1034.7188 Q106.7847,1034.9688 106.7847,1035.5781 L106.7847,1037.5469 Q106.7847,1038.0938 106.6597,1038.2813 Q106.394,1038.6719 105.9409,1038.6719 Q105.4722,1038.6719 105.2065,1038.2656 Q105.0815,1038.0781 105.0815,1037.4063 L103.5972,1037.4063 Z " fill="#000000"/><text fill="#000000" font-family="sans-serif" font-size="14" lengthAdjust="spacing" textLength="63.8271" x="125.2378" y="1042.3379">audit_logs</text><line style="stroke:#181818;stroke-width:0.5;" x1="54" x2="227.8027" y1="1052.6094" y2="1052.6094"/><ellipse cx="64" cy="1066.9141" fill="#000000" rx="3" ry="3" style="stroke:#000000;stroke-width:1;"/><text fill="#000000" font-family="sans-serif" font-size="14" lengthAdjust="spacing" textLength="122.9307" x="73" y="1071.1426">id : INTEGER &#171;PK&#187;</text><line style="stroke:#181818;stroke-width:1;" x1="54" x2="227.8027" y1="1078.2188" y2="1078.2188"/><text fill="#000000" font-family="sans-serif" font-size="14" lengthAdjust="spacing" textLength="163.8027" x="59" y="1096.752">user_id : INT &#171;FK&#8594;users&#187;</text><text fill="#000000" font-family="sans-serif" font-size="14" lengthAdjust="spacing" textLength="84.8066" x="59" y="1114.3613">action : TEXT</text><text fill="#000000" font-family="sans-serif" font-size="14" lengthAdjust="spacing" textLength="120.6133" x="59" y="1131.9707">table_name : TEXT</text><text fill="#000000" font-family="sans-serif" font-size="14" lengthAdjust="spacing" textLength="114.3857" x="59" y="1149.5801">old_values : TEXT</text><text fill="#000000" font-family="sans-serif" font-size="14" lengthAdjust="spacing" textLength="121.3857" x="59" y="1167.1895">new_values : TEXT</text></g><!--class CFG--><g id="elem_CFG"><rect codeLine="177" fill="#F1F1F1" height="118.4375" id="CFG" rx="2.5" ry="2.5" style="stroke:#181818;stroke-width:0.5;" width="148.9307" x="1426.5" y="89.6094"/><ellipse cx="1448.9514" cy="105.6094" fill="#ADD1B2" rx="11" ry="11" style="stroke:#181818;stroke-width:1;"/><path d="M1447.8107,106.4063 L1447.8107,108.9063 L1452.1389,108.9063 L1452.1389,107.9844 Q1452.1389,107.375 1452.3732,107.1094 Q1452.6232,106.8438 1452.9982,106.8438 Q1453.3732,106.8438 1453.6076,107.1094 Q1453.842,107.375 1453.842,107.9844 L1453.842,110.6094 L1445.842,110.6094 Q1445.217,110.6094 1444.9514,110.375 Q1444.7014,110.1406 1444.7014,109.75 Q1444.7014,109.375 1444.967,109.1406 Q1445.2326,108.9063 1445.842,108.9063 L1446.1076,108.9063 L1446.1076,102.25 L1445.842,102.25 Q1445.217,102.25 1444.9514,102.0156 Q1444.7014,101.7813 1444.7014,101.3906 Q1444.7014,101.0156 1444.9514,100.7813 Q1445.217,100.5469 1445.842,100.5469 L1453.467,100.5469 L1453.467,103.1406 Q1453.467,103.75 1453.2326,104.0156 Q1453.0139,104.2656 1452.6232,104.2656 Q1452.2482,104.2656 1452.0139,104.0156 Q1451.7795,103.75 1451.7795,103.1406 L1451.7795,102.25 L1447.8107,102.25 L1447.8107,104.7031 L1449.2951,104.7031 Q1449.2951,104.0469 1449.4201,103.8594 Q1449.6857,103.4531 1450.1545,103.4531 Q1450.5295,103.4531 1450.7639,103.7188 Q1450.9982,103.9688 1450.9982,104.5781 L1450.9982,106.5469 Q1450.9982,107.0938 1450.8732,107.2813 Q1450.6076,107.6719 1450.1545,107.6719 Q1449.6857,107.6719 1449.4201,107.2656 Q1449.2951,107.0781 1449.2951,106.4063 L1447.8107,106.4063 Z " fill="#000000"/><text fill="#000000" font-family="sans-serif" font-size="14" lengthAdjust="spacing" textLength="100.3721" x="1464.6072" y="111.3379">system_settings</text><line style="stroke:#181818;stroke-width:0.5;" x1="1427.5" x2="1574.4307" y1="121.6094" y2="121.6094"/><ellipse cx="1437.5" cy="135.9141" fill="#000000" rx="3" ry="3" style="stroke:#000000;stroke-width:1;"/><text fill="#000000" font-family="sans-serif" font-size="14" lengthAdjust="spacing" textLength="122.9307" x="1446.5" y="140.1426">id : INTEGER &#171;PK&#187;</text><line style="stroke:#181818;stroke-width:1;" x1="1427.5" x2="1574.4307" y1="147.2188" y2="147.2188"/><text fill="#000000" font-family="sans-serif" font-size="14" lengthAdjust="spacing" textLength="109.6963" x="1432.5" y="165.752">key : TEXT &#171;UQ&#187;</text><text fill="#000000" font-family="sans-serif" font-size="14" lengthAdjust="spacing" textLength="80.917" x="1432.5" y="183.3613">value : TEXT</text><text fill="#000000" font-family="sans-serif" font-size="14" lengthAdjust="spacing" textLength="101.1445" x="1432.5" y="200.9707">category : TEXT</text></g><!--link DEPT to EMP--><g id="link_DEPT_EMP"><path codeLine="186" d="M865,233.8394 C865,260.2794 865,264.5394 865,293.5994 " fill="none" id="DEPT-EMP" style="stroke:#181818;stroke-width:1;"/><line style="stroke:#181818;stroke-width:1;" x1="861" x2="869" y1="229.8394" y2="229.8394"/><line style="stroke:#181818;stroke-width:1;" x1="861" x2="869" y1="232.8394" y2="232.8394"/><line style="stroke:#181818;stroke-width:1;" x1="865" x2="865" y1="233.8394" y2="225.8394"/><line style="stroke:#181818;stroke-width:1;" x1="865" x2="871" y1="303.5994" y2="311.5994"/><line style="stroke:#181818;stroke-width:1;" x1="865" x2="859" y1="303.5994" y2="311.5994"/><line style="stroke:#181818;stroke-width:1;" x1="865" x2="865" y1="303.5994" y2="311.5994"/><ellipse cx="865" cy="297.5994" fill="none" rx="4" ry="4" style="stroke:#181818;stroke-width:1;"/><text fill="#000000" font-family="sans-serif" font-size="13" lengthAdjust="spacing" textLength="48.4072" x="816" y="265.2145">employs</text></g><!--link POS to EMP--><g id="link_POS_EMP"><path codeLine="187" d="M719.58,148.6094 C735.69,148.6094 740,148.6094 740,148.6094 C740,148.6094 740,216.1494 740,293.3394 " fill="none" id="POS-EMP" style="stroke:#181818;stroke-width:1;"/><line style="stroke:#181818;stroke-width:1;" x1="715.58" x2="715.58" y1="152.6094" y2="144.6094"/><line style="stroke:#181818;stroke-width:1;" x1="718.58" x2="718.58" y1="152.6094" y2="144.6094"/><line style="stroke:#181818;stroke-width:1;" x1="719.58" x2="711.58" y1="148.6094" y2="148.6094"/><line style="stroke:#181818;stroke-width:1;" x1="740" x2="746" y1="303.3394" y2="311.3394"/><line style="stroke:#181818;stroke-width:1;" x1="740" x2="734" y1="303.3394" y2="311.3394"/><line style="stroke:#181818;stroke-width:1;" x1="740" x2="740" y1="303.3394" y2="311.3394"/><ellipse cx="740" cy="297.3394" fill="none" rx="4" ry="4" style="stroke:#181818;stroke-width:1;"/><text fill="#000000" font-family="sans-serif" font-size="13" lengthAdjust="spacing" textLength="31.0781" x="708" y="230.2645">holds</text></g><!--link SHIFT to EMP--><g id="link_SHIFT_EMP"><path codeLine="188" d="M1010.84,238.6094 C994.16,238.6094 990,238.6094 990,238.6094 C990,238.6094 990,254.1894 990,293.3994 " fill="none" id="SHIFT-EMP" style="stroke:#181818;stroke-width:1;"/><line style="stroke:#181818;stroke-width:1;" x1="1014.84" x2="1014.84" y1="234.6094" y2="242.6094"/><line style="stroke:#181818;stroke-width:1;" x1="1011.84" x2="1011.84" y1="234.6094" y2="242.6094"/><line style="stroke:#181818;stroke-width:1;" x1="1010.84" x2="1018.84" y1="238.6094" y2="238.6094"/><line style="stroke:#181818;stroke-width:1;" x1="990" x2="996" y1="303.3994" y2="311.3994"/><line style="stroke:#181818;stroke-width:1;" x1="990" x2="984" y1="303.3994" y2="311.3994"/><line style="stroke:#181818;stroke-width:1;" x1="990" x2="990" y1="303.3994" y2="311.3994"/><ellipse cx="990" cy="297.3994" fill="none" rx="4" ry="4" style="stroke:#181818;stroke-width:1;"/><text fill="#000000" font-family="sans-serif" font-size="13" lengthAdjust="spacing" textLength="66.4854" x="923" y="257.0845">default shift</text></g><!--link EMP to FACE--><g id="link_EMP_FACE"><path codeLine="189" d="M766.67,561.8594 C766.67,621.0194 766.67,671.6094 766.67,671.6094 C766.67,671.6094 667.46,671.6094 571.77,671.6094 " fill="none" id="EMP-FACE" style="stroke:#181818;stroke-width:1;"/><line style="stroke:#181818;stroke-width:1;" x1="762.67" x2="770.67" y1="557.8594" y2="557.8594"/><line style="stroke:#181818;stroke-width:1;" x1="762.67" x2="770.67" y1="560.8594" y2="560.8594"/><line style="stroke:#181818;stroke-width:1;" x1="766.67" x2="766.67" y1="561.8594" y2="553.8594"/><line style="stroke:#181818;stroke-width:1;" x1="561.77" x2="553.77" y1="671.6094" y2="677.6094"/><line style="stroke:#181818;stroke-width:1;" x1="561.77" x2="553.77" y1="671.6094" y2="665.6094"/><line style="stroke:#181818;stroke-width:1;" x1="561.77" x2="553.77" y1="671.6094" y2="671.6094"/><ellipse cx="567.77" cy="671.6094" fill="none" rx="4" ry="4" style="stroke:#181818;stroke-width:1;"/><text fill="#000000" font-family="sans-serif" font-size="13" lengthAdjust="spacing" textLength="20.96" x="698.09" y="668.1045">has</text></g><!--link EMP to USR--><g id="link_EMP_USR"><path codeLine="190" d="M725.47,432.6094 C516.74,432.6094 141,432.6094 141,432.6094 C141,432.6094 141,565.8494 141,665.6994 " fill="none" id="EMP-USR" style="stroke:#181818;stroke-width:1;"/><line style="stroke:#181818;stroke-width:1;" x1="729.47" x2="729.47" y1="428.6094" y2="436.6094"/><line style="stroke:#181818;stroke-width:1;" x1="726.47" x2="726.47" y1="428.6094" y2="436.6094"/><line style="stroke:#181818;stroke-width:1;" x1="725.47" x2="733.47" y1="432.6094" y2="432.6094"/><line style="stroke:#181818;stroke-width:1;" x1="141" x2="147" y1="675.6994" y2="683.6994"/><line style="stroke:#181818;stroke-width:1;" x1="141" x2="135" y1="675.6994" y2="683.6994"/><line style="stroke:#181818;stroke-width:1;" x1="141" x2="141" y1="675.6994" y2="683.6994"/><ellipse cx="141" cy="669.6994" fill="none" rx="4" ry="4" style="stroke:#181818;stroke-width:1;"/><text fill="#000000" font-family="sans-serif" font-size="13" lengthAdjust="spacing" textLength="70.1035" x="240.69" y="429.1045">has account</text></g><!--link FACE to FRLOG--><g id="link_FACE_FRLOG"><path codeLine="191" d="M432,880.9394 C432,932.0194 432,966.2294 432,1011.4594 " fill="none" id="FACE-FRLOG" style="stroke:#181818;stroke-width:1;"/><line style="stroke:#181818;stroke-width:1;" x1="428" x2="436" y1="876.9394" y2="876.9394"/><line style="stroke:#181818;stroke-width:1;" x1="428" x2="436" y1="879.9394" y2="879.9394"/><line style="stroke:#181818;stroke-width:1;" x1="432" x2="432" y1="880.9394" y2="872.9394"/><line style="stroke:#181818;stroke-width:1;" x1="432" x2="438" y1="1021.4594" y2="1029.4594"/><line style="stroke:#181818;stroke-width:1;" x1="432" x2="426" y1="1021.4594" y2="1029.4594"/><line style="stroke:#181818;stroke-width:1;" x1="432" x2="432" y1="1021.4594" y2="1029.4594"/><ellipse cx="432" cy="1015.4594" fill="none" rx="4" ry="4" style="stroke:#181818;stroke-width:1;"/><text fill="#000000" font-family="sans-serif" font-size="13" lengthAdjust="spacing" textLength="56.3799" x="375" y="947.6945">logged by</text></g><!--link EMP to ATT--><g id="link_EMP_ATT"><path codeLine="192" d="M1004.55,536.6094 C1107.67,536.6094 1225.83,536.6094 1225.83,536.6094 C1225.83,536.6094 1225.83,553.0994 1225.83,595.5494 " fill="none" id="EMP-ATT" style="stroke:#181818;stroke-width:1;"/><line style="stroke:#181818;stroke-width:1;" x1="1000.55" x2="1000.55" y1="540.6094" y2="532.6094"/><line style="stroke:#181818;stroke-width:1;" x1="1003.55" x2="1003.55" y1="540.6094" y2="532.6094"/><line style="stroke:#181818;stroke-width:1;" x1="1004.55" x2="996.55" y1="536.6094" y2="536.6094"/><line style="stroke:#181818;stroke-width:1;" x1="1225.83" x2="1231.83" y1="605.5494" y2="613.5494"/><line style="stroke:#181818;stroke-width:1;" x1="1225.83" x2="1219.83" y1="605.5494" y2="613.5494"/><line style="stroke:#181818;stroke-width:1;" x1="1225.83" x2="1225.83" y1="605.5494" y2="613.5494"/><ellipse cx="1225.83" cy="599.5494" fill="none" rx="4" ry="4" style="stroke:#181818;stroke-width:1;"/><text fill="#000000" font-family="sans-serif" font-size="13" lengthAdjust="spacing" textLength="43.3481" x="1105.66" y="533.1045">records</text></g><!--link SHIFT to ATT--><g id="link_SHIFT_ATT"><path codeLine="193" d="M1215.28,234.6094 C1230.92,234.6094 1234.17,234.6094 1234.17,234.6094 C1234.17,234.6094 1234.17,437.5194 1234.17,595.4294 " fill="none" id="SHIFT-ATT" style="stroke:#181818;stroke-width:1;"/><line style="stroke:#181818;stroke-width:1;" x1="1211.28" x2="1211.28" y1="238.6094" y2="230.6094"/><line style="stroke:#181818;stroke-width:1;" x1="1214.28" x2="1214.28" y1="238.6094" y2="230.6094"/><line style="stroke:#181818;stroke-width:1;" x1="1215.28" x2="1207.28" y1="234.6094" y2="234.6094"/><line style="stroke:#181818;stroke-width:1;" x1="1234.17" x2="1240.17" y1="605.4294" y2="613.4294"/><line style="stroke:#181818;stroke-width:1;" x1="1234.17" x2="1228.17" y1="605.4294" y2="613.4294"/><line style="stroke:#181818;stroke-width:1;" x1="1234.17" x2="1234.17" y1="605.4294" y2="613.4294"/><ellipse cx="1234.17" cy="599.4294" fill="none" rx="4" ry="4" style="stroke:#181818;stroke-width:1;"/><text fill="#000000" font-family="sans-serif" font-size="13" lengthAdjust="spacing" textLength="56.3799" x="1177.17" y="407.0645">applied to</text></g><!--link DEV to ATT--><g id="link_DEV_ATT"><path codeLine="194" d="M1493,526.5194 C1493,555.4794 1493,562.7594 1493,595.4294 " fill="none" id="DEV-ATT" style="stroke:#181818;stroke-width:1;"/><line style="stroke:#181818;stroke-width:1;" x1="1489" x2="1497" y1="522.5194" y2="522.5194"/><line style="stroke:#181818;stroke-width:1;" x1="1489" x2="1497" y1="525.5194" y2="525.5194"/><line style="stroke:#181818;stroke-width:1;" x1="1493" x2="1493" y1="526.5194" y2="518.5194"/><line style="stroke:#181818;stroke-width:1;" x1="1493" x2="1499" y1="605.4294" y2="613.4294"/><line style="stroke:#181818;stroke-width:1;" x1="1493" x2="1487" y1="605.4294" y2="613.4294"/><line style="stroke:#181818;stroke-width:1;" x1="1493" x2="1493" y1="605.4294" y2="613.4294"/><ellipse cx="1493" cy="599.4294" fill="none" rx="4" ry="4" style="stroke:#181818;stroke-width:1;"/><text fill="#000000" font-family="sans-serif" font-size="13" lengthAdjust="spacing" textLength="89.5972" x="1403" y="562.4645">check-in device</text></g><!--link ATT to ALOG--><g id="link_ATT_ALOG"><path codeLine="195" d="M1261,933.9294 C1261,954.0494 1261,948.3394 1261,967.5594 " fill="none" id="ATT-ALOG" style="stroke:#181818;stroke-width:1;"/><line style="stroke:#181818;stroke-width:1;" x1="1257" x2="1265" y1="929.9294" y2="929.9294"/><line style="stroke:#181818;stroke-width:1;" x1="1257" x2="1265" y1="932.9294" y2="932.9294"/><line style="stroke:#181818;stroke-width:1;" x1="1261" x2="1261" y1="933.9294" y2="925.9294"/><line style="stroke:#181818;stroke-width:1;" x1="1261" x2="1267" y1="977.5594" y2="985.5594"/><line style="stroke:#181818;stroke-width:1;" x1="1261" x2="1255" y1="977.5594" y2="985.5594"/><line style="stroke:#181818;stroke-width:1;" x1="1261" x2="1261" y1="977.5594" y2="985.5594"/><ellipse cx="1261" cy="971.5594" fill="none" rx="4" ry="4" style="stroke:#181818;stroke-width:1;"/><text fill="#000000" font-family="sans-serif" font-size="13" lengthAdjust="spacing" textLength="48.4199" x="1212" y="952.2345">has logs</text></g><!--link EMP to ALOG--><g id="link_EMP_ALOG"><path codeLine="196" d="M886.25,561.6994 C886.25,729.3194 886.25,1003.6094 886.25,1003.6094 C886.25,1003.6094 907.59,1003.6094 955.23,1003.6094 " fill="none" id="EMP-ALOG" style="stroke:#181818;stroke-width:1;"/><line style="stroke:#181818;stroke-width:1;" x1="882.25" x2="890.25" y1="557.6994" y2="557.6994"/><line style="stroke:#181818;stroke-width:1;" x1="882.25" x2="890.25" y1="560.6994" y2="560.6994"/><line style="stroke:#181818;stroke-width:1;" x1="886.25" x2="886.25" y1="561.6994" y2="553.6994"/><line style="stroke:#181818;stroke-width:1;" x1="965.23" x2="973.23" y1="1003.6094" y2="997.6094"/><line style="stroke:#181818;stroke-width:1;" x1="965.23" x2="973.23" y1="1003.6094" y2="1009.6094"/><line style="stroke:#181818;stroke-width:1;" x1="965.23" x2="973.23" y1="1003.6094" y2="1003.6094"/><ellipse cx="959.23" cy="1003.6094" fill="none" rx="4" ry="4" style="stroke:#181818;stroke-width:1;"/><text fill="#000000" font-family="sans-serif" font-size="13" lengthAdjust="spacing" textLength="68.6499" x="869.75" y="836.6445">triggered by</text></g><!--link DEV to ALOG--><g id="link_DEV_ALOG"><path codeLine="197" d="M1409.36,432.6094 C1322.65,432.6094 1212.25,432.6094 1212.25,432.6094 C1212.25,432.6094 1212.25,778.0294 1212.25,967.5494 " fill="none" id="DEV-ALOG" style="stroke:#181818;stroke-width:1;"/><line style="stroke:#181818;stroke-width:1;" x1="1413.36" x2="1413.36" y1="428.6094" y2="436.6094"/><line style="stroke:#181818;stroke-width:1;" x1="1410.36" x2="1410.36" y1="428.6094" y2="436.6094"/><line style="stroke:#181818;stroke-width:1;" x1="1409.36" x2="1417.36" y1="432.6094" y2="432.6094"/><line style="stroke:#181818;stroke-width:1;" x1="1212.25" x2="1218.25" y1="977.5494" y2="985.5494"/><line style="stroke:#181818;stroke-width:1;" x1="1212.25" x2="1206.25" y1="977.5494" y2="985.5494"/><line style="stroke:#181818;stroke-width:1;" x1="1212.25" x2="1212.25" y1="977.5494" y2="985.5494"/><ellipse cx="1212.25" cy="971.5494" fill="none" rx="4" ry="4" style="stroke:#181818;stroke-width:1;"/><text fill="#000000" font-family="sans-serif" font-size="13" lengthAdjust="spacing" textLength="67.1899" x="1144.25" y="603.0145">from device</text></g><!--link FACE to ALOG--><g id="link_FACE_ALOG"><path codeLine="198" d="M561.51,868.6094 C748.64,868.6094 1078,868.6094 1078,868.6094 C1078,868.6094 1078,909.4394 1078,967.4594 " fill="none" id="FACE-ALOG" style="stroke:#181818;stroke-width:1;"/><line style="stroke:#181818;stroke-width:1;" x1="557.51" x2="557.51" y1="872.6094" y2="864.6094"/><line style="stroke:#181818;stroke-width:1;" x1="560.51" x2="560.51" y1="872.6094" y2="864.6094"/><line style="stroke:#181818;stroke-width:1;" x1="561.51" x2="553.51" y1="868.6094" y2="868.6094"/><line style="stroke:#181818;stroke-width:1;" x1="1078" x2="1084" y1="977.4594" y2="985.4594"/><line style="stroke:#181818;stroke-width:1;" x1="1078" x2="1072" y1="977.4594" y2="985.4594"/><line style="stroke:#181818;stroke-width:1;" x1="1078" x2="1078" y1="977.4594" y2="985.4594"/><ellipse cx="1078" cy="971.4594" fill="none" rx="4" ry="4" style="stroke:#181818;stroke-width:1;"/><text fill="#000000" font-family="sans-serif" font-size="13" lengthAdjust="spacing" textLength="78.0444" x="795.18" y="883.1045">matched face</text></g><!--link EMP to LVE--><g id="link_EMP_LVE"><path codeLine="199" d="M799.83,561.7994 C799.83,601.7094 799.83,619.4694 799.83,657.0994 " fill="none" id="EMP-LVE" style="stroke:#181818;stroke-width:1;"/><line style="stroke:#181818;stroke-width:1;" x1="795.83" x2="803.83" y1="557.7994" y2="557.7994"/><line style="stroke:#181818;stroke-width:1;" x1="795.83" x2="803.83" y1="560.7994" y2="560.7994"/><line style="stroke:#181818;stroke-width:1;" x1="799.83" x2="799.83" y1="561.7994" y2="553.7994"/><line style="stroke:#181818;stroke-width:1;" x1="799.83" x2="805.83" y1="667.0994" y2="675.0994"/><line style="stroke:#181818;stroke-width:1;" x1="799.83" x2="793.83" y1="667.0994" y2="675.0994"/><line style="stroke:#181818;stroke-width:1;" x1="799.83" x2="799.83" y1="667.0994" y2="675.0994"/><ellipse cx="799.83" cy="661.0994" fill="none" rx="4" ry="4" style="stroke:#181818;stroke-width:1;"/><text fill="#000000" font-family="sans-serif" font-size="13" lengthAdjust="spacing" textLength="49.8608" x="749.83" y="610.9445">requests</text></g><!--link EMP to SCHED--><g id="link_EMP_SCHED"><path codeLine="200" d="M968,561.7994 C968,611.4294 968,641.0094 968,683.3394 " fill="none" id="EMP-SCHED" style="stroke:#181818;stroke-width:1;"/><line style="stroke:#181818;stroke-width:1;" x1="964" x2="972" y1="557.7994" y2="557.7994"/><line style="stroke:#181818;stroke-width:1;" x1="964" x2="972" y1="560.7994" y2="560.7994"/><line style="stroke:#181818;stroke-width:1;" x1="968" x2="968" y1="561.7994" y2="553.7994"/><line style="stroke:#181818;stroke-width:1;" x1="968" x2="974" y1="693.3394" y2="701.3394"/><line style="stroke:#181818;stroke-width:1;" x1="968" x2="962" y1="693.3394" y2="701.3394"/><line style="stroke:#181818;stroke-width:1;" x1="968" x2="968" y1="693.3394" y2="701.3394"/><ellipse cx="968" cy="687.3394" fill="none" rx="4" ry="4" style="stroke:#181818;stroke-width:1;"/><text fill="#000000" font-family="sans-serif" font-size="13" lengthAdjust="spacing" textLength="59.2681" x="908" y="624.0645">scheduled</text></g><!--link SHIFT to SCHED--><g id="link_SHIFT_SCHED"><path codeLine="201" d="M1100.75,259.8494 C1100.75,387.2894 1100.75,574.4494 1100.75,683.2294 " fill="none" id="SHIFT-SCHED" style="stroke:#181818;stroke-width:1;"/><line style="stroke:#181818;stroke-width:1;" x1="1096.75" x2="1104.75" y1="255.8494" y2="255.8494"/><line style="stroke:#181818;stroke-width:1;" x1="1096.75" x2="1104.75" y1="258.8494" y2="258.8494"/><line style="stroke:#181818;stroke-width:1;" x1="1100.75" x2="1100.75" y1="259.8494" y2="251.8494"/><line style="stroke:#181818;stroke-width:1;" x1="1100.75" x2="1106.75" y1="693.2294" y2="701.2294"/><line style="stroke:#181818;stroke-width:1;" x1="1100.75" x2="1094.75" y1="693.2294" y2="701.2294"/><line style="stroke:#181818;stroke-width:1;" x1="1100.75" x2="1100.75" y1="693.2294" y2="701.2294"/><ellipse cx="1100.75" cy="687.2294" fill="none" rx="4" ry="4" style="stroke:#181818;stroke-width:1;"/><text fill="#000000" font-family="sans-serif" font-size="13" lengthAdjust="spacing" textLength="52.0381" x="1047.75" y="473.0345">assigned</text></g><!--link USR to AUD--><g id="link_USR_AUD"><path codeLine="202" d="M141,863.3594 C141,914.5094 141,952.9294 141,1002.4794 " fill="none" id="USR-AUD" style="stroke:#181818;stroke-width:1;"/><line style="stroke:#181818;stroke-width:1;" x1="137" x2="145" y1="859.3594" y2="859.3594"/><line style="stroke:#181818;stroke-width:1;" x1="137" x2="145" y1="862.3594" y2="862.3594"/><line style="stroke:#181818;stroke-width:1;" x1="141" x2="141" y1="863.3594" y2="855.3594"/><line style="stroke:#181818;stroke-width:1;" x1="141" x2="147" y1="1012.4794" y2="1020.4794"/><line style="stroke:#181818;stroke-width:1;" x1="141" x2="135" y1="1012.4794" y2="1020.4794"/><line style="stroke:#181818;stroke-width:1;" x1="141" x2="141" y1="1012.4794" y2="1020.4794"/><ellipse cx="141" cy="1006.4794" fill="none" rx="4" ry="4" style="stroke:#181818;stroke-width:1;"/><text fill="#000000" font-family="sans-serif" font-size="13" lengthAdjust="spacing" textLength="59.249" x="81" y="934.4145">performed</text></g><!--SRC=[lLVDRXit4BxlKn0wz0_rgJSZ221BAzk8NBko7BId1RqxAn7YBXMIgrH80kJK1oZoX7wI3idzuVxKabibWc1OdE5mvfkFCqErOVcMIfeHpdBG-oqG8VLQ1AeMGAwPtfCF0I4NDDwif2ZoP2Aua6JELclz1t0ktXkfa0b89vbIkRaKF85y8PBWKu0cE91mCILFdx-G6Os1ZBM6FA4v_ZkbcZvI1UI752KHhINHxfSVW-1xylJbCtx99Pwz9UDpCi4DNApAzQ_t3ShWHmaW63h3dsf4g2BJy6vf8Vc9i8ISa-jVb-5bk22lNjszUVqQry_Ey4yi4a3XClnzYPA7twmafrcrYB_GB1gDAYEeDdlpzDVVtdbsKqPpkWBPquDioyKUm6an5T5Oinqq7Y7sTH1RePXc8dSXtDtUdoG23ZlW-FF-PZoVevN3VhmNSXEfDKjBCE-lhcUdGTCQZIoDcpMDI4QQ-Nf8hyxAemIwYJAM5nfKEnfEDKHwBK6jaT5j6L39zyF2JptYNfoJiCeN-SxTWfCpjMQ4XJQykVkFmAO5vr4RtOQK1_bQKQsdM7FGgYMGqe9hHuQUhiUJbrq2MqKah9ZI8C4B7CKqpmlA8mvq1r52zoRPYt0yHr6X81aK7E0pxfCExeVxnM6uZRe7R0FvbYg5CIVHcggrHzOol7-F- -VIW1JSIrTA6JS1YHNBenYhjkxmMiGRbECwC_TtEbw6o-kRq8_C0fbWiRNHpSQJy71uXzsrkf0ZxLY-Qlnb6MOtsbAzxgwnF84_syxJVEN7-WvpYXv7AXOIda-SNTs1P2bhKQCRjkEFf9R62ABBy6mnlxqy6GWrlZszMcBrJ10Yzxe6o5J83BFtk6_lirp4FVtgCy4Kmux5jlRSnsj82cxm_v_rnclMYJDVDiYtXr5o6wB1-bFAkXN8BhOBFFBO9QcjoxOHJH8ipAfPo-nDo5E6WqbSyyJBV9qtLv6KWmbScvfSXTEJfVwuacT_8mtyk9IfJf58qs7oOXzYfdnPdwzkvuSzBdTqpccZMUcqeTzZ_tk-vqtF_K7l6qng7XybO3L8713ZvV9agVCftuBik9mYf-8DrZI_vZQhvItgMUdVivQnA0CSsvF6brhGvtib58KUyW6NN-W4ZbYwyAwPdPW6PoatBmsA34nOZpnXFKnYupSz6nAcXpdl-LLNwl5HXThRQRKkhY-7uot9v7hNSJnv6OZeU3MJUYcngwqxbr5jgf8RSfvl6qEfTnhOsMXh6Uia3cBLAHwqRXwIyAu0LSxhyxUd6mES-Q69lNsrpCJUNj42tu2TGQrBHBhTIh4RQ9E-4_sY5I8nzpWxPb_zWTcgN0Nos-Flm_IuMRA7S3K3zES6V6RpRa_5Pqkqexm03xSStdVMF4Oe2qsaG6kyhyxPoUo8kxQ1VQ_DsrEygeKfNWcvzuwjSxC0RliybjAj-XQPQMN9llZny_7ZsPduO1zM-3clHWOr2io3Ub33l0nHxfwv0_Bo5UJQnoWe1PMUdRgT7QfwKlFYgAMORpldZu9oKst3Jgr62-crmh7tST-pP3gairJrpQx7ZGRUAswcPor6WPdq1itORdA6VSvLkL5GYcfDwrFbkkLzpwTQHKk6ZilIzUwPjLegHLQVrm6XqIfBgAs5lJDDTQjmA8jULyLDWaQb6X2J7bYD3hxgs2etAcMoQeVmXhkJwdb-5Fm3]--></g></svg>