<svg xmlns="http://www.w3.org/2000/svg" xmlns:xlink="http://www.w3.org/1999/xlink" contentStyleType="text/css" height="917px" preserveAspectRatio="none" style="width:1229px;height:917px;background:#FFFFFF;" version="1.1" viewBox="0 0 1229 917" width="1229px" zoomAndPan="magnify"><title>Sequence Diagram &#8212; Employee Face Check-In Flow</title><defs/><g><text fill="#000000" font-family="sans-serif" font-size="14" font-weight="bold" lengthAdjust="spacing" textLength="348.9883" x="441.1042" y="29.5332">Sequence Diagram &#8212; Employee Face Check-In Flow</text><rect fill="none" height="368.0547" style="stroke:#000000;stroke-width:1.5;" width="1212.1968" x="10" y="450.3828"/><line style="stroke:#A9A9A9;stroke-width:0.5;stroke-dasharray:5.0,5.0;" x1="54" x2="54" y1="121.2188" y2="835.4375"/><line style="stroke:#A9A9A9;stroke-width:0.5;stroke-dasharray:5.0,5.0;" x1="216.6304" x2="216.6304" y1="121.2188" y2="835.4375"/><line style="stroke:#A9A9A9;stroke-width:0.5;stroke-dasharray:5.0,5.0;" x1="374.7207" x2="374.7207" y1="121.2188" y2="835.4375"/><line style="stroke:#A9A9A9;stroke-width:0.5;stroke-dasharray:5.0,5.0;" x1="693.5532" x2="693.5532" y1="121.2188" y2="835.4375"/><line style="stroke:#A9A9A9;stroke-width:0.5;stroke-dasharray:5.0,5.0;" x1="917.917" x2="917.917" y1="121.2188" y2="835.4375"/><line style="stroke:#A9A9A9;stroke-width:0.5;stroke-dasharray:5.0,5.0;" x1="1176.0591" x2="1176.0591" y1="121.2188" y2="835.4375"/><text fill="#000000" font-family="sans-serif" font-size="14" lengthAdjust="spacing" textLength="62.2549" x="20" y="118.1426">Employee</text><ellipse cx="54.1274" cy="52.1094" fill="#90EE90" rx="8" ry="8" style="stroke:#181818;stroke-width:0.5;"/><path d="M54.1274,60.1094 L54.1274,87.1094 M41.1274,68.1094 L67.1274,68.1094 M54.1274,87.1094 L41.1274,102.1094 M54.1274,87.1094 L67.1274,102.1094 " fill="none" style="stroke:#181818;stroke-width:0.5;"/><text fill="#000000" font-family="sans-serif" font-size="14" lengthAdjust="spacing" textLength="62.2549" x="20" y="848.9707">Employee</text><ellipse cx="54.1274" cy="860.5469" fill="#90EE90" rx="8" ry="8" style="stroke:#181818;stroke-width:0.5;"/><path d="M54.1274,868.5469 L54.1274,895.5469 M41.1274,876.5469 L67.1274,876.5469 M54.1274,895.5469 L41.1274,910.5469 M54.1274,895.5469 L67.1274,910.5469 " fill="none" style="stroke:#181818;stroke-width:0.5;"/><rect fill="#ADD8E6" height="31.6094" rx="2.5" ry="2.5" style="stroke:#00008B;stroke-width:0.5;" width="110.4756" x="161.6304" y="88.6094"/><text fill="#000000" font-family="sans-serif" font-size="14" lengthAdjust="spacing" textLength="96.4756" x="168.6304" y="110.1426">Camera Device</text><rect fill="#ADD8E6" height="31.6094" rx="2.5" ry="2.5" style="stroke:#00008B;stroke-width:0.5;" width="110.4756" x="161.6304" y="834.4375"/><text fill="#000000" font-family="sans-serif" font-size="14" lengthAdjust="spacing" textLength="96.4756" x="168.6304" y="855.9707">Camera Device</text><rect fill="#ADD8E6" height="49.2188" rx="2.5" ry="2.5" style="stroke:#00008B;stroke-width:0.5;" width="105.0547" x="322.7207" y="71"/><text fill="#000000" font-family="sans-serif" font-size="14" lengthAdjust="spacing" textLength="91.0547" x="329.7207" y="92.5332">UCAttendance</text><text fill="#000000" font-family="sans-serif" font-size="14" lengthAdjust="spacing" textLength="23.3242" x="363.5859" y="110.1426">(UI)</text><rect fill="#ADD8E6" height="49.2188" rx="2.5" ry="2.5" style="stroke:#00008B;stroke-width:0.5;" width="105.0547" x="322.7207" y="834.4375"/><text fill="#000000" font-family="sans-serif" font-size="14" lengthAdjust="spacing" textLength="91.0547" x="329.7207" y="855.9707">UCAttendance</text><text fill="#000000" font-family="sans-serif" font-size="14" lengthAdjust="spacing" textLength="23.3242" x="363.5859" y="873.5801">(UI)</text><rect fill="#ADD8E6" height="49.2188" rx="2.5" ry="2.5" style="stroke:#00008B;stroke-width:0.5;" width="119.0615" x="634.5532" y="71"/><text fill="#000000" font-family="sans-serif" font-size="14" lengthAdjust="spacing" textLength="105.0615" x="641.5532" y="92.5332">FaceRecognition</text><text fill="#000000" font-family="sans-serif" font-size="14" lengthAdjust="spacing" textLength="46.6826" x="670.7427" y="110.1426">Service</text><rect fill="#ADD8E6" height="49.2188" rx="2.5" ry="2.5" style="stroke:#00008B;stroke-width:0.5;" width="119.0615" x="634.5532" y="834.4375"/><text fill="#000000" font-family="sans-serif" font-size="14" lengthAdjust="spacing" textLength="105.0615" x="641.5532" y="855.9707">FaceRecognition</text><text fill="#000000" font-family="sans-serif" font-size="14" lengthAdjust="spacing" textLength="46.6826" x="670.7427" y="873.5801">Service</text><rect fill="#ADD8E6" height="31.6094" rx="2.5" ry="2.5" style="stroke:#00008B;stroke-width:0.5;" width="80.917" x="877.917" y="88.6094"/><text fill="#000000" font-family="sans-serif" font-size="14" lengthAdjust="spacing" textLength="66.917" x="884.917" y="110.1426">Repository</text><rect fill="#ADD8E6" height="31.6094" rx="2.5" ry="2.5" style="stroke:#00008B;stroke-width:0.5;" width="80.917" x="877.917" y="834.4375"/><text fill="#000000" font-family="sans-serif" font-size="14" lengthAdjust="spacing" textLength="66.917" x="884.917" y="855.9707">Repository</text><text fill="#000000" font-family="sans-serif" font-size="14" lengthAdjust="spacing" textLength="66.1377" x="1140.0591" y="118.1426">SQLite DB</text><path d="M1158.1279,67.6094 C1158.1279,57.6094 1176.1279,57.6094 1176.1279,57.6094 C1176.1279,57.6094 1194.1279,57.6094 1194.1279,67.6094 L1194.1279,93.6094 C1194.1279,103.6094 1176.1279,103.6094 1176.1279,103.6094 C1176.1279,103.6094 1158.1279,103.6094 1158.1279,93.6094 L1158.1279,67.6094 " fill="#E2E2F0" style="stroke:#181818;stroke-width:1.5;"/><path d="M1158.1279,67.6094 C1158.1279,77.6094 1176.1279,77.6094 1176.1279,77.6094 C1176.1279,77.6094 1194.1279,77.6094 1194.1279,67.6094 " fill="none" style="stroke:#181818;stroke-width:1.5;"/><text fill="#000000" font-family="sans-serif" font-size="14" lengthAdjust="spacing" textLength="66.1377" x="1140.0591" y="848.9707">SQLite DB</text><path d="M1158.1279,862.0469 C1158.1279,852.0469 1176.1279,852.0469 1176.1279,852.0469 C1176.1279,852.0469 1194.1279,852.0469 1194.1279,862.0469 L1194.1279,888.0469 C1194.1279,898.0469 1176.1279,898.0469 1176.1279,898.0469 C1176.1279,898.0469 1158.1279,898.0469 1158.1279,888.0469 L1158.1279,862.0469 " fill="#E2E2F0" style="stroke:#181818;stroke-width:1.5;"/><path d="M1158.1279,862.0469 C1158.1279,872.0469 1176.1279,872.0469 1176.1279,872.0469 C1176.1279,872.0469 1194.1279,872.0469 1194.1279,862.0469 " fill="none" style="stroke:#181818;stroke-width:1.5;"/><polygon fill="#181818" points="204.8682,149.5703,214.8682,153.5703,204.8682,157.5703,208.8682,153.5703" style="stroke:#181818;stroke-width:1;"/><line style="stroke:#181818;stroke-width:2;" x1="54.1274" x2="210.8682" y1="153.5703" y2="153.5703"/><text fill="#000000" font-family="sans-serif" font-size="13" lengthAdjust="spacing" textLength="138.7407" x="61.1274" y="148.7139">Stand in front of camera</text><polygon fill="#181818" points="363.248,179.9219,373.248,183.9219,363.248,187.9219,367.248,183.9219" style="stroke:#181818;stroke-width:1;"/><line style="stroke:#181818;stroke-width:2;" x1="216.8682" x2="369.248" y1="183.9219" y2="183.9219"/><text fill="#000000" font-family="sans-serif" font-size="13" lengthAdjust="spacing" textLength="134.3799" x="223.8682" y="179.0654">Capture frame (bitmap)</text><polygon fill="#181818" points="682.084,210.2734,692.084,214.2734,682.084,218.2734,686.084,214.2734" style="stroke:#181818;stroke-width:1;"/><line style="stroke:#181818;stroke-width:2;" x1="375.248" x2="688.084" y1="214.2734" y2="214.2734"/><text fill="#000000" font-family="sans-serif" font-size="13" lengthAdjust="spacing" textLength="247.1206" x="382.248" y="209.417">RecognizeFaces(imagePath, faceDataList)</text><polygon fill="#181818" points="1164.1279,240.625,1174.1279,244.625,1164.1279,248.625,1168.1279,244.625" style="stroke:#181818;stroke-width:1;"/><line style="stroke:#181818;stroke-width:2;" x1="694.084" x2="1170.1279" y1="244.625" y2="244.625"/><text fill="#000000" font-family="sans-serif" font-size="13" lengthAdjust="spacing" textLength="190.0869" x="701.084" y="239.7686">Load active face_data encodings</text><polygon fill="#181818" points="705.084,270.9766,695.084,274.9766,705.084,278.9766,701.084,274.9766" style="stroke:#181818;stroke-width:1;"/><line style="stroke:#181818;stroke-width:2;stroke-dasharray:2.0,2.0;" x1="699.084" x2="1175.1279" y1="274.9766" y2="274.9766"/><text fill="#000000" font-family="sans-serif" font-size="13" lengthAdjust="spacing" textLength="205.1943" x="711.084" y="270.1201">List&lt;FaceDataDto&gt; (128-D vectors)</text><line style="stroke:#181818;stroke-width:2;" x1="694.084" x2="736.084" y1="305.3281" y2="305.3281"/><line style="stroke:#181818;stroke-width:2;" x1="736.084" x2="736.084" y1="305.3281" y2="318.3281"/><line style="stroke:#181818;stroke-width:2;" x1="695.084" x2="736.084" y1="318.3281" y2="318.3281"/><polygon fill="#181818" points="705.084,314.3281,695.084,318.3281,705.084,322.3281,701.084,318.3281" style="stroke:#181818;stroke-width:1;"/><text fill="#000000" font-family="sans-serif" font-size="13" lengthAdjust="spacing" textLength="153.1816" x="701.084" y="300.4717">Detect face locations (dlib)</text><line style="stroke:#181818;stroke-width:2;" x1="694.084" x2="736.084" y1="348.6797" y2="348.6797"/><line style="stroke:#181818;stroke-width:2;" x1="736.084" x2="736.084" y1="348.6797" y2="361.6797"/><line style="stroke:#181818;stroke-width:2;" x1="695.084" x2="736.084" y1="361.6797" y2="361.6797"/><polygon fill="#181818" points="705.084,357.6797,695.084,361.6797,705.084,365.6797,701.084,361.6797" style="stroke:#181818;stroke-width:1;"/><text fill="#000000" font-family="sans-serif" font-size="13" lengthAdjust="spacing" textLength="184.9897" x="701.084" y="343.8232">Compute face encoding (128-D)</text><line style="stroke:#181818;stroke-width:2;" x1="694.084" x2="736.084" y1="392.0313" y2="392.0313"/><line style="stroke:#181818;stroke-width:2;" x1="736.084" x2="736.084" y1="392.0313" y2="405.0313"/><line style="stroke:#181818;stroke-width:2;" x1="695.084" x2="736.084" y1="405.0313" y2="405.0313"/><polygon fill="#181818" points="705.084,401.0313,695.084,405.0313,705.084,409.0313,701.084,405.0313" style="stroke:#181818;stroke-width:1;"/><text fill="#000000" font-family="sans-serif" font-size="13" lengthAdjust="spacing" textLength="210.2915" x="701.084" y="387.1748">Euclidean distance vs enrolled faces</text><polygon fill="#181818" points="386.248,431.3828,376.248,435.3828,386.248,439.3828,382.248,435.3828" style="stroke:#181818;stroke-width:1;"/><line style="stroke:#181818;stroke-width:2;stroke-dasharray:2.0,2.0;" x1="380.248" x2="693.084" y1="435.3828" y2="435.3828"/><text fill="#000000" font-family="sans-serif" font-size="13" lengthAdjust="spacing" textLength="294.8359" x="392.248" y="430.5264">FaceMatchItem {employeeId, confidence, distance}</text><path d="M10,450.3828 L70.1709,450.3828 L70.1709,458.7344 L60.1709,468.7344 L10,468.7344 L10,450.3828 " fill="#EEEEEE" style="stroke:#000000;stroke-width:1.5;"/><rect fill="none" height="368.0547" style="stroke:#000000;stroke-width:1.5;" width="1212.1968" x="10" y="450.3828"/><text fill="#000000" font-family="sans-serif" font-size="13" font-weight="bold" lengthAdjust="spacing" textLength="15.1709" x="25" y="464.8779">alt</text><text fill="#000000" font-family="sans-serif" font-size="11" font-weight="bold" lengthAdjust="spacing" textLength="188.8745" x="85.1709" y="463.8018">[confidence &gt;= 0.70 (threshold met)]</text><polygon fill="#181818" points="906.3755,487.0859,916.3755,491.0859,906.3755,495.0859,910.3755,491.0859" style="stroke:#181818;stroke-width:1;"/><line style="stroke:#181818;stroke-width:2;" x1="375.248" x2="912.3755" y1="491.0859" y2="491.0859"/><text fill="#000000" font-family="sans-serif" font-size="13" lengthAdjust="spacing" textLength="299.9014" x="382.248" y="486.2295">SaveAttendanceLog(CheckIn, Success, confidence)</text><polygon fill="#181818" points="1164.1279,517.4375,1174.1279,521.4375,1164.1279,525.4375,1168.1279,521.4375" style="stroke:#181818;stroke-width:1;"/><line style="stroke:#181818;stroke-width:2;" x1="918.3755" x2="1170.1279" y1="521.4375" y2="521.4375"/><text fill="#000000" font-family="sans-serif" font-size="13" lengthAdjust="spacing" textLength="146.6943" x="925.3755" y="516.5811">INSERT attendance_logs</text><polygon fill="#181818" points="906.3755,547.7891,916.3755,551.7891,906.3755,555.7891,910.3755,551.7891" style="stroke:#181818;stroke-width:1;"/><line style="stroke:#181818;stroke-width:2;" x1="375.248" x2="912.3755" y1="551.7891" y2="551.7891"/><text fill="#000000" font-family="sans-serif" font-size="13" lengthAdjust="spacing" textLength="273.8633" x="382.248" y="546.9326">UpsertAttendanceRecord(employeeId, checkIn)</text><polygon fill="#181818" points="1164.1279,578.1406,1174.1279,582.1406,1164.1279,586.1406,1168.1279,582.1406" style="stroke:#181818;stroke-width:1;"/><line style="stroke:#181818;stroke-width:2;" x1="918.3755" x2="1170.1279" y1="582.1406" y2="582.1406"/><text fill="#000000" font-family="sans-serif" font-size="13" lengthAdjust="spacing" textLength="229.7598" x="925.3755" y="577.2842">INSERT / UPDATE attendance_records</text><polygon fill="#181818" points="1164.1279,608.4922,1174.1279,612.4922,1164.1279,616.4922,1168.1279,612.4922" style="stroke:#181818;stroke-width:1;"/><line style="stroke:#181818;stroke-width:2;" x1="918.3755" x2="1170.1279" y1="612.4922" y2="612.4922"/><text fill="#000000" font-family="sans-serif" font-size="13" lengthAdjust="spacing" textLength="185.7007" x="925.3755" y="607.6357">Calculate status (Present / Late)</text><polygon fill="#181818" points="929.3755,638.8438,919.3755,642.8438,929.3755,646.8438,925.3755,642.8438" style="stroke:#181818;stroke-width:1;"/><line style="stroke:#181818;stroke-width:2;stroke-dasharray:2.0,2.0;" x1="923.3755" x2="1175.1279" y1="642.8438" y2="642.8438"/><text fill="#000000" font-family="sans-serif" font-size="13" lengthAdjust="spacing" textLength="81.6816" x="935.3755" y="637.9873">attendance_id</text><polygon fill="#181818" points="386.248,669.1953,376.248,673.1953,386.248,677.1953,382.248,673.1953" style="stroke:#181818;stroke-width:1;"/><line style="stroke:#181818;stroke-width:2;stroke-dasharray:2.0,2.0;" x1="380.248" x2="917.3755" y1="673.1953" y2="673.1953"/><text fill="#000000" font-family="sans-serif" font-size="13" lengthAdjust="spacing" textLength="127.9116" x="392.248" y="668.3389">AttendanceRecordDto</text><polygon fill="#181818" points="65.1274,699.5469,55.1274,703.5469,65.1274,707.5469,61.1274,703.5469" style="stroke:#181818;stroke-width:1;"/><line style="stroke:#181818;stroke-width:2;stroke-dasharray:2.0,2.0;" x1="59.1274" x2="374.248" y1="703.5469" y2="703.5469"/><text fill="#000000" font-family="sans-serif" font-size="13" lengthAdjust="spacing" textLength="149.7476" x="71.1274" y="698.6904">"Check-In OK &#8212; 07:56 &#10003;"</text><line style="stroke:#000000;stroke-width:1;stroke-dasharray:2.0,2.0;" x1="10" x2="1222.1968" y1="712.5469" y2="712.5469"/><text fill="#000000" font-family="sans-serif" font-size="11" font-weight="bold" lengthAdjust="spacing" textLength="201.3945" x="15" y="723.9658">[confidence &lt; 0.70 (recognition failed)]</text><polygon fill="#181818" points="906.3755,745.7344,916.3755,749.7344,906.3755,753.7344,910.3755,749.7344" style="stroke:#181818;stroke-width:1;"/><line style="stroke:#181818;stroke-width:2;" x1="375.248" x2="912.3755" y1="749.7344" y2="749.7344"/><text fill="#000000" font-family="sans-serif" font-size="13" lengthAdjust="spacing" textLength="216.0742" x="382.248" y="744.8779">SaveAttendanceLog(CheckIn, Failed)</text><polygon fill="#181818" points="1164.1279,776.0859,1174.1279,780.0859,1164.1279,784.0859,1168.1279,780.0859" style="stroke:#181818;stroke-width:1;"/><line style="stroke:#181818;stroke-width:2;" x1="918.3755" x2="1170.1279" y1="780.0859" y2="780.0859"/><text fill="#000000" font-family="sans-serif" font-size="13" lengthAdjust="spacing" textLength="233.7524" x="925.3755" y="775.2295">INSERT attendance_logs (result=Failed)</text><polygon fill="#181818" points="65.1274,806.4375,55.1274,810.4375,65.1274,814.4375,61.1274,810.4375" style="stroke:#181818;stroke-width:1;"/><line style="stroke:#181818;stroke-width:2;stroke-dasharray:2.0,2.0;" x1="59.1274" x2="374.248" y1="810.4375" y2="810.4375"/><text fill="#000000" font-family="sans-serif" font-size="13" lengthAdjust="spacing" textLength="197.1074" x="71.1274" y="805.5811">"Face not recognized &#8212; try again"</text><!--SRC=[bLJRRXen47ttLunu0eaqQQHUX998m4A4IXeAuIrIvAm7i33srlOIqIXI_w5zxDVbIpesot9hfNOVrsVEEJDdR3UNEkEMBy3XrnnrYarhpTFTJAPpZSx1END747Xc00DklKnbnhLlyNG-jIRNecsKiT2NqvblgHmFOCOAj6j8mksyG3HJR-mVAQujeYP4NqwmBpKU4bnRlc8lp4kl44ORSudaq-3szVjFw2moPLQ8qELqqfvXEZ_fQUWgyyGO3yAm_YeRP0LsFkwWSpDWsRO7gBJv0Ys719SoBT44R3Tlze7ZTjDxr8AJgNjT7VTgbGWSz_PnmTeGKpFLqakZx_K8xPgRmDtXQ1yznCmuISPNbJsVmyxWbWdk-IDt63iQVUbBJ-DeLVOxIbgCKLS09rV1D403Hfvh0LB3n1eICHD8OvSidXDkt8E0Q_FCvnO9HiTGVPH-mRCQYwU48hC1LJJp3KDdhYeNV8e3xcTrcD2FX3psfVCrnYAUwf9MPEyRBe12aKkCo8VG3b2cHaWzTIp2JWeTWXF9HRTWJBovWkhRyuyd2Imn1Ejs10fZ2NewYjoWJCh3k1rKXPAFjKDisoootA-Db1uAXIDm9q-L5CWr238L0eUbeofhb48HELnHKmop4JVoXljqrlEuW6Sizgydwf0QFI4wegcNX2-qhyhl7C7L9Poz-N06LJ-pw6P62LWWZHLWaqVOYP0kN-9s5VjcMeqNeQVhCCfJikPs9GD1BDm6q_iywWplW9SS3yfG7aT2uyoXzLkfi0XMLFTQMol_NUGKneEaUTVPLREHnntNjBbASyKf9XgIpodB0Oq2QOLFeK-_WqovDQ6siKihHSbOfd9edlQgx9D0uTuqw0tOF2Itd-8pS_QXyUuzlFxwKM6ewFhjf7HHX6ItDvpsGT9Q_5zItRBcdy89WYvN_h9xeBLj8Zw9sdYmc_igOZFUhe1FkTJKZ1RiDm00]--></g></svg>