<svg xmlns="http://www.w3.org/2000/svg" xmlns:xlink="http://www.w3.org/1999/xlink" contentStyleType="text/css" height="796px" preserveAspectRatio="none" style="width:1344px;height:796px;background:#FFFFFF;" version="1.1" viewBox="0 0 1344 796" width="1344px" zoomAndPan="magnify"><title>State Machine &#8212; AttendanceRecord Lifecycle</title><defs/><g><text fill="#000000" font-family="sans-serif" font-size="14" font-weight="bold" lengthAdjust="spacing" textLength="304.6367" x="512.9961" y="24.5332">State Machine &#8212; AttendanceRecord Lifecycle</text><ellipse cx="825" cy="54.6094" fill="#222222" rx="10" ry="10" style="stroke:#222222;stroke-width:1;"/><g id="NotYet"><rect fill="#F08080" height="50" rx="12.5" ry="12.5" style="stroke:#8B0000;stroke-width:0.5;" width="62.7998" x="793.5" y="163.1094"/><line style="stroke:#8B0000;stroke-width:0.5;" x1="793.5" x2="856.2998" y1="190.7188" y2="190.7188"/><text fill="#000000" font-family="sans-serif" font-size="14" lengthAdjust="spacing" textLength="42.7998" x="803.5" y="182.6426">NotYet</text></g><g id="Present"><rect fill="#F08080" height="50" rx="12.5" ry="12.5" style="stroke:#8B0000;stroke-width:0.5;" width="68.248" x="7" y="476.1094"/><line style="stroke:#8B0000;stroke-width:0.5;" x1="7" x2="75.248" y1="503.7188" y2="503.7188"/><text fill="#000000" font-family="sans-serif" font-size="14" lengthAdjust="spacing" textLength="48.248" x="17" y="495.6426">Present</text></g><g id="Late"><rect fill="#F08080" height="50" rx="12.5" ry="12.5" style="stroke:#8B0000;stroke-width:0.5;" width="50" x="681" y="476.1094"/><line style="stroke:#8B0000;stroke-width:0.5;" x1="681" x2="731" y1="503.7188" y2="503.7188"/><text fill="#000000" font-family="sans-serif" font-size="14" lengthAdjust="spacing" textLength="27.248" x="692.376" y="495.6426">Late</text></g><g id="Absent"><rect fill="#F08080" height="50" rx="12.5" ry="12.5" style="stroke:#8B0000;stroke-width:0.5;" width="63.5859" x="313" y="311.6094"/><line style="stroke:#8B0000;stroke-width:0.5;" x1="313" x2="376.5859" y1="339.2188" y2="339.2188"/><text fill="#000000" font-family="sans-serif" font-size="14" lengthAdjust="spacing" textLength="43.5859" x="323" y="331.1426">Absent</text></g><g id="Holiday"><rect fill="#F08080" height="50" rx="12.5" ry="12.5" style="stroke:#8B0000;stroke-width:0.5;" width="66.6895" x="919.5" y="391.6094"/><line style="stroke:#8B0000;stroke-width:0.5;" x1="919.5" x2="986.1895" y1="419.2188" y2="419.2188"/><text fill="#000000" font-family="sans-serif" font-size="14" lengthAdjust="spacing" textLength="46.6895" x="929.5" y="411.1426">Holiday</text></g><g id="DayOff"><rect fill="#F08080" height="50" rx="12.5" ry="12.5" style="stroke:#8B0000;stroke-width:0.5;" width="63.5654" x="1065" y="560.6094"/><line style="stroke:#8B0000;stroke-width:0.5;" x1="1065" x2="1128.5654" y1="588.2188" y2="588.2188"/><text fill="#000000" font-family="sans-serif" font-size="14" lengthAdjust="spacing" textLength="43.5654" x="1075" y="580.1426">DayOff</text></g><g id="Leave"><rect fill="#F08080" height="50" rx="12.5" ry="12.5" style="stroke:#8B0000;stroke-width:0.5;" width="58.1445" x="1203" y="391.6094"/><line style="stroke:#8B0000;stroke-width:0.5;" x1="1203" x2="1261.1445" y1="419.2188" y2="419.2188"/><text fill="#000000" font-family="sans-serif" font-size="14" lengthAdjust="spacing" textLength="38.1445" x="1213" y="411.1426">Leave</text></g><g id="EarlyLeave"><rect fill="#F08080" height="50" rx="12.5" ry="12.5" style="stroke:#8B0000;stroke-width:0.5;" width="90.041" x="16" y="640.6094"/><line style="stroke:#8B0000;stroke-width:0.5;" x1="16" x2="106.041" y1="668.2188" y2="668.2188"/><text fill="#000000" font-family="sans-serif" font-size="14" lengthAdjust="spacing" textLength="70.041" x="26" y="660.1426">EarlyLeave</text></g><g id="LateAndEarly"><rect fill="#F08080" height="50" rx="12.5" ry="12.5" style="stroke:#8B0000;stroke-width:0.5;" width="104.0547" x="575" y="640.6094"/><line style="stroke:#8B0000;stroke-width:0.5;" x1="575" x2="679.0547" y1="668.2188" y2="668.2188"/><text fill="#000000" font-family="sans-serif" font-size="14" lengthAdjust="spacing" textLength="84.0547" x="585" y="660.1426">LateAndEarly</text></g><ellipse cx="703" cy="779.6094" fill="none" rx="11" ry="11" style="stroke:#222222;stroke-width:1;"/><ellipse cx="703" cy="779.6094" fill="#222222" rx="6" ry="6" style="stroke:#222222;stroke-width:1;"/><g id="elem_GMN2"><path d="M892,158.6094 L892,184.1094 L856.76,188.1094 L892,192.1094 L892,217.6641 A0,0 0 0 0 892,217.6641 L1035.8525,217.6641 A0,0 0 0 0 1035.8525,217.6641 L1035.8525,168.6094 L1025.8525,158.6094 L892,158.6094 A0,0 0 0 0 892,158.6094 " fill="#FEFFDD" style="stroke:#181818;stroke-width:0.5;"/><path d="M1025.8525,158.6094 L1025.8525,168.6094 L1035.8525,168.6094 L1025.8525,158.6094 " fill="#FEFFDD" style="stroke:#181818;stroke-width:0.5;"/><text fill="#000000" font-family="sans-serif" font-size="13" lengthAdjust="spacing" textLength="116.3271" x="898" y="177.1045">Initial state for every</text><text fill="#000000" font-family="sans-serif" font-size="13" lengthAdjust="spacing" textLength="122.8525" x="898" y="193.4561">active employee on a</text><text fill="#000000" font-family="sans-serif" font-size="13" lengthAdjust="spacing" textLength="69.3672" x="898" y="209.8076">working day</text></g><g id="elem_GMN5"><path d="M258,471.6094 L258,497.1094 L75.23,501.1094 L258,505.1094 L258,530.6641 A0,0 0 0 0 258,530.6641 L393.9116,530.6641 A0,0 0 0 0 393.9116,530.6641 L393.9116,481.6094 L383.9116,471.6094 L258,471.6094 A0,0 0 0 0 258,471.6094 " fill="#FEFFDD" style="stroke:#181818;stroke-width:0.5;"/><path d="M383.9116,471.6094 L383.9116,481.6094 L393.9116,481.6094 L383.9116,471.6094 " fill="#FEFFDD" style="stroke:#181818;stroke-width:0.5;"/><text fill="#000000" font-family="sans-serif" font-size="13" lengthAdjust="spacing" textLength="75.8735" x="264" y="490.1045">status field in</text><text fill="#000000" font-family="sans-serif" font-size="13" lengthAdjust="spacing" textLength="114.9116" x="264" y="506.4561">attendance_records</text><text fill="#000000" font-family="sans-serif" font-size="13" lengthAdjust="spacing" textLength="108.3862" x="264" y="522.8076">(9 possible values)</text></g><g id="elem_GMN8"><path d="M412.5,315.1094 L412.5,332.6094 L377.16,336.6094 L412.5,340.6094 L412.5,357.8125 A0,0 0 0 0 412.5,357.8125 L635.5332,357.8125 A0,0 0 0 0 635.5332,357.8125 L635.5332,325.1094 L625.5332,315.1094 L412.5,315.1094 A0,0 0 0 0 412.5,315.1094 " fill="#FEFFDD" style="stroke:#181818;stroke-width:0.5;"/><path d="M625.5332,315.1094 L625.5332,325.1094 L635.5332,325.1094 L625.5332,315.1094 " fill="#FEFFDD" style="stroke:#181818;stroke-width:0.5;"/><text fill="#000000" font-family="sans-serif" font-size="13" lengthAdjust="spacing" textLength="165.4897" x="418.5" y="333.6045">Triggered by background job</text><text fill="#000000" font-family="sans-serif" font-size="13" lengthAdjust="spacing" textLength="202.0332" x="418.5" y="349.9561">attendance.auto_absent_hour = 22</text></g><!--link *start* to NotYet--><g id="link_*start*_NotYet"><path d="M825,64.6494 C825,84.6694 825,127.3094 825,156.9094 " fill="none" id="*start*-to-NotYet" style="stroke:#2F4F4F;stroke-width:1;"/><polygon fill="#2F4F4F" points="825,162.9094,829,153.9094,825,157.9094,821,153.9094,825,162.9094" style="stroke:#2F4F4F;stroke-width:1;"/><text fill="#000000" font-family="sans-serif" font-size="13" lengthAdjust="spacing" textLength="106.9517" x="826" y="109.1045">work_date created</text><text fill="#000000" font-family="sans-serif" font-size="13" lengthAdjust="spacing" textLength="95.3799" x="831.7859" y="125.4561">(shift scheduled)</text></g><!--link NotYet to Present--><g id="link_NotYet_Present"><path d="M793.46,191.7494 C677.67,201.9294 277.38,241.5994 173,311.6094 C110.79,353.3294 71.3209,429.5695 53.3509,470.3195 " fill="none" id="NotYet-to-Present" style="stroke:#2F4F4F;stroke-width:1;"/><polygon fill="#2F4F4F" points="50.93,475.8094,58.2214,469.1885,52.9475,471.2345,50.9015,465.9606,50.93,475.8094" style="stroke:#2F4F4F;stroke-width:1;"/><text fill="#000000" font-family="sans-serif" font-size="13" lengthAdjust="spacing" textLength="120.3071" x="174" y="334.1045">CheckIn + CheckOut</text><text fill="#000000" font-family="sans-serif" font-size="13" lengthAdjust="spacing" textLength="96.8271" x="185.74" y="350.4561">within thresholds</text></g><!--link NotYet to Late--><g id="link_NotYet_Late"><path d="M793.23,210.5494 C764.29,232.1694 723.5,268.4694 706,311.6094 C683.54,366.9494 691.9397,433.3046 699.2797,470.2146 " fill="none" id="NotYet-to-Late" style="stroke:#2F4F4F;stroke-width:1;"/><polygon fill="#2F4F4F" points="700.45,476.0994,702.6178,466.4921,699.4748,471.1954,694.7714,468.0524,700.45,476.0994" style="stroke:#2F4F4F;stroke-width:1;"/><text fill="#000000" font-family="sans-serif" font-size="13" lengthAdjust="spacing" textLength="184.2725" x="707" y="342.1045">CheckIn &gt; start + late_threshold</text></g><!--link NotYet to Absent--><g id="link_NotYet_Absent"><path d="M793.22,194.3294 C742.6,203.0294 640.83,222.0794 557,247.6094 C482.94,270.1594 465.94,280.6194 395,311.6094 C389.18,314.1494 388.4522,314.4105 382.5422,317.2105 " fill="none" id="NotYet-to-Absent" style="stroke:#2F4F4F;stroke-width:1;"/><polygon fill="#2F4F4F" points="377.12,319.7794,386.966,319.5408,381.6385,317.6386,383.5408,312.3112,377.12,319.7794" style="stroke:#2F4F4F;stroke-width:1;"/><text fill="#000000" font-family="sans-serif" font-size="13" lengthAdjust="spacing" textLength="121.4053" x="558" y="262.1045">No CheckIn by 22:00</text><text fill="#000000" font-family="sans-serif" font-size="13" lengthAdjust="spacing" textLength="96.8335" x="570.2859" y="278.4561">(AutoAbsentJob)</text></g><!--link NotYet to Holiday--><g id="link_NotYet_Holiday"><path d="M840.51,213.1794 C856.09,237.6494 880.51,276.7994 900,311.6094 C915.05,338.4894 928.2714,364.7207 938.6814,385.9807 " fill="none" id="NotYet-to-Holiday" style="stroke:#2F4F4F;stroke-width:1;"/><polygon fill="#2F4F4F" points="941.32,391.3694,940.9546,381.5273,939.1212,386.8788,933.7697,385.0454,941.32,391.3694" style="stroke:#2F4F4F;stroke-width:1;"/><text fill="#000000" font-family="sans-serif" font-size="13" lengthAdjust="spacing" textLength="122.1416" x="883" y="270.1045">date in holidays table</text></g><!--link NotYet to DayOff--><g id="link_NotYet_DayOff"><path d="M856.7,209.4694 C862.31,212.5094 868.22,215.3694 874,217.6094 C933.35,240.5594 968.32,203.2994 1014,247.6094 C1102.88,333.8294 1102.8984,492.7895 1099.3084,554.5195 " fill="none" id="NotYet-to-DayOff" style="stroke:#2F4F4F;stroke-width:1;"/><polygon fill="#2F4F4F" points="1098.96,560.5094,1103.4758,551.7568,1099.2503,555.5178,1095.4893,551.2923,1098.96,560.5094" style="stroke:#2F4F4F;stroke-width:1;"/><text fill="#000000" font-family="sans-serif" font-size="13" lengthAdjust="spacing" textLength="81.3071" x="1083.4214" y="334.1045">is_day_off = 1</text><text fill="#000000" font-family="sans-serif" font-size="13" lengthAdjust="spacing" textLength="88.1499" x="1080" y="350.4561">(shift schedule)</text></g><!--link NotYet to Leave--><g id="link_NotYet_Leave"><path d="M856.54,209.9094 C862.17,212.8994 868.12,215.6294 874,217.6094 C977.56,252.4494 1018.44,202.6094 1118,247.6094 C1157.01,265.2394 1165.33,276.6194 1190,311.6094 C1207.39,336.2794 1217.4179,363.4459 1223.9679,385.5859 " fill="none" id="NotYet-to-Leave" style="stroke:#2F4F4F;stroke-width:1;"/><polygon fill="#2F4F4F" points="1225.67,391.3394,1226.9525,381.5744,1224.2515,386.5448,1219.2811,383.8439,1225.67,391.3394" style="stroke:#2F4F4F;stroke-width:1;"/><text fill="#000000" font-family="sans-serif" font-size="13" lengthAdjust="spacing" textLength="139.4897" x="1168" y="262.1045">approved leave_request</text><text fill="#000000" font-family="sans-serif" font-size="13" lengthAdjust="spacing" textLength="104.7681" x="1185.3608" y="278.4561">exists for this date</text></g><!--link Present to EarlyLeave--><g id="link_Present_EarlyLeave"><path d="M38.56,526.4594 C36.92,548.5894 35.88,582.0594 41,610.6094 C42.8,620.6494 44.1338,625.6797 47.7438,634.8097 " fill="none" id="Present-to-EarlyLeave" style="stroke:#2F4F4F;stroke-width:1;"/><polygon fill="#2F4F4F" points="49.95,640.3894,50.3605,630.5491,48.1115,635.7397,42.9209,633.4907,49.95,640.3894" style="stroke:#2F4F4F;stroke-width:1;"/><text fill="#000000" font-family="sans-serif" font-size="13" lengthAdjust="spacing" textLength="194.7461" x="42" y="591.1045">CheckOut &lt; end - early_threshold</text></g><!--link Late to LateAndEarly--><g id="link_Late_LateAndEarly"><path d="M680.86,512.2694 C661.4,521.6394 635.85,537.5994 624,560.6094 C611.18,585.4994 613.6662,612.5272 618.6562,634.5872 " fill="none" id="Late-to-LateAndEarly" style="stroke:#2F4F4F;stroke-width:1;"/><polygon fill="#2F4F4F" points="619.98,640.4394,621.8958,630.7786,618.8769,635.5626,614.0929,632.5437,619.98,640.4394" style="stroke:#2F4F4F;stroke-width:1;"/><text fill="#000000" font-family="sans-serif" font-size="13" lengthAdjust="spacing" textLength="129.708" x="625" y="591.1045">Late + CheckOut early</text></g><!--link Present to Present--><g id="link_Present_Present"><path d="M75.08,486.0094 C93.35,483.4394 110,488.4794 110,501.1094 C110,513.7394 99.2915,519.6152 81.0215,517.0452 " fill="none" id="Present-to-Present" style="stroke:#2F4F4F;stroke-width:1;"/><polygon fill="#2F4F4F" points="75.08,516.2094,83.4351,521.424,80.0313,516.9059,84.5494,513.502,75.08,516.2094" style="stroke:#2F4F4F;stroke-width:1;"/><text fill="#000000" font-family="sans-serif" font-size="13" lengthAdjust="spacing" textLength="89.5972" x="130.2759" y="498.6045">HR manual edit</text><text fill="#000000" font-family="sans-serif" font-size="13" lengthAdjust="spacing" textLength="118.1489" x="116" y="514.9561">(is_manual_edit = 1)</text></g><!--link Absent to Present--><g id="link_Absent_Present"><path d="M312.75,354.8494 C254.99,385.7194 139.6918,447.3615 80.5218,478.9815 " fill="none" id="Absent-to-Present" style="stroke:#2F4F4F;stroke-width:1;"/><polygon fill="#2F4F4F" points="75.23,481.8094,85.0529,481.0954,79.6398,479.4528,81.2824,474.0397,75.23,481.8094" style="stroke:#2F4F4F;stroke-width:1;"/><text fill="#000000" font-family="sans-serif" font-size="13" lengthAdjust="spacing" textLength="89.5972" x="259.2205" y="414.1045">HR manual edit</text><text fill="#000000" font-family="sans-serif" font-size="13" lengthAdjust="spacing" textLength="130.0381" x="239" y="430.4561">(retroactive correction)</text></g><!--link Leave to *end*--><g id="link_Leave_*end*"><path d="M1234.85,441.9294 C1239.58,494.3994 1242.93,619.2094 1179,690.6094 C1114.4,762.7694 786.2273,776.1493 720.2973,778.1293 " fill="none" id="Leave-to-*end*" style="stroke:#2F4F4F;stroke-width:1;"/><polygon fill="#2F4F4F" points="714.3,778.3094,723.416,782.0374,719.2977,778.1593,723.1759,774.041,714.3,778.3094" style="stroke:#2F4F4F;stroke-width:1;"/><text fill="#000000" font-family="sans-serif" font-size="13" lengthAdjust="spacing" textLength="102.6289" x="1234" y="591.1045">leave period ends</text></g><!--link Holiday to *end*--><g id="link_Holiday_*end*"><path d="M952.04,441.6094 C949.24,500.8394 939.23,651.9294 909,690.6094 C857.99,755.8794 755.2102,772.7696 720.1302,776.8296 " fill="none" id="Holiday-to-*end*" style="stroke:#2F4F4F;stroke-width:1;"/><polygon fill="#2F4F4F" points="714.17,777.5194,723.5702,780.4581,719.1368,776.9445,722.6505,772.5112,714.17,777.5194" style="stroke:#2F4F4F;stroke-width:1;"/><text fill="#000000" font-family="sans-serif" font-size="13" lengthAdjust="spacing" textLength="97.5508" x="944" y="591.1045">next working day</text></g><!--link DayOff to *end*--><g id="link_DayOff_*end*"><path d="M1086.95,610.8494 C1071.2,645.4994 1037.23,708.3594 987,738.6094 C939.66,767.1294 766.8449,776.0227 720.1849,777.9427 " fill="none" id="DayOff-to-*end*" style="stroke:#2F4F4F;stroke-width:1;"/><polygon fill="#2F4F4F" points="714.19,778.1894,723.3468,781.816,719.1858,777.9838,723.0179,773.8227,714.19,778.1894" style="stroke:#2F4F4F;stroke-width:1;"/><text fill="#000000" font-family="sans-serif" font-size="13" lengthAdjust="spacing" textLength="97.5508" x="1073" y="671.1045">next working day</text></g><!--link Present to *end*--><g id="link_Present_*end*"><path d="M75.12,503.1994 C118.85,506.3694 194.55,518.1294 241,560.6094 C286.8,602.4894 247.73,647.1094 292,690.6094 C335.64,733.4794 361.71,723.5594 421,738.6094 C524.53,764.8894 648.1241,774.8879 686.0941,777.4979 " fill="none" id="Present-to-*end*" style="stroke:#2F4F4F;stroke-width:1;"/><polygon fill="#2F4F4F" points="692.08,777.9094,683.3755,773.3016,687.0918,777.5665,682.8269,781.2828,692.08,777.9094" style="stroke:#2F4F4F;stroke-width:1;"/><text fill="#000000" font-family="sans-serif" font-size="13" lengthAdjust="spacing" textLength="127.8926" x="293" y="671.1045">end of work day (final)</text></g><!--link Late to *end*--><g id="link_Late_*end*"><path d="M731.08,522.1494 C741.86,532.3794 753.28,545.7794 759,560.6094 C770.13,589.4594 782.47,689.0094 757,738.6094 C747.73,756.6694 731.5768,766.1868 718.6868,772.0168 " fill="none" id="Late-to-*end*" style="stroke:#2F4F4F;stroke-width:1;"/><polygon fill="#2F4F4F" points="713.22,774.4894,723.0686,774.4251,717.7757,772.4289,719.7719,767.1359,713.22,774.4894" style="stroke:#2F4F4F;stroke-width:1;"/><text fill="#000000" font-family="sans-serif" font-size="13" lengthAdjust="spacing" textLength="127.8926" x="773" y="671.1045">end of work day (final)</text></g><!--link EarlyLeave to *end*--><g id="link_EarlyLeave_*end*"><path d="M69.94,690.7094 C77.42,707.2094 89.84,727.9694 108,738.6094 C160.26,769.2194 608.1107,777.1997 685.7307,778.3597 " fill="none" id="EarlyLeave-to-*end*" style="stroke:#2F4F4F;stroke-width:1;"/><polygon fill="#2F4F4F" points="691.73,778.4494,682.7908,774.3153,686.7306,778.3747,682.6712,782.3144,691.73,778.4494" style="stroke:#2F4F4F;stroke-width:1;"/><text fill="#000000" font-family="sans-serif" font-size="13" lengthAdjust="spacing" textLength="127.8926" x="109" y="735.1045">end of work day (final)</text></g><!--link LateAndEarly to *end*--><g id="link_LateAndEarly_*end*"><path d="M619.55,690.6794 C616.44,705.5494 615.29,724.4294 624,738.6094 C639.05,763.0994 668.3905,771.9631 686.2805,775.6031 " fill="none" id="LateAndEarly-to-*end*" style="stroke:#2F4F4F;stroke-width:1;"/><polygon fill="#2F4F4F" points="692.16,776.7994,684.1382,771.0853,687.2604,775.8025,682.5432,778.9246,692.16,776.7994" style="stroke:#2F4F4F;stroke-width:1;"/><text fill="#000000" font-family="sans-serif" font-size="13" lengthAdjust="spacing" textLength="127.8926" x="625" y="735.1045">end of work day (final)</text></g><!--link Absent to *end*--><g id="link_Absent_*end*"><path d="M360.95,361.8794 C366.66,371.0194 372.93,381.6194 378,391.6094 C395.42,425.8994 396.37,436.0394 411,471.6094 C436.4,533.3594 429.58,555.9994 468,610.6094 C516.9,680.0994 538.46,692.7694 610,738.6094 C637.82,756.4394 669.2339,767.7945 686.9839,773.5645 " fill="none" id="Absent-to-*end*" style="stroke:#2F4F4F;stroke-width:1;"/><polygon fill="#2F4F4F" points="692.69,775.4194,685.3675,768.833,687.9349,773.8736,682.8943,776.4411,692.69,775.4194" style="stroke:#2F4F4F;stroke-width:1;"/><text fill="#000000" font-family="sans-serif" font-size="13" lengthAdjust="spacing" textLength="138.7344" x="469" y="591.1045">record kept for reporting</text></g><!--SRC=[ZLJRRjD047ttLynZ0YegUIE2Ig6jsgBIefONH96ryOxZ9TjTCxjEiIeaFe8lv4kOyIrEeHL-IJHxpjcPCxCJriQLYjGjXAWYmdq2y5PbwnNvokb3Rpt1kLaLyT2JidBeIIEr1qUArbUeEReWydVRuBLbhHDIDHzTHqLnUtH2Y8x3nxrwB_8ZYIPQ53pdyLvbXN48lt_-WaMCwBHo6LvXnjTpGZbcTMOnIJu_-m9xUmTmuUCdZ327Eq_hL8j4HiW_-iPDGc7o224hK5SMzJH9EhWmFn06T17acyDXWTdwpC7pzjzb5M_SdOcS2yI2aOMtEepfvt9Lzstf1s8dHPOH9zA1EcOkbiEzpBpm0tbPmsmstz_dp1TLz2tkdLzEn-nJRurMTSTk2kOSYpOQ8AebspF27wdwCi_xsqnWZ-hKS-GDlFpBefsRpb5jSAXGbINv3Mgm4au9lrKOs2JyRa8Ca7D7sQtGP9GalRcYSwp8reFOV30ONWEt5_O01J3oghUsjtdXTACXvEPiswIMktFTkA_2EBs2M-KgPG6ruOGdx44RI2KWFaoJlYV_9K0OoQii6gw8vvAG_th7qzKMAHeodZs_CGnA9EErL1oIleTZv1pOojYCiN4hjh5EkjRjwFq3DYv-goRM-hm12WeckN7AJbjpTrDy0ZtgtS1vMdjeLeT_7Drv_g0yQf_w6ilO31LXwIbohKdYFATEifH4hvrKtYXdpaJ3tMaNcN1mWoGhgEiHtfRMruZW7IWEZysJv4JteNfdAgD5jk81DsWrFpMH7VPIscORE3Xv1QKFmV3pWuso_3YcZugtbJFf8uTMIFog-EqlX_KBN_rovvuNYlT1gXfQMlYAU6fdiwt-7m00]--></g></svg>