<svg xmlns="http://www.w3.org/2000/svg" xmlns:xlink="http://www.w3.org/1999/xlink" contentStyleType="text/css" height="531px" preserveAspectRatio="none" style="width:2908px;height:531px;background:#FFFFFF;" version="1.1" viewBox="0 0 2908 531" width="2908px" zoomAndPan="magnify"><title>Use Case Diagram &#8212; FaceID Attendance System</title><defs/><g><text fill="#000000" font-family="sans-serif" font-size="14" font-weight="bold" lengthAdjust="spacing" textLength="324.8984" x="1284.8908" y="24.5332">Use Case Diagram &#8212; FaceID Attendance System</text><!--cluster FaceID Attendance System--><g id="cluster_FaceID Attendance System"><rect fill="none" height="215" rx="2.5" ry="2.5" style="stroke:#181818;stroke-width:1;" width="2788" x="114.68" y="310.1094"/><text fill="#000000" font-family="sans-serif" font-size="14" font-weight="bold" lengthAdjust="spacing" textLength="179.7305" x="1418.8148" y="326.6426">FaceID Attendance System</text></g><g id="elem_UC1"><ellipse cx="1478.594" cy="369.5922" fill="#87CEFA" rx="70.414" ry="16.4828" style="stroke:#00008B;stroke-width:0.5;"/><text fill="#000000" font-family="sans-serif" font-size="14" lengthAdjust="spacing" textLength="88.7441" x="1431.2219" y="374.1088">Login / Logout</text></g><g id="elem_UC2"><ellipse cx="220.5356" cy="369.4805" fill="#87CEFA" rx="89.8556" ry="20.3711" style="stroke:#00008B;stroke-width:0.5;"/><text fill="#000000" font-family="sans-serif" font-size="14" lengthAdjust="spacing" textLength="137.7441" x="151.6635" y="373.209">View Own Attendance</text></g><g id="elem_UC3"><ellipse cx="437.7205" cy="369.8175" fill="#87CEFA" rx="91.5405" ry="20.7081" style="stroke:#00008B;stroke-width:0.5;"/><text fill="#000000" font-family="sans-serif" font-size="14" lengthAdjust="spacing" textLength="141.6406" x="366.9002" y="373.546">Submit Leave Request</text></g><g id="elem_UC4"><ellipse cx="1402.7775" cy="490.3289" fill="#87CEFA" rx="79.0975" ry="18.2195" style="stroke:#00008B;stroke-width:0.5;"/><text fill="#000000" font-family="sans-serif" font-size="14" lengthAdjust="spacing" textLength="112.0479" x="1345.359" y="494.4504">Check In via Face</text></g><g id="elem_UC5"><ellipse cx="2197.7411" cy="490.2216" fill="#87CEFA" rx="83.5611" ry="19.1122" style="stroke:#00008B;stroke-width:0.5;"/><text fill="#000000" font-family="sans-serif" font-size="14" lengthAdjust="spacing" textLength="122.9375" x="2136.2724" y="493.9501">Check Out via Face</text></g><g id="elem_UC6"><ellipse cx="870.7676" cy="369.5269" fill="#87CEFA" rx="82.5876" ry="18.9175" style="stroke:#00008B;stroke-width:0.5;"/><text fill="#000000" font-family="sans-serif" font-size="14" lengthAdjust="spacing" textLength="120.6064" x="810.4643" y="373.2554">Register Face Data</text></g><g id="elem_UC7"><ellipse cx="1069.7953" cy="369.8324" fill="#87CEFA" rx="81.6153" ry="18.7231" style="stroke:#00008B;stroke-width:0.5;"/><text fill="#000000" font-family="sans-serif" font-size="14" lengthAdjust="spacing" textLength="118.2617" x="1010.3694" y="373.6483">Verify Face Quality</text></g><g id="elem_UC8"><ellipse cx="1910.5763" cy="369.7886" fill="#87CEFA" rx="83.8963" ry="19.1793" style="stroke:#00008B;stroke-width:0.5;"/><text fill="#000000" font-family="sans-serif" font-size="14" lengthAdjust="spacing" textLength="123.7373" x="1848.7077" y="373.5172">Manage Employees</text></g><g id="elem_UC9"><ellipse cx="1279.9131" cy="369.656" fill="#87CEFA" rx="93.2331" ry="21.0466" style="stroke:#00008B;stroke-width:0.5;"/><text fill="#000000" font-family="sans-serif" font-size="14" lengthAdjust="spacing" textLength="145.5303" x="1207.1479" y="373.3845">Approve / Reject Leave</text></g><g id="elem_UC10"><ellipse cx="658.4352" cy="369.3604" fill="#87CEFA" rx="94.2552" ry="21.251" style="stroke:#00008B;stroke-width:0.5;"/><text fill="#000000" font-family="sans-serif" font-size="14" lengthAdjust="spacing" textLength="147.8682" x="584.5012" y="373.0889">Edit Attendance Record</text></g><g id="elem_UC11"><ellipse cx="1687.7572" cy="369.7248" fill="#87CEFA" rx="103.5772" ry="23.1154" style="stroke:#00008B;stroke-width:0.5;"/><text fill="#000000" font-family="sans-serif" font-size="14" lengthAdjust="spacing" textLength="168.8613" x="1603.3265" y="373.4533">View Reports &amp; Dashboard</text></g><g id="elem_UC12"><ellipse cx="2352.7603" cy="369.7254" fill="#87CEFA" rx="76.0803" ry="17.6161" style="stroke:#00008B;stroke-width:0.5;"/><text fill="#000000" font-family="sans-serif" font-size="14" lengthAdjust="spacing" textLength="104.2754" x="2297.7477" y="374.2133">Manage Devices</text></g><g id="elem_UC13"><ellipse cx="2565.8582" cy="369.445" fill="#87CEFA" rx="102.1782" ry="22.8356" style="stroke:#00008B;stroke-width:0.5;"/><text fill="#000000" font-family="sans-serif" font-size="14" lengthAdjust="spacing" textLength="165.7441" x="2482.9861" y="373.1735">Configure System Settings</text></g><g id="elem_UC14"><ellipse cx="2135.8612" cy="369.6456" fill="#87CEFA" rx="105.6812" ry="23.5362" style="stroke:#00008B;stroke-width:0.5;"/><text fill="#000000" font-family="sans-serif" font-size="14" lengthAdjust="spacing" textLength="173.5303" x="2049.0961" y="373.3741">Manage Departments/Shifts</text></g><g id="elem_UC15"><ellipse cx="2794.7205" cy="369.8175" fill="#87CEFA" rx="91.5405" ry="20.7081" style="stroke:#00008B;stroke-width:0.5;"/><text fill="#000000" font-family="sans-serif" font-size="14" lengthAdjust="spacing" textLength="141.6406" x="2723.9002" y="373.546">Auto Face Recognition</text></g><!--entity EMP--><g id="elem_EMP"><ellipse cx="220.8074" cy="200.6094" fill="#F1F1F1" rx="16" ry="16" style="stroke:#181818;stroke-width:0.5;"/><path d="M220.8074,220.6094 C224.8074,220.6094 227.8074,220.6094 231.8074,216.6094 C239.8074,216.6094 247.8074,224.6094 247.8074,232.6094 L247.8074,236.6094 C247.8074,240.6094 243.8074,244.6094 239.8074,244.6094 L201.8074,244.6094 C197.8074,244.6094 193.8074,240.6094 193.8074,236.6094 L193.8074,232.6094 C193.8074,224.6094 201.8074,216.6094 209.8074,216.6094 C213.8074,220.6094 216.8074,220.6094 220.8074,220.6094 " fill="#F1F1F1" style="stroke:#181818;stroke-width:0.5;"/><text fill="#000000" font-family="sans-serif" font-size="14" lengthAdjust="spacing" textLength="62.2549" x="189.68" y="259.6426">Employee</text></g><!--entity HR--><g id="elem_HR"><ellipse cx="1279.68" cy="200.6094" fill="#F1F1F1" rx="16" ry="16" style="stroke:#181818;stroke-width:0.5;"/><path d="M1279.68,220.6094 C1283.68,220.6094 1286.68,220.6094 1290.68,216.6094 C1298.68,216.6094 1306.68,224.6094 1306.68,232.6094 L1306.68,236.6094 C1306.68,240.6094 1302.68,244.6094 1298.68,244.6094 L1260.68,244.6094 C1256.68,244.6094 1252.68,240.6094 1252.68,236.6094 L1252.68,232.6094 C1252.68,224.6094 1260.68,216.6094 1268.68,216.6094 C1272.68,220.6094 1275.68,220.6094 1279.68,220.6094 " fill="#F1F1F1" style="stroke:#181818;stroke-width:0.5;"/><text fill="#000000" font-family="sans-serif" font-size="14" lengthAdjust="spacing" textLength="52.9033" x="1253.2283" y="259.6426">HR Staff</text></g><!--entity MGR--><g id="elem_MGR"><ellipse cx="1478.8074" cy="200.6094" fill="#F1F1F1" rx="16" ry="16" style="stroke:#181818;stroke-width:0.5;"/><path d="M1478.8074,220.6094 C1482.8074,220.6094 1485.8074,220.6094 1489.8074,216.6094 C1497.8074,216.6094 1505.8074,224.6094 1505.8074,232.6094 L1505.8074,236.6094 C1505.8074,240.6094 1501.8074,244.6094 1497.8074,244.6094 L1459.8074,244.6094 C1455.8074,244.6094 1451.8074,240.6094 1451.8074,236.6094 L1451.8074,232.6094 C1451.8074,224.6094 1459.8074,216.6094 1467.8074,216.6094 C1471.8074,220.6094 1474.8074,220.6094 1478.8074,220.6094 " fill="#F1F1F1" style="stroke:#181818;stroke-width:0.5;"/><text fill="#000000" font-family="sans-serif" font-size="14" lengthAdjust="spacing" textLength="55.2549" x="1451.18" y="259.6426">Manager</text></g><!--entity ADM--><g id="elem_ADM"><ellipse cx="2135.68" cy="200.6094" fill="#F1F1F1" rx="16" ry="16" style="stroke:#181818;stroke-width:0.5;"/><path d="M2135.68,220.6094 C2139.68,220.6094 2142.68,220.6094 2146.68,216.6094 C2154.68,216.6094 2162.68,224.6094 2162.68,232.6094 L2162.68,236.6094 C2162.68,240.6094 2158.68,244.6094 2154.68,244.6094 L2116.68,244.6094 C2112.68,244.6094 2108.68,240.6094 2108.68,236.6094 L2108.68,232.6094 C2108.68,224.6094 2116.68,216.6094 2124.68,216.6094 C2128.68,220.6094 2131.68,220.6094 2135.68,220.6094 " fill="#F1F1F1" style="stroke:#181818;stroke-width:0.5;"/><text fill="#000000" font-family="sans-serif" font-size="14" lengthAdjust="spacing" textLength="39.6826" x="2115.8387" y="259.6426">Admin</text></g><!--entity SA--><g id="elem_SA"><ellipse cx="2322.7005" cy="60.6094" fill="#F1F1F1" rx="16" ry="16" style="stroke:#181818;stroke-width:0.5;"/><path d="M2322.7005,80.6094 C2326.7005,80.6094 2329.7005,80.6094 2333.7005,76.6094 C2341.7005,76.6094 2349.7005,84.6094 2349.7005,92.6094 L2349.7005,96.6094 C2349.7005,100.6094 2345.7005,104.6094 2341.7005,104.6094 L2303.7005,104.6094 C2299.7005,104.6094 2295.7005,100.6094 2295.7005,96.6094 L2295.7005,92.6094 C2295.7005,84.6094 2303.7005,76.6094 2311.7005,76.6094 C2315.7005,80.6094 2318.7005,80.6094 2322.7005,80.6094 " fill="#F1F1F1" style="stroke:#181818;stroke-width:0.5;"/><text fill="#000000" font-family="sans-serif" font-size="14" lengthAdjust="spacing" textLength="77.041" x="2284.18" y="119.6426">SuperAdmin</text></g><!--entity DEV--><g id="elem_DEV"><ellipse cx="2794.9178" cy="200.6094" fill="#F1F1F1" rx="16" ry="16" style="stroke:#181818;stroke-width:0.5;"/><path d="M2794.9178,220.6094 C2798.9178,220.6094 2801.9178,220.6094 2805.9178,216.6094 C2813.9178,216.6094 2821.9178,224.6094 2821.9178,232.6094 L2821.9178,236.6094 C2821.9178,240.6094 2817.9178,244.6094 2813.9178,244.6094 L2775.9178,244.6094 C2771.9178,244.6094 2767.9178,240.6094 2767.9178,236.6094 L2767.9178,232.6094 C2767.9178,224.6094 2775.9178,216.6094 2783.9178,216.6094 C2787.9178,220.6094 2790.9178,220.6094 2794.9178,220.6094 " fill="#F1F1F1" style="stroke:#181818;stroke-width:0.5;"/><text fill="#000000" font-family="sans-serif" font-size="14" lengthAdjust="spacing" textLength="96.4756" x="2746.68" y="259.6426">Camera/Device</text></g><!--link EMP to UC1--><g id="link_EMP_UC1"><path d="M251.8,224.2794 C415.05,222.9094 1173.21,221.0894 1390.68,302.1094 C1420.11,313.0694 1443.6785,333.0658 1459.8885,349.0558 " fill="none" id="EMP-to-UC1" style="stroke:#2F4F4F;stroke-width:1;"/><polygon fill="#2F4F4F" points="1464.16,353.2694,1460.5617,344.1014,1460.6004,349.7581,1454.9437,349.7967,1464.16,353.2694" style="stroke:#2F4F4F;stroke-width:1;"/></g><!--link EMP to UC2--><g id="link_EMP_UC2"><path d="M220.68,263.1994 C220.68,290.8594 220.68,320.9694 220.68,342.9394 " fill="none" id="EMP-to-UC2" style="stroke:#2F4F4F;stroke-width:1;"/><polygon fill="#2F4F4F" points="220.68,348.9394,224.68,339.9394,220.68,343.9394,216.68,339.9394,220.68,348.9394" style="stroke:#2F4F4F;stroke-width:1;"/></g><!--link EMP to UC3--><g id="link_EMP_UC3"><path d="M251.77,245.2394 C294.08,273.3194 364.1505,319.812 404.7505,346.752 " fill="none" id="EMP-to-UC3" style="stroke:#2F4F4F;stroke-width:1;"/><polygon fill="#2F4F4F" points="409.75,350.0694,404.4624,341.7603,405.5838,347.3049,400.0392,348.4263,409.75,350.0694" style="stroke:#2F4F4F;stroke-width:1;"/></g><!--link EMP to UC4--><g id="link_EMP_UC4"><path d="M189.59,227.0894 C149.86,232.1094 82.55,247.2894 51.68,293.1094 C14.93,347.6594 6,393.7794 51.68,441.1094 C96.02,487.0494 1035.29,489.5753 1317.7,489.2953 " fill="none" id="EMP-to-UC4" style="stroke:#2F4F4F;stroke-width:1;"/><polygon fill="#2F4F4F" points="1323.7,489.2894,1314.696,485.2983,1318.7,489.2943,1314.704,493.2983,1323.7,489.2894" style="stroke:#2F4F4F;stroke-width:1;"/></g><!--link EMP to UC5--><g id="link_EMP_UC5"><path d="M189.65,237.3394 C164.05,249.6994 129.48,271.1594 113.68,302.1094 C95.29,338.1294 85.75,363.8594 113.68,393.1094 C148.87,429.9494 1726.9223,476.0423 2109.2723,486.6923 " fill="none" id="EMP-to-UC5" style="stroke:#2F4F4F;stroke-width:1;"/><polygon fill="#2F4F4F" points="2115.27,486.8594,2106.3849,482.6103,2110.2719,486.7202,2106.1621,490.6072,2115.27,486.8594" style="stroke:#2F4F4F;stroke-width:1;"/></g><!--link HR to UC1--><g id="link_HR_UC1"><path d="M1307.25,243.4394 C1329.84,258.9594 1362.54,281.6594 1390.68,302.1094 C1414.54,319.4394 1436.7829,336.3329 1454.5029,349.9529 " fill="none" id="HR-to-UC1" style="stroke:#2F4F4F;stroke-width:1;"/><polygon fill="#2F4F4F" points="1459.26,353.6094,1454.5619,344.9533,1455.2957,350.5623,1449.6867,351.2961,1459.26,353.6094" style="stroke:#2F4F4F;stroke-width:1;"/></g><!--link HR to UC6--><g id="link_HR_UC6"><path d="M1251.78,228.3494 C1196.32,236.4694 1069.07,258.6094 970.68,302.1094 C941.51,315.0094 916.2294,332.5728 896.7994,347.5728 " fill="none" id="HR-to-UC6" style="stroke:#2F4F4F;stroke-width:1;"/><polygon fill="#2F4F4F" points="892.05,351.2394,901.6184,348.9058,896.0078,348.1839,896.7297,342.5733,892.05,351.2394" style="stroke:#2F4F4F;stroke-width:1;"/></g><!--link HR to UC7--><g id="link_HR_UC7"><path d="M1251.79,243.7294 C1210.4,272.1194 1138.3285,321.5364 1099.0385,348.4764 " fill="none" id="HR-to-UC7" style="stroke:#2F4F4F;stroke-width:1;"/><polygon fill="#2F4F4F" points="1094.09,351.8694,1103.7747,350.0788,1098.2137,349.0419,1099.2507,343.4809,1094.09,351.8694" style="stroke:#2F4F4F;stroke-width:1;"/></g><!--link HR to UC8--><g id="link_HR_UC8"><path d="M1307.25,232.7594 C1337.87,241.5094 1388.9,255.2194 1433.68,263.1094 C1598.71,292.1694 1650.75,246.1194 1808.68,302.1094 C1839.76,313.1294 1866.1662,331.6469 1885.7062,347.3769 " fill="none" id="HR-to-UC8" style="stroke:#2F4F4F;stroke-width:1;"/><polygon fill="#2F4F4F" points="1890.38,351.1394,1885.8777,342.3799,1886.4852,348.004,1880.8611,348.6115,1890.38,351.1394" style="stroke:#2F4F4F;stroke-width:1;"/></g><!--link HR to UC9--><g id="link_HR_UC9"><path d="M1279.68,263.1994 C1279.68,290.6894 1279.68,320.5294 1279.68,342.5394 " fill="none" id="HR-to-UC9" style="stroke:#2F4F4F;stroke-width:1;"/><polygon fill="#2F4F4F" points="1279.68,348.5394,1283.68,339.5394,1279.68,343.5394,1275.68,339.5394,1279.68,348.5394" style="stroke:#2F4F4F;stroke-width:1;"/></g><!--link HR to UC10--><g id="link_HR_UC10"><path d="M1252.02,225.1294 C1173.98,227.3794 946.38,239.2794 770.68,302.1094 C739.38,313.2994 712.02,330.1353 690.2,345.3653 " fill="none" id="HR-to-UC10" style="stroke:#2F4F4F;stroke-width:1;"/><polygon fill="#2F4F4F" points="685.28,348.7994,694.9495,346.9282,689.38,345.9376,690.3707,340.3682,685.28,348.7994" style="stroke:#2F4F4F;stroke-width:1;"/></g><!--link HR to UC11--><g id="link_HR_UC11"><path d="M1307.37,231.6894 C1374.51,248.8994 1542.27,292.2694 1566.68,302.1094 C1597.81,314.6594 1625.9469,330.2627 1649.7069,344.6427 " fill="none" id="HR-to-UC11" style="stroke:#2F4F4F;stroke-width:1;"/><polygon fill="#2F4F4F" points="1654.84,347.7494,1649.2114,339.6673,1650.5624,345.1605,1645.0692,346.5115,1654.84,347.7494" style="stroke:#2F4F4F;stroke-width:1;"/></g><!--link MGR to UC1--><g id="link_MGR_UC1"><path d="M1478.68,263.1994 C1478.68,292.5194 1478.68,325.3494 1478.68,346.7494 " fill="none" id="MGR-to-UC1" style="stroke:#2F4F4F;stroke-width:1;"/><polygon fill="#2F4F4F" points="1478.68,352.7494,1482.68,343.7494,1478.68,347.7494,1474.68,343.7494,1478.68,352.7494" style="stroke:#2F4F4F;stroke-width:1;"/></g><!--link MGR to UC9--><g id="link_MGR_UC9"><path d="M1451.01,244.6294 C1412.67,272.3794 1348.7209,318.652 1311.0209,345.932 " fill="none" id="MGR-to-UC9" style="stroke:#2F4F4F;stroke-width:1;"/><polygon fill="#2F4F4F" points="1306.16,349.4494,1315.7962,347.4139,1310.2107,346.5182,1311.1064,340.9327,1306.16,349.4494" style="stroke:#2F4F4F;stroke-width:1;"/></g><!--link MGR to UC11--><g id="link_MGR_UC11"><path d="M1506.58,237.5794 C1532.66,250.2294 1572.19,270.7794 1603.68,293.1094 C1626.55,309.3294 1645.7903,326.7843 1662.1103,342.7443 " fill="none" id="MGR-to-UC11" style="stroke:#2F4F4F;stroke-width:1;"/><polygon fill="#2F4F4F" points="1666.4,346.9394,1662.7622,337.787,1662.8253,343.4435,1657.1688,343.5066,1666.4,346.9394" style="stroke:#2F4F4F;stroke-width:1;"/></g><!--link ADM to UC1--><g id="link_ADM_UC1"><path d="M2108.09,226.5094 C2008.34,233.6694 1667.02,260.7194 1566.68,302.1094 C1537.83,314.0094 1514.3782,333.5745 1497.9982,349.2245 " fill="none" id="ADM-to-UC1" style="stroke:#2F4F4F;stroke-width:1;"/><polygon fill="#2F4F4F" points="1493.66,353.3694,1502.9306,350.0442,1497.2752,349.9153,1497.4041,344.2599,1493.66,353.3694" style="stroke:#2F4F4F;stroke-width:1;"/></g><!--link ADM to UC8--><g id="link_ADM_UC8"><path d="M2107.76,242.0294 C2082.78,257.6594 2045.19,281.2694 2012.68,302.1094 C1986.87,318.6494 1962.597,334.4984 1942.047,347.9784 " fill="none" id="ADM-to-UC8" style="stroke:#2F4F4F;stroke-width:1;"/><polygon fill="#2F4F4F" points="1937.03,351.2694,1946.7494,349.6776,1941.2108,348.5269,1942.3615,342.9884,1937.03,351.2694" style="stroke:#2F4F4F;stroke-width:1;"/></g><!--link ADM to UC12--><g id="link_ADM_UC12"><path d="M2163.31,241.4294 C2188.41,256.8594 2226.36,280.5194 2258.68,302.1094 C2283.78,318.8794 2307.1099,335.4809 2326.0199,349.1709 " fill="none" id="ADM-to-UC12" style="stroke:#2F4F4F;stroke-width:1;"/><polygon fill="#2F4F4F" points="2330.88,352.6894,2325.9355,344.1716,2326.8299,349.7573,2321.2442,350.6517,2330.88,352.6894" style="stroke:#2F4F4F;stroke-width:1;"/></g><!--link ADM to UC13--><g id="link_ADM_UC13"><path d="M2163.48,228.9794 C2218.81,238.2394 2346.05,262.2794 2446.68,302.1094 C2477.49,314.2994 2505.0933,329.8833 2528.4033,344.3633 " fill="none" id="ADM-to-UC13" style="stroke:#2F4F4F;stroke-width:1;"/><polygon fill="#2F4F4F" points="2533.5,347.5294,2527.9656,339.3825,2529.2528,344.891,2523.7443,346.1781,2533.5,347.5294" style="stroke:#2F4F4F;stroke-width:1;"/></g><!--link ADM to UC14--><g id="link_ADM_UC14"><path d="M2135.68,263.1994 C2135.68,289.6894 2135.68,317.9394 2135.68,340.0894 " fill="none" id="ADM-to-UC14" style="stroke:#2F4F4F;stroke-width:1;"/><polygon fill="#2F4F4F" points="2135.68,346.0894,2139.68,337.0894,2135.68,341.0894,2131.68,337.0894,2135.68,346.0894" style="stroke:#2F4F4F;stroke-width:1;"/></g><!--link ADM to UC11--><g id="link_ADM_UC11"><path d="M2107.9,228.6594 C2050.68,237.5394 1916.14,261.2794 1809.68,302.1094 C1778.04,314.2494 1749.5077,329.9738 1725.5777,344.5138 " fill="none" id="ADM-to-UC11" style="stroke:#2F4F4F;stroke-width:1;"/><polygon fill="#2F4F4F" points="1720.45,347.6294,1730.2186,346.3744,1724.7231,345.033,1726.0644,339.5375,1720.45,347.6294" style="stroke:#2F4F4F;stroke-width:1;"/></g><!--link SA to UC13--><g id="link_SA_UC13"><path d="M2355.71,123.2094 C2407.48,183.7194 2502.1793,294.3903 2543.1793,342.3103 " fill="none" id="SA-to-UC13" style="stroke:#2F4F4F;stroke-width:1;"/><polygon fill="#2F4F4F" points="2547.08,346.8694,2544.2683,337.4304,2543.8294,343.0702,2538.1896,342.6313,2547.08,346.8694" style="stroke:#2F4F4F;stroke-width:1;"/></g><!--link SA to ADM--><g id="link_SA_ADM"><path d="M2283.93,113.1994 C2247.99,139.7294 2200.1974,174.9963 2168.2774,198.5563 " fill="none" id="SA-to-ADM" style="stroke:#2F4F4F;stroke-width:1;"/><polygon fill="#2F4F4F" points="2163.45,202.1194,2173.0666,199.993,2167.4729,199.1501,2168.3158,193.5564,2163.45,202.1194" style="stroke:#2F4F4F;stroke-width:1;"/></g><!--link DEV to UC15--><g id="link_DEV_UC15"><path d="M2794.68,263.1994 C2794.68,290.8594 2794.68,320.9694 2794.68,342.9394 " fill="none" id="DEV-to-UC15" style="stroke:#2F4F4F;stroke-width:1;"/><polygon fill="#2F4F4F" points="2794.68,348.9394,2798.68,339.9394,2794.68,343.9394,2790.68,339.9394,2794.68,348.9394" style="stroke:#2F4F4F;stroke-width:1;"/></g><!--link UC15 to UC4--><g id="link_UC15_UC4"><path d="M2732.96,384.7894 C2717.58,387.9294 2701.08,390.9494 2685.68,393.1094 C2449.82,426.1394 1722.6197,470.408 1484.3197,484.388 " fill="none" id="UC15-to-UC4" style="stroke:#2F4F4F;stroke-width:1;"/><polygon fill="#2F4F4F" points="1478.33,484.7394,1487.5488,488.2054,1483.3214,484.4466,1487.0803,480.2192,1478.33,484.7394" style="stroke:#2F4F4F;stroke-width:1;"/><text fill="#000000" font-family="sans-serif" font-size="13" lengthAdjust="spacing" textLength="43.3481" x="2382.68" y="437.6045">triggers</text></g><!--link UC15 to UC5--><g id="link_UC15_UC5"><path d="M2729.86,384.0894 C2715.33,387.0894 2699.98,390.2294 2685.68,393.1094 C2532.48,423.9894 2357.85,458.0458 2265.24,476.0258 " fill="none" id="UC15-to-UC5" style="stroke:#2F4F4F;stroke-width:1;"/><polygon fill="#2F4F4F" points="2259.35,477.1694,2268.9474,479.3808,2264.2583,476.2164,2267.4227,471.5274,2259.35,477.1694" style="stroke:#2F4F4F;stroke-width:1;"/><text fill="#000000" font-family="sans-serif" font-size="13" lengthAdjust="spacing" textLength="43.3481" x="2525.68" y="437.6045">triggers</text></g><!--SRC=[TPJDSjem4CVlUeeT7thB4498GW-TSO0ccGcJ5azoLynYLB14fNKOJwSpVOWyOP-aQpl6Iq8vc9N-Fqch_L1O6xlLNkUWKt8-eNA3e7SON8ugxCKYOAe3mYy5SAtJTUPTOHTZjt4UxassecHTNcyAh6Jd5-WRQQBz-cqwzjxjkjbaembll2xLRqM6-D17tdvSdJ4nEglE_Fld5Rxg5Eyc41EXNMYR8YHb8CoLgjs5Q9flDwv4ZA3-wG3JsRTMl9r3GdgvxCJRUQlDjDKP-ZUfqcOtUp5UvCQsKYt6arah9iKMVKUmcCIjDjOvUjsRu8j9sIVM9jCdfJocf6t6jup-TwEeZcqRv-ZUPSP23_ZV5TIvqlhpEEvB_CdW3XvsLkmR7U9d4a-AvzmGtAD-GPZZpm93TqQD3oG-Nc6wXZiBBqRNAOdUEtF-4Nyew1XVuqE9pp4p705VarmSfD_Z5mTNHM-MPGD_B_J6KFdkgfSIR_8CRPs4w4CWhoGURxVUSL1w79OVdBKcHf70HnAVBZYC8fTpJBdy9Tu__P2dEMwTfm2V-B9XzUpqsug6xn_nlgcdSBGC3X8xTdPfiiAtLGK94XcRrKiRVd1qVsvpoj5Iw2KhioJ17wGsBiWreQzkcbb3njdem9yXTxJY9eIJaozrcNRscR07mZuNzb0fRjlzuiw-4FQbiA-4FP9hJ-MWhnJtztxRpXx9UQQuqVTKPr_9-JCv6CZ1kHpmPaaC7TSEggT4yRFGAaDLVTfGm6SWRp9-ceAS7yhvVm00]--></g></svg>